  0
SECTION
  2
HEADER
  9
$ACADVER
  1
AC1027
  9
$ACADMAINTVER
 70
     8
  9
$DWGCODEPAGE
  3
ANSI_1252
  9
$REQUIREDVERSIONS
160
                 0
  9
$INSBASE
 10
0.0
 20
0.0
 30
0.0
  9
$EXTMIN
 10
1.000000000000000E+20
 20
1.000000000000000E+20
 30
1.000000000000000E+20
  9
$EXTMAX
 10
-1.000000000000000E+20
 20
-1.000000000000000E+20
 30
-1.000000000000000E+20
  9
$LIMMIN
 10
0.0
 20
0.0
  9
$LIMMAX
 10
12.0
 20
9.0
  9
$ORTHOMODE
 70
     0
  9
$REGENMODE
 70
     1
  9
$FILLMODE
 70
     1
  9
$QTEXTMODE
 70
     0
  9
$MIRRTEXT
 70
     1
  9
$LTSCALE
 40
1.0
  9
$ATTMODE
 70
     1
  9
$TEXTSIZE
 40
2.5
  9
$TRACEWID
 40
0.05
  9
$TEXTSTYLE
  7
Standard
  9
$CLAYER
  8
0
  9
$CELTYPE
  6
ByLayer
  9
$CECOLOR
 62
   178
  9
$CELTSCALE
 40
1.0
  9
$DISPSILH
 70
     0
  9
$DIMSCALE
 40
1.0
  9
$DIMASZ
 40
2.5
  9
$DIMEXO
 40
0.625
  9
$DIMDLI
 40
0.38
  9
$DIMRND
 40
0.0
  9
$DIMDLE
 40
0.0
  9
$DIMEXE
 40
1.25
  9
$DIMTP
 40
0.0
  9
$DIMTM
 40
0.0
  9
$DIMTXT
 40
2.5
  9
$DIMCEN
 40
0.09
  9
$DIMTSZ
 40
0.0
  9
$DIMTOL
 70
     0
  9
$DIMLIM
 70
     0
  9
$DIMTIH
 70
     1
  9
$DIMTOH
 70
     1
  9
$DIMSE1
 70
     0
  9
$DIMSE2
 70
     0
  9
$DIMTAD
 70
     0
  9
$DIMZIN
 70
     8
  9
$DIMBLK
  1

  9
$DIMASO
 70
     1
  9
$DIMSHO
 70
     1
  9
$DIMPOST
  1

  9
$DIMAPOST
  1

  9
$DIMALT
 70
     0
  9
$DIMALTD
 70
     2
  9
$DIMALTF
 40
25.4
  9
$DIMLFAC
 40
1.0
  9
$DIMTOFL
 70
     0
  9
$DIMTVP
 40
0.0
  9
$DIMTIX
 70
     0
  9
$DIMSOXD
 70
     0
  9
$DIMSAH
 70
     0
  9
$DIMBLK1
  1

  9
$DIMBLK2
  1

  9
$DIMSTYLE
  2
Standard
  9
$DIMCLRD
 70
   178
  9
$DIMCLRE
 70
   178
  9
$DIMCLRT
 70
   178
  9
$DIMTFAC
 40
1.0
  9
$DIMGAP
 40
0.625
  9
$DIMJUST
 70
     0
  9
$DIMSD1
 70
     0
  9
$DIMSD2
 70
     0
  9
$DIMTOLJ
 70
     1
  9
$DIMTZIN
 70
     0
  9
$DIMALTZ
 70
     0
  9
$DIMALTTZ
 70
     0
  9
$DIMUPT
 70
     0
  9
$DIMDEC
 70
     4
  9
$DIMTDEC
 70
     4
  9
$DIMALTU
 70
     2
  9
$DIMALTTD
 70
     2
  9
$DIMTXSTY
  7
Standard
  9
$DIMAUNIT
 70
     0
  9
$DIMADEC
 70
     0
  9
$DIMALTRND
 40
0.0
  9
$DIMAZIN
 70
     2
  9
$DIMDSEP
 70
    46
  9
$DIMATFIT
 70
     3
  9
$DIMFRAC
 70
     0
  9
$DIMLDRBLK
  1

  9
$DIMLUNIT
 70
     2
  9
$DIMLWD
 70
    -2
  9
$DIMLWE
 70
    -2
  9
$DIMTMOVE
 70
     0
  9
$DIMFXL
 40
1.0
  9
$DIMFXLON
 70
     0
  9
$DIMJOGANG
 40
0.7853981633974483
  9
$DIMTFILL
 70
     0
  9
$DIMTFILLCLR
 70
     0
  9
$DIMARCSYM
 70
     0
  9
$DIMLTYPE
  6

  9
$DIMLTEX1
  6

  9
$DIMLTEX2
  6

  9
$DIMTXTDIRECTION
 70
     0
  9
$LUNITS
 70
     2
  9
$LUPREC
 70
     4
  9
$SKETCHINC
 40
0.1
  9
$FILLETRAD
 40
0.5
  9
$AUNITS
 70
     0
  9
$AUPREC
 70
     0
  9
$MENU
  1
.
  9
$ELEVATION
 40
0.0
  9
$PELEVATION
 40
0.0
  9
$THICKNESS
 40
0.0
  9
$LIMCHECK
 70
     0
  9
$CHAMFERA
 40
0.0
  9
$CHAMFERB
 40
0.0
  9
$CHAMFERC
 40
0.0
  9
$CHAMFERD
 40
0.0
  9
$SKPOLY
 70
     0
  9
$TDCREATE
 40
2457925.700300926
  9
$TDUCREATE
 40
2457925.658634259
  9
$TDUPDATE
 40
2457925.700300926
  9
$TDUUPDATE
 40
2457925.658634259
  9
$TDINDWG
 40
0.0000000116
  9
$TDUSRTIMER
 40
0.0000000116
  9
$USRTIMER
 70
     1
  9
$ANGBASE
 50
0.0
  9
$ANGDIR
 70
     0
  9
$PDMODE
 70
     0
  9
$PDSIZE
 40
0.0
  9
$PLINEWID
 40
0.0
  9
$SPLFRAME
 70
     0
  9
$SPLINETYPE
 70
     6
  9
$SPLINESEGS
 70
     8
  9
$HANDSEED
  5
78B
  9
$SURFTAB1
 70
     6
  9
$SURFTAB2
 70
     6
  9
$SURFTYPE
 70
     6
  9
$SURFU
 70
     6
  9
$SURFV
 70
     6
  9
$UCSBASE
  2

  9
$UCSNAME
  2

  9
$UCSORG
 10
0.0
 20
0.0
 30
0.0
  9
$UCSXDIR
 10
1.0
 20
0.0
 30
0.0
  9
$UCSYDIR
 10
0.0
 20
1.0
 30
0.0
  9
$UCSORTHOREF
  2

  9
$UCSORTHOVIEW
 70
     0
  9
$UCSORGTOP
 10
0.0
 20
0.0
 30
0.0
  9
$UCSORGBOTTOM
 10
0.0
 20
0.0
 30
0.0
  9
$UCSORGLEFT
 10
0.0
 20
0.0
 30
0.0
  9
$UCSORGRIGHT
 10
0.0
 20
0.0
 30
0.0
  9
$UCSORGFRONT
 10
0.0
 20
0.0
 30
0.0
  9
$UCSORGBACK
 10
0.0
 20
0.0
 30
0.0
  9
$PUCSBASE
  2

  9
$PUCSNAME
  2

  9
$PUCSORG
 10
0.0
 20
0.0
 30
0.0
  9
$PUCSXDIR
 10
1.0
 20
0.0
 30
0.0
  9
$PUCSYDIR
 10
0.0
 20
1.0
 30
0.0
  9
$PUCSORTHOREF
  2

  9
$PUCSORTHOVIEW
 70
     0
  9
$PUCSORGTOP
 10
0.0
 20
0.0
 30
0.0
  9
$PUCSORGBOTTOM
 10
0.0
 20
0.0
 30
0.0
  9
$PUCSORGLEFT
 10
0.0
 20
0.0
 30
0.0
  9
$PUCSORGRIGHT
 10
0.0
 20
0.0
 30
0.0
  9
$PUCSORGFRONT
 10
0.0
 20
0.0
 30
0.0
  9
$PUCSORGBACK
 10
0.0
 20
0.0
 30
0.0
  9
$USERI1
 70
     0
  9
$USERI2
 70
     0
  9
$USERI3
 70
     0
  9
$USERI4
 70
     0
  9
$USERI5
 70
     0
  9
$USERR1
 40
0.0
  9
$USERR2
 40
0.0
  9
$USERR3
 40
0.0
  9
$USERR4
 40
0.0
  9
$USERR5
 40
0.0
  9
$WORLDVIEW
 70
     1
  9
$SHADEDGE
 70
     3
  9
$SHADEDIF
 70
    70
  9
$TILEMODE
 70
     1
  9
$MAXACTVP
 70
     2
  9
$PINSBASE
 10
0.0
 20
0.0
 30
0.0
  9
$PLIMCHECK
 70
     0
  9
$PEXTMIN
 10
1.000000000000000E+20
 20
1.000000000000000E+20
 30
1.000000000000000E+20
  9
$PEXTMAX
 10
-1.000000000000000E+20
 20
-1.000000000000000E+20
 30
-1.000000000000000E+20
  9
$PLIMMIN
 10
0.0
 20
0.0
  9
$PLIMMAX
 10
420.0
 20
297.0
  9
$UNITMODE
 70
     0
  9
$VISRETAIN
 70
     1
  9
$PLINEGEN
 70
     0
  9
$PSLTSCALE
 70
     1
  9
$TREEDEPTH
 70
  3020
  9
$CMLSTYLE
  2
Standard
  9
$CMLJUST
 70
     0
  9
$CMLSCALE
 40
1.0
  9
$PROXYGRAPHICS
 70
     1
  9
$MEASUREMENT
 70
     1
  9
$CELWEIGHT
370
    -1
  9
$ENDCAPS
280
     0
  9
$JOINSTYLE
280
     0
  9
$LWDISPLAY
290
     0
  9
$INSUNITS
 70
     4
  9
$HYPERLINKBASE
  1

  9
$STYLESHEET
  1

  9
$XEDIT
290
     1
  9
$CEPSNTYPE
380
     0
  9
$PSTYLEMODE
290
     1
  9
$FINGERPRINTGUID
  2
{548CCDB3-0CD5-85D5-B6C3-1197F0E459BF}
  9
$VERSIONGUID
  2
{FAEB1C32-E019-11D5-929B-00C0DF256EC4}
  9
$EXTNAMES
290
     1
  9
$PSVPSCALE
 40
0.0
  9
$OLESTARTUP
290
     0
  9
$SORTENTS
280
   127
  9
$INDEXCTL
280
     0
  9
$HIDETEXT
280
     1
  9
$XCLIPFRAME
280
     2
  9
$HALOGAP
280
     0
  9
$OBSCOLOR
 70
   257
  9
$OBSLTYPE
280
     0
  9
$INTERSECTIONDISPLAY
280
     0
  9
$INTERSECTIONCOLOR
 70
   257
  9
$DIMASSOC
280
     2
  9
$PROJECTNAME
  1

  9
$CAMERADISPLAY
290
     0
  9
$LENSLENGTH
 40
50.0
  9
$CAMERAHEIGHT
 40
0.0
  9
$STEPSPERSEC
 40
2.0
  9
$STEPSIZE
 40
6.0
  9
$3DDWFPREC
 40
2.0
  9
$PSOLWIDTH
 40
0.25
  9
$PSOLHEIGHT
 40
4.0
  9
$LOFTANG1
 40
1.570796326794897
  9
$LOFTANG2
 40
1.570796326794897
  9
$LOFTMAG1
 40
0.0
  9
$LOFTMAG2
 40
0.0
  9
$LOFTPARAM
 70
     7
  9
$LOFTNORMALS
280
     1
  9
$LATITUDE
 40
37.795
  9
$LONGITUDE
 40
-122.394
  9
$NORTHDIRECTION
 40
0.0
  9
$TIMEZONE
 70
 -8000
  9
$LIGHTGLYPHDISPLAY
280
     1
  9
$TILEMODELIGHTSYNCH
280
     1
  9
$CMATERIAL
347
6C4
  9
$SOLIDHIST
280
     0
  9
$SHOWHIST
280
     1
  9
$DWFFRAME
280
     2
  9
$DGNFRAME
280
     2
  9
$REALWORLDSCALE
290
     1
  9
$INTERFERECOLOR
 62
   256
  9
$CSHADOW
280
     0
  9
$SHADOWPLANELOCATION
 40
0.0
  0
ENDSEC
  0
SECTION
  2
CLASSES
  0
CLASS
  1
ACDBDICTIONARYWDFLT
  2
AcDbDictionaryWithDefault
  3
ObjectDBX Classes
 90
        0
 91
        4
280
     0
281
     0
  0
CLASS
  1
VISUALSTYLE
  2
AcDbVisualStyle
  3
ObjectDBX Classes
 90
     4095
 91
        4
280
     0
281
     0
  0
CLASS
  1
MATERIAL
  2
AcDbMaterial
  3
ObjectDBX Classes
 90
     1153
 91
        4
280
     0
281
     0
  0
CLASS
  1
SCALE
  2
AcDbScale
  3
ObjectDBX Classes
 90
     1153
 91
        4
280
     0
281
     0
  0
CLASS
  1
TABLESTYLE
  2
AcDbTableStyle
  3
ObjectDBX Classes
 90
     4095
 91
        4
280
     0
281
     0
  0
CLASS
  1
MLEADERSTYLE
  2
AcDbMLeaderStyle
  3
ACDB_MLEADERSTYLE_CLASS
 90
     4095
 91
        4
280
     0
281
     0
  0
CLASS
  1
SUN
  2
AcDbSun
  3
SCENEOE
 90
     1153
 91
        4
280
     0
281
     0
  0
CLASS
  1
DICTIONARYVAR
  2
AcDbDictionaryVar
  3
ObjectDBX Classes
 90
        0
 91
        4
280
     0
281
     0
  0
CLASS
  1
CELLSTYLEMAP
  2
AcDbCellStyleMap
  3
ObjectDBX Classes
 90
     1152
 91
        4
280
     0
281
     0
  0
ENDSEC
  0
SECTION
  2
TABLES
  0
TABLE
  2
VPORT
  5
689
330
0
100
AcDbSymbolTable
 70
     1
  0
VPORT
  5
6A9
330
689
100
AcDbSymbolTableRecord
100
AcDbViewportTableRecord
  2
*Active
 70
     0
 10
0.0
 20
0.0
 11
1.0
 21
1.0
 12
148.5
 22
105.0
 13
0.0
 23
0.0
 14
0.5
 24
0.5
 15
0.5
 25
0.5
 16
0.0
 26
0.0
 36
1.0
 17
0.0
 27
0.0
 37
0.0
 40
198.5717821782178
 41
1.721445221445222
 42
50.0
 43
0.0
 44
0.0
 50
0.0
 51
0.0
 71
     0
 72
   100
 73
     1
 74
     3
 75
     0
 76
     0
 77
     0
 78
     0
281
     0
 65
     1
110
0.0
120
0.0
130
0.0
111
1.0
121
0.0
131
0.0
112
0.0
122
1.0
132
0.0
 79
     0
146
0.0
 60
     3
 61
     5
292
     1
282
     1
141
0.0
142
0.0
 63
   250
361
6ED
  0
ENDTAB
  0
TABLE
  2
LTYPE
  5
686
330
0
100
AcDbSymbolTable
 70
    52
  0
LTYPE
  5
694
330
686
100
AcDbSymbolTableRecord
100
AcDbLinetypeTableRecord
  2
ByBlock
 70
     0
  3

 72
    65
 73
     0
 40
0.0
  0
LTYPE
  5
695
330
686
100
AcDbSymbolTableRecord
100
AcDbLinetypeTableRecord
  2
ByLayer
 70
     0
  3

 72
    65
 73
     0
 40
0.0
  0
LTYPE
  5
696
330
686
100
AcDbSymbolTableRecord
100
AcDbLinetypeTableRecord
  2
Continuous
 70
     0
  3
Solid line
 72
    65
 73
     0
 40
0.0
  0
LTYPE
  5
738
330
686
100
AcDbSymbolTableRecord
100
AcDbLinetypeTableRecord
  2
CUTLEFT2
 70
     0
  3
G41 reversed----/----/----/----
 72
    65
 73
     2
 40
10.16
 49
5.08
 74
     0
 49
5.08
 74
     0
  0
LTYPE
  5
739
330
686
100
AcDbSymbolTableRecord
100
AcDbLinetypeTableRecord
  2
CUTRIGHT
 70
     0
  3
G42 ----/----/-----/---
 72
    65
 73
     2
 40
10.16
 49
5.08
 74
     0
 49
5.08
 74
     0
  0
LTYPE
  5
73A
330
686
100
AcDbSymbolTableRecord
100
AcDbLinetypeTableRecord
  2
CENTERX2
 70
     0
  3
Center (2x) ________  __  ________  __  _____
 72
    65
 73
     4
 40
101.6
 49
63.5
 74
     0
 49
-12.7
 74
     0
 49
12.7
 74
     0
 49
-12.7
 74
     0
  0
LTYPE
  5
73B
330
686
100
AcDbSymbolTableRecord
100
AcDbLinetypeTableRecord
  2
CUTLEFT
 70
     0
  3
G41 ----\----\----\----
 72
    65
 73
     2
 40
10.16
 49
5.08
 74
     0
 49
5.08
 74
     0
  0
LTYPE
  5
73C
330
686
100
AcDbSymbolTableRecord
100
AcDbLinetypeTableRecord
  2
CENTER
 70
     0
  3
Center ____ _ ____ _ ____ _ ____ _ ____ _ ____
 72
    65
 73
     4
 40
50.8
 49
31.75
 74
     0
 49
-6.35
 74
     0
 49
6.35
 74
     0
 49
-6.35
 74
     0
  0
LTYPE
  5
73D
330
686
100
AcDbSymbolTableRecord
100
AcDbLinetypeTableRecord
  2
CENTER2
 70
     0
  3
Center (.5x) ___ _ ___ _ ___ _ ___ _ ___ _ ___
 72
    65
 73
     4
 40
28.575
 49
19.05
 74
     0
 49
-3.175
 74
     0
 49
3.175
 74
     0
 49
-3.175
 74
     0
  0
LTYPE
  5
73E
330
686
100
AcDbSymbolTableRecord
100
AcDbLinetypeTableRecord
  2
BORDER2
 70
     0
  3
Border (.5x) __.__.__.__.__.__.__.__.__.__.__.
 72
    65
 73
     6
 40
22.225
 49
6.35
 74
     0
 49
-3.175
 74
     0
 49
6.35
 74
     0
 49
-3.175
 74
     0
 49
0.0
 74
     0
 49
-3.175
 74
     0
  0
LTYPE
  5
73F
330
686
100
AcDbSymbolTableRecord
100
AcDbLinetypeTableRecord
  2
BORDERX2
 70
     0
  3
Border (2x) ____  ____  .  ____  ____  .  ___
 72
    65
 73
     6
 40
88.89999999999999
 49
25.4
 74
     0
 49
-12.7
 74
     0
 49
25.4
 74
     0
 49
-12.7
 74
     0
 49
0.0
 74
     0
 49
-12.7
 74
     0
  0
LTYPE
  5
740
330
686
100
AcDbSymbolTableRecord
100
AcDbLinetypeTableRecord
  2
BATTING
 70
     0
  3
Batting SSSSSSSSSSSSSSSSSSSSSSSSSSSSSSSSSSSSSSSSSSSSSSS
 72
    65
 73
     4
 40
10.16254
 49
0.00254
 74
     0
 49
-2.54
 74
     0
 49
-5.08
 74
     0
 49
-2.54
 74
     0
  0
LTYPE
  5
741
330
686
100
AcDbSymbolTableRecord
100
AcDbLinetypeTableRecord
  2
BORDER
 70
     0
  3
Border __ __ . __ __ . __ __ . __ __ . __ __ .
 72
    65
 73
     6
 40
44.45
 49
12.7
 74
     0
 49
-6.35
 74
     0
 49
12.7
 74
     0
 49
-6.35
 74
     0
 49
0.0
 74
     0
 49
-6.35
 74
     0
  0
LTYPE
  5
742
330
686
100
AcDbSymbolTableRecord
100
AcDbLinetypeTableRecord
  2
ACAD_ISO14W100
 70
     0
  3
ISO dash triple-dot __ . . . __ . . . __ . . . _
 72
    65
 73
     8
 40
24.0
 49
12.0
 74
     0
 49
-3.0
 74
     0
 49
0.0
 74
     0
 49
-3.0
 74
     0
 49
0.0
 74
     0
 49
-3.0
 74
     0
 49
0.0
 74
     0
 49
-3.0
 74
     0
  0
LTYPE
  5
743
330
686
100
AcDbSymbolTableRecord
100
AcDbLinetypeTableRecord
  2
ACAD_ISO15W100
 70
     0
  3
ISO double-dash triple-dot __ __ . . . __ __ . .
 72
    65
 73
    10
 40
39.0
 49
12.0
 74
     0
 49
-3.0
 74
     0
 49
12.0
 74
     0
 49
-3.0
 74
     0
 49
0.0
 74
     0
 49
-3.0
 74
     0
 49
0.0
 74
     0
 49
-3.0
 74
     0
 49
0.0
 74
     0
 49
-3.0
 74
     0
  0
LTYPE
  5
744
330
686
100
AcDbSymbolTableRecord
100
AcDbLinetypeTableRecord
  2
ACAD_ISO12W100
 70
     0
  3
ISO dash double-dot __ . . __ . . __ . . __ . . 
 72
    65
 73
     6
 40
21.0
 49
12.0
 74
     0
 49
-3.0
 74
     0
 49
0.0
 74
     0
 49
-3.0
 74
     0
 49
0.0
 74
     0
 49
-3.0
 74
     0
  0
LTYPE
  5
745
330
686
100
AcDbSymbolTableRecord
100
AcDbLinetypeTableRecord
  2
ACAD_ISO13W100
 70
     0
  3
ISO double-dash double-dot __ __ . . __ __ . . _
 72
    65
 73
     8
 40
36.0
 49
12.0
 74
     0
 49
-3.0
 74
     0
 49
12.0
 74
     0
 49
-3.0
 74
     0
 49
0.0
 74
     0
 49
-3.0
 74
     0
 49
0.0
 74
     0
 49
-3.0
 74
     0
  0
LTYPE
  5
746
330
686
100
AcDbSymbolTableRecord
100
AcDbLinetypeTableRecord
  2
ACAD_ISO10W100
 70
     0
  3
ISO dash dot __ . __ . __ . __ . __ . __ . __ . 
 72
    65
 73
     4
 40
18.0
 49
12.0
 74
     0
 49
-3.0
 74
     0
 49
0.0
 74
     0
 49
-3.0
 74
     0
  0
LTYPE
  5
747
330
686
100
AcDbSymbolTableRecord
100
AcDbLinetypeTableRecord
  2
ACAD_ISO11W100
 70
     0
  3
ISO double-dash dot __ __ . __ __ . __ __ . __ _
 72
    65
 73
     6
 40
33.0
 49
12.0
 74
     0
 49
-3.0
 74
     0
 49
12.0
 74
     0
 49
-3.0
 74
     0
 49
0.0
 74
     0
 49
-3.0
 74
     0
  0
LTYPE
  5
748
330
686
100
AcDbSymbolTableRecord
100
AcDbLinetypeTableRecord
  2
DRAINAGE2
 70
     0
  3
Drainage reversed----<----<----<----
 72
    65
 73
     2
 40
10.16
 49
5.08
 74
     0
 49
5.08
 74
     0
  0
LTYPE
  5
749
330
686
100
AcDbSymbolTableRecord
100
AcDbLinetypeTableRecord
  2
FENCELINE1
 70
     0
  3
Fenceline circle ----0-----0----0-----0----0-----0--
 72
    65
 73
     4
 40
36.83
 49
6.35
 74
     0
 49
-2.54
 74
     0
 49
-2.54
 74
     0
 49
25.4
 74
     0
  0
LTYPE
  5
74A
330
686
100
AcDbSymbolTableRecord
100
AcDbLinetypeTableRecord
  2
DOTX2
 70
     0
  3
Dot (2x) .  .  .  .  .  .  .  .  .  .  .  .  .  .
 72
    65
 73
     2
 40
12.7
 49
0.0
 74
     0
 49
-12.7
 74
     0
  0
LTYPE
  5
74B
330
686
100
AcDbSymbolTableRecord
100
AcDbLinetypeTableRecord
  2
DRAINAGE
 70
     0
  3
Drainage ---->---->---->----
 72
    65
 73
     2
 40
10.16
 49
5.08
 74
     0
 49
5.08
 74
     0
  0
LTYPE
  5
74C
330
686
100
AcDbSymbolTableRecord
100
AcDbLinetypeTableRecord
  2
DOT
 70
     0
  3
Dot . . . . . . . . . . . . . . . . . . . . . . . .
 72
    65
 73
     2
 40
6.35
 49
0.0
 74
     0
 49
-6.35
 74
     0
  0
LTYPE
  5
74D
330
686
100
AcDbSymbolTableRecord
100
AcDbLinetypeTableRecord
  2
DOT2
 70
     0
  3
Dot (.5x) ........................................
 72
    65
 73
     2
 40
3.175
 49
0.0
 74
     0
 49
-3.175
 74
     0
  0
LTYPE
  5
74E
330
686
100
AcDbSymbolTableRecord
100
AcDbLinetypeTableRecord
  2
DIVIDE2
 70
     0
  3
Divide (.5x) __..__..__..__..__..__..__..__.._
 72
    65
 73
     6
 40
15.875
 49
6.35
 74
     0
 49
-3.175
 74
     0
 49
0.0
 74
     0
 49
-3.175
 74
     0
 49
0.0
 74
     0
 49
-3.175
 74
     0
  0
LTYPE
  5
74F
330
686
100
AcDbSymbolTableRecord
100
AcDbLinetypeTableRecord
  2
DIVIDEX2
 70
     0
  3
Divide (2x) ________  .  .  ________  .  .  _
 72
    65
 73
     6
 40
63.5
 49
25.4
 74
     0
 49
-12.7
 74
     0
 49
0.0
 74
     0
 49
-12.7
 74
     0
 49
0.0
 74
     0
 49
-12.7
 74
     0
  0
LTYPE
  5
750
330
686
100
AcDbSymbolTableRecord
100
AcDbLinetypeTableRecord
  2
DASHEDX2
 70
     0
  3
Dashed (2x) ____  ____  ____  ____  ____  ___
 72
    65
 73
     2
 40
38.09999999999999
 49
25.4
 74
     0
 49
-12.7
 74
     0
  0
LTYPE
  5
751
330
686
100
AcDbSymbolTableRecord
100
AcDbLinetypeTableRecord
  2
DIVIDE
 70
     0
  3
Divide ____ . . ____ . . ____ . . ____ . . ____
 72
    65
 73
     6
 40
31.75
 49
12.7
 74
     0
 49
-6.35
 74
     0
 49
0.0
 74
     0
 49
-6.35
 74
     0
 49
0.0
 74
     0
 49
-6.35
 74
     0
  0
LTYPE
  5
752
330
686
100
AcDbSymbolTableRecord
100
AcDbLinetypeTableRecord
  2
DASHED
 70
     0
  3
Dashed __ __ __ __ __ __ __ __ __ __ __ __ __ _
 72
    65
 73
     2
 40
19.05
 49
12.7
 74
     0
 49
-6.35
 74
     0
  0
LTYPE
  5
753
330
686
100
AcDbSymbolTableRecord
100
AcDbLinetypeTableRecord
  2
DASHED2
 70
     0
  3
Dashed (.5x) _ _ _ _ _ _ _ _ _ _ _ _ _ _ _ _ _ 
 72
    65
 73
     2
 40
9.524999999999999
 49
6.35
 74
     0
 49
-3.175
 74
     0
  0
LTYPE
  5
754
330
686
100
AcDbSymbolTableRecord
100
AcDbLinetypeTableRecord
  2
DASHDOT2
 70
     0
  3
Dash dot (.5x) _._._._._._._._._._._._._._._.
 72
    65
 73
     4
 40
12.7
 49
6.35
 74
     0
 49
-3.175
 74
     0
 49
0.0
 74
     0
 49
-3.175
 74
     0
  0
LTYPE
  5
755
330
686
100
AcDbSymbolTableRecord
100
AcDbLinetypeTableRecord
  2
DASHDOTX2
 70
     0
  3
Dash dot (2x) ____  .  ____  .  ____  .  ___
 72
    65
 73
     4
 40
50.8
 49
25.4
 74
     0
 49
-12.7
 74
     0
 49
0.0
 74
     0
 49
-12.7
 74
     0
  0
LTYPE
  5
756
330
686
100
AcDbSymbolTableRecord
100
AcDbLinetypeTableRecord
  2
CUTRIGHT2
 70
     0
  3
G42 reversed----\----\----\----
 72
    65
 73
     2
 40
10.16
 49
5.08
 74
     0
 49
5.08
 74
     0
  0
LTYPE
  5
757
330
686
100
AcDbSymbolTableRecord
100
AcDbLinetypeTableRecord
  2
DASHDOT
 70
     0
  3
Dash dot __ . __ . __ . __ . __ . __ . __ . __
 72
    65
 73
     4
 40
25.4
 49
12.7
 74
     0
 49
-6.35
 74
     0
 49
0.0
 74
     0
 49
-6.35
 74
     0
  0
LTYPE
  5
758
330
686
100
AcDbSymbolTableRecord
100
AcDbLinetypeTableRecord
  2
ZIGZAG
 70
     0
  3
Zig zag /\/\/\/\/\/\/\/\/\/\/\/\/\/\/\/\/\/\/\/\/\/\/\/
 72
    65
 73
     4
 40
20.32254
 49
0.00254
 74
     0
 49
-5.08
 74
     0
 49
-10.16
 74
     0
 49
-5.08
 74
     0
  0
LTYPE
  5
759
330
686
100
AcDbSymbolTableRecord
100
AcDbLinetypeTableRecord
  2
PHANTOMX2
 70
     0
  3
Phantom (2x) ____________    ____    ____   _
 72
    65
 73
     6
 40
127.0
 49
63.5
 74
     0
 49
-12.7
 74
     0
 49
12.7
 74
     0
 49
-12.7
 74
     0
 49
12.7
 74
     0
 49
-12.7
 74
     0
  0
LTYPE
  5
75A
330
686
100
AcDbSymbolTableRecord
100
AcDbLinetypeTableRecord
  2
TRACKS
 70
     0
  3
Tracks -|-|-|-|-|-|-|-|-|-|-|-|-|-|-|-|-|-|-|-|-|-|-|-|-
 72
    65
 73
     2
 40
7.62
 49
3.81
 74
     0
 49
3.81
 74
     0
  0
LTYPE
  5
75B
330
686
100
AcDbSymbolTableRecord
100
AcDbLinetypeTableRecord
  2
PHANTOM
 70
     0
  3
Phantom ______  __  __  ______  __  __  ______ 
 72
    65
 73
     6
 40
63.50000000000001
 49
31.75
 74
     0
 49
-6.35
 74
     0
 49
6.35
 74
     0
 49
-6.35
 74
     0
 49
6.35
 74
     0
 49
-6.35
 74
     0
  0
LTYPE
  5
75C
330
686
100
AcDbSymbolTableRecord
100
AcDbLinetypeTableRecord
  2
PHANTOM2
 70
     0
  3
Phantom (.5x) ___ _ _ ___ _ _ ___ _ _ ___ _ _
 72
    65
 73
     6
 40
31.75
 49
15.875
 74
     0
 49
-3.175
 74
     0
 49
3.175
 74
     0
 49
-3.175
 74
     0
 49
3.175
 74
     0
 49
-3.175
 74
     0
  0
LTYPE
  5
75D
330
686
100
AcDbSymbolTableRecord
100
AcDbLinetypeTableRecord
  2
HIDDENX2
 70
     0
  3
Hidden (2x) ____ ____ ____ ____ ____ ____ ____ 
 72
    65
 73
     2
 40
19.05
 49
12.7
 74
     0
 49
-6.35
 74
     0
  0
LTYPE
  5
75E
330
686
100
AcDbSymbolTableRecord
100
AcDbLinetypeTableRecord
  2
HOT_WATER_SUPPLY
 70
     0
  3
Hot water supply ---- HW ---- HW ---- HW ----
 72
    65
 73
     3
 40
22.86
 49
12.7
 74
     0
 49
-5.08
 74
     0
 49
-5.08
 74
     0
  0
LTYPE
  5
75F
330
686
100
AcDbSymbolTableRecord
100
AcDbLinetypeTableRecord
  2
HIDDEN
 70
     0
  3
Hidden __ __ __ __ __ __ __ __ __ __ __ __ __ __
 72
    65
 73
     2
 40
9.524999999999999
 49
6.35
 74
     0
 49
-3.175
 74
     0
  0
LTYPE
  5
760
330
686
100
AcDbSymbolTableRecord
100
AcDbLinetypeTableRecord
  2
HIDDEN2
 70
     0
  3
Hidden (.5x) _ _ _ _ _ _ _ _ _ _ _ _ _ _ _ _ _ 
 72
    65
 73
     2
 40
4.762499999999999
 49
3.175
 74
     0
 49
-1.5875
 74
     0
  0
LTYPE
  5
761
330
686
100
AcDbSymbolTableRecord
100
AcDbLinetypeTableRecord
  2
FENCELINE2
 70
     0
  3
Fenceline square ----[]-----[]----[]-----[]----[]---
 72
    65
 73
     4
 40
36.83
 49
6.35
 74
     0
 49
-2.54
 74
     0
 49
-2.54
 74
     0
 49
25.4
 74
     0
  0
LTYPE
  5
762
330
686
100
AcDbSymbolTableRecord
100
AcDbLinetypeTableRecord
  2
GAS_LINE
 70
     0
  3
Gas line ----GAS----GAS----GAS----GAS----GAS----GAS--
 72
    65
 73
     3
 40
24.13
 49
12.7
 74
     0
 49
-5.08
 74
     0
 49
-6.35
 74
     0
  0
LTYPE
  5
763
330
686
100
AcDbSymbolTableRecord
100
AcDbLinetypeTableRecord
  2
ACAD_ISO08W100
 70
     0
  3
ISO long-dash short-dash ____ __ ____ __ ____ _
 72
    65
 73
     4
 40
36.0
 49
24.0
 74
     0
 49
-3.0
 74
     0
 49
6.0
 74
     0
 49
-3.0
 74
     0
  0
LTYPE
  5
764
330
686
100
AcDbSymbolTableRecord
100
AcDbLinetypeTableRecord
  2
ACAD_ISO09W100
 70
     0
  3
ISO long-dash double-short-dash ____ __ __ ____
 72
    65
 73
     6
 40
45.0
 49
24.0
 74
     0
 49
-3.0
 74
     0
 49
6.0
 74
     0
 49
-3.0
 74
     0
 49
6.0
 74
     0
 49
-3.0
 74
     0
  0
LTYPE
  5
765
330
686
100
AcDbSymbolTableRecord
100
AcDbLinetypeTableRecord
  2
ACAD_ISO06W100
 70
     0
  3
ISO long-dash triple-dot ____ ... ____ ... ____
 72
    65
 73
     8
 40
36.0
 49
24.0
 74
     0
 49
-3.0
 74
     0
 49
0.0
 74
     0
 49
-3.0
 74
     0
 49
0.0
 74
     0
 49
-3.0
 74
     0
 49
0.0
 74
     0
 49
-3.0
 74
     0
  0
LTYPE
  5
766
330
686
100
AcDbSymbolTableRecord
100
AcDbLinetypeTableRecord
  2
ACAD_ISO07W100
 70
     0
  3
ISO dot . . . . . . . . . . . . . . . . . . . . 
 72
    65
 73
     2
 40
3.0
 49
0.0
 74
     0
 49
-3.0
 74
     0
  0
LTYPE
  5
767
330
686
100
AcDbSymbolTableRecord
100
AcDbLinetypeTableRecord
  2
ACAD_ISO04W100
 70
     0
  3
ISO long-dash dot ____ . ____ . ____ . ____ . _
 72
    65
 73
     4
 40
30.0
 49
24.0
 74
     0
 49
-3.0
 74
     0
 49
0.0
 74
     0
 49
-3.0
 74
     0
  0
LTYPE
  5
768
330
686
100
AcDbSymbolTableRecord
100
AcDbLinetypeTableRecord
  2
ACAD_ISO05W100
 70
     0
  3
ISO long-dash double-dot ____ .. ____ .. ____ . 
 72
    65
 73
     6
 40
33.0
 49
24.0
 74
     0
 49
-3.0
 74
     0
 49
0.0
 74
     0
 49
-3.0
 74
     0
 49
0.0
 74
     0
 49
-3.0
 74
     0
  0
LTYPE
  5
769
330
686
100
AcDbSymbolTableRecord
100
AcDbLinetypeTableRecord
  2
ACAD_ISO02W100
 70
     0
  3
ISO dash __ __ __ __ __ __ __ __ __ __ __ __ __
 72
    65
 73
     2
 40
15.0
 49
12.0
 74
     0
 49
-3.0
 74
     0
  0
LTYPE
  5
76A
330
686
100
AcDbSymbolTableRecord
100
AcDbLinetypeTableRecord
  2
ACAD_ISO03W100
 70
     0
  3
ISO dash space __    __    __    __    __    __
 72
    65
 73
     2
 40
30.0
 49
12.0
 74
     0
 49
-18.0
 74
     0
  0
ENDTAB
  0
TABLE
  2
LAYER
  5
683
330
0
100
AcDbSymbolTable
 70
    10
  0
LAYER
  5
691
330
683
100
AcDbSymbolTableRecord
100
AcDbLayerTableRecord
  2
0
 70
     0
 62
   178
420
        0
  6
Continuous
370
    25
390
690
347
6C6
348
0
  0
LAYER
  5
76B
330
683
100
AcDbSymbolTableRecord
100
AcDbLayerTableRecord
  2
Meta
 70
     4
 62
   253
420
 10526884
  6
Continuous
370
    50
390
690
347
6C6
348
0
  0
LAYER
  5
76C
330
683
100
AcDbSymbolTableRecord
100
AcDbLayerTableRecord
  2
Measurements
 70
     0
 62
     5
420
      255
  6
Continuous
370
    18
390
690
347
6C6
348
0
  0
LAYER
  5
76D
330
683
100
AcDbSymbolTableRecord
100
AcDbLayerTableRecord
  2
Screw
 70
     4
 62
     7
420
 16777215
  6
Continuous
370
    -3
390
690
347
6C6
348
0
  0
LAYER
  5
76E
330
683
100
AcDbSymbolTableRecord
100
AcDbLayerTableRecord
  2
Hatch
 70
     0
 62
   253
420
 10526884
  6
Continuous
370
    18
390
690
347
6C6
348
0
  0
LAYER
  5
76F
330
683
100
AcDbSymbolTableRecord
100
AcDbLayerTableRecord
  2
Defpoints
 70
     1
 62
     7
420
 16777215
  6
Continuous
290
     0
370
    -3
390
690
347
6C6
348
0
  0
LAYER
  5
770
330
683
100
AcDbSymbolTableRecord
100
AcDbLayerTableRecord
  2
Centers
 70
     0
 62
     1
420
 16711680
  6
CENTER2
370
    13
390
690
347
6C6
348
0
  0
LAYER
  5
771
330
683
100
AcDbSymbolTableRecord
100
AcDbLayerTableRecord
  2
Comments
 70
     0
 62
   178
420
        0
  6
Continuous
370
    25
390
690
347
6C6
348
0
  0
LAYER
  5
772
330
683
100
AcDbSymbolTableRecord
100
AcDbLayerTableRecord
  2
Folding Lines
 70
     0
 62
   253
420
 10526884
  6
PHANTOM2
370
    13
390
690
347
6C6
348
0
  0
LAYER
  5
773
330
683
100
AcDbSymbolTableRecord
100
AcDbLayerTableRecord
  2
Helpers
 70
     1
 62
   216
420
  8388736
  6
ACAD_ISO07W100
370
    25
390
690
347
6C6
348
0
  0
ENDTAB
  0
TABLE
  2
STYLE
  5
684
330
0
100
AcDbSymbolTable
 70
    10
  0
STYLE
  5
692
330
684
100
AcDbSymbolTableRecord
100
AcDbTextStyleTableRecord
  2
Standard
 70
     0
 40
0.0
 41
1.0
 50
0.0
 71
     0
 42
2.5
  3
txt
  4

  0
STYLE
  5
736
330
684
100
AcDbSymbolTableRecord
100
AcDbTextStyleTableRecord
  2
QCADDimTextStyle
 70
     0
 40
0.0
 41
1.0
 50
0.0
 71
     0
 42
2.5
  3
txt
  4

  0
STYLE
  5
77A
330
684
100
AcDbSymbolTableRecord
100
AcDbTextStyleTableRecord
  2
textstyle0
 70
     0
 40
0.0
 41
1.0
 50
0.0
 71
     0
 42
2.5
  3

  4

1001
ACAD
1000
Arial
1071
 16777216
  0
STYLE
  5
77B
330
684
100
AcDbSymbolTableRecord
100
AcDbTextStyleTableRecord
  2
textstyle1
 70
     0
 40
0.0
 41
1.0
 50
0.0
 71
     0
 42
2.5
  3

  4

1001
ACAD
1000
Arial
1071
 16777216
  0
STYLE
  5
77C
330
684
100
AcDbSymbolTableRecord
100
AcDbTextStyleTableRecord
  2
textstyle2
 70
     0
 40
0.0
 41
1.0
 50
0.0
 71
     0
 42
2.5
  3

  4

1001
ACAD
1000
Arial
1071
 16777216
  0
STYLE
  5
77D
330
684
100
AcDbSymbolTableRecord
100
AcDbTextStyleTableRecord
  2
textstyle3
 70
     0
 40
0.0
 41
1.0
 50
0.0
 71
     0
 42
2.5
  3

  4

1001
ACAD
1000
Arial
1071
 16777216
  0
STYLE
  5
77E
330
684
100
AcDbSymbolTableRecord
100
AcDbTextStyleTableRecord
  2
textstyle4
 70
     0
 40
0.0
 41
1.0
 50
0.0
 71
     0
 42
2.5
  3

  4

1001
ACAD
1000
Arial
1071
 16777216
  0
STYLE
  5
77F
330
684
100
AcDbSymbolTableRecord
100
AcDbTextStyleTableRecord
  2
textstyle5
 70
     0
 40
0.0
 41
1.0
 50
0.0
 71
     0
 42
2.5
  3

  4

1001
ACAD
1000
Arial
1071
 16777216
  0
STYLE
  5
780
330
684
100
AcDbSymbolTableRecord
100
AcDbTextStyleTableRecord
  2
textstyle6
 70
     0
 40
0.0
 41
1.0
 50
0.0
 71
     0
 42
2.5
  3

  4

1001
ACAD
1000
Arial
1071
 16777216
  0
STYLE
  5
781
330
684
100
AcDbSymbolTableRecord
100
AcDbTextStyleTableRecord
  2
textstyle7
 70
     0
 40
0.0
 41
1.0
 50
0.0
 71
     0
 42
2.5
  3

  4

1001
ACAD
1000
Arial
1071
 16777216
  0
ENDTAB
  0
TABLE
  2
VIEW
  5
687
330
0
100
AcDbSymbolTable
 70
     0
  0
ENDTAB
  0
TABLE
  2
UCS
  5
688
330
0
100
AcDbSymbolTable
 70
     0
  0
ENDTAB
  0
TABLE
  2
APPID
  5
68A
330
0
100
AcDbSymbolTable
 70
     2
  0
APPID
  5
693
330
68A
100
AcDbSymbolTableRecord
100
AcDbRegAppTableRecord
  2
ACAD
 70
     0
  0
APPID
  5
6EE
330
68A
100
AcDbSymbolTableRecord
100
AcDbRegAppTableRecord
  2
QCAD
 70
     0
  0
ENDTAB
  0
TABLE
  2
DIMSTYLE
  5
68B
330
0
100
AcDbSymbolTable
 70
     2
100
AcDbDimStyleTable
  0
DIMSTYLE
105
6A7
330
68B
100
AcDbSymbolTableRecord
100
AcDbDimStyleTableRecord
  2
Standard
 70
     0
178
     0
340
692
  0
DIMSTYLE
105
737
102
{ACAD_REACTORS
330
EA
330
ED
330
16F
330
170
330
172
330
173
330
174
330
175
330
176
330
177
330
178
330
179
330
589
330
67F
330
680
102
}
330
68B
100
AcDbSymbolTableRecord
100
AcDbDimStyleTableRecord
  2
QCADDimStyle
 70
     0
 41
2.5
 42
0.625
 44
1.25
 73
     0
 77
     1
140
2.5
147
0.625
178
     0
340
736
  0
ENDTAB
  0
TABLE
  2
BLOCK_RECORD
  5
682
330
0
100
AcDbSymbolTable
 70
     2
  0
BLOCK_RECORD
  5
69F
330
682
100
AcDbSymbolTableRecord
100
AcDbBlockTableRecord
  2
*Model_Space
340
6A2
 70
     0
280
     1
281
     0
  0
BLOCK_RECORD
  5
774
330
682
100
AcDbSymbolTableRecord
100
AcDbBlockTableRecord
  2
*Paper_Space
340
775
 70
     0
280
     1
281
     0
  0
BLOCK_RECORD
  5
69B
330
682
100
AcDbSymbolTableRecord
100
AcDbBlockTableRecord
  2
*Paper_Space1
340
69E
 70
     0
280
     1
281
     0
  0
ENDTAB
  0
ENDSEC
  0
SECTION
  2
BLOCKS
  0
BLOCK
  5
6A0
330
69F
100
AcDbEntity
  8
0
100
AcDbBlockBegin
  2
*Model_Space
 70
     0
 10
0.0
 20
0.0
 30
0.0
  3
*Model_Space
  1
*Model_Space
  0
ENDBLK
  5
6A1
330
69F
100
AcDbEntity
  8
0
100
AcDbBlockEnd
  0
BLOCK
  5
776
330
774
100
AcDbEntity
 67
     1
  8
0
100
AcDbBlockBegin
  2
*Paper_Space
 70
     0
 10
0.0
 20
0.0
 30
0.0
  3
*Paper_Space
  1
*Paper_Space
  0
ENDBLK
  5
777
330
774
100
AcDbEntity
 67
     1
  8
0
100
AcDbBlockEnd
  0
BLOCK
  5
69C
330
69B
100
AcDbEntity
  8
0
100
AcDbBlockBegin
  2
*Paper_Space1
 70
     0
 10
0.0
 20
0.0
 30
0.0
  3
*Paper_Space1
  1
*Paper_Space1
  0
ENDBLK
  5
69D
330
69B
100
AcDbEntity
  8
0
100
AcDbBlockEnd
  0
ENDSEC
  0
SECTION
  2
ENTITIES
  0
LINE
  5
76
330
69F
100
AcDbEntity
  8
0
100
AcDbLine
 10
190.1811842790361
 20
136.7113834332417
 30
0.0
 11
207.5021791063025
 21
126.7111024070873
 31
0.0
  0
ELLIPSE
  5
77
330
69F
100
AcDbEntity
  8
Screw
100
AcDbEllipse
 10
256.7543501368066
 20
70.75290351912584
 30
0.0
 11
2.458451106130706
 21
0.03833694386279458
 31
0.0
210
0.0
220
0.0
230
1.0
 40
0.7500000000000002
 41
2.284520705739657
 42
5.426113359329387
  0
LINE
  5
78
330
69F
100
AcDbEntity
  8
0
100
AcDbLine
 10
133.0
 20
170.0
 30
0.0
 11
110.0
 21
170.0
 31
0.0
  0
ELLIPSE
  5
79
330
69F
100
AcDbEntity
  8
Screw
100
AcDbEllipse
 10
256.7543501368066
 20
70.75290351912584
 30
0.0
 11
2.458451106130706
 21
0.03833694386279458
 31
0.0
210
0.0
220
0.0
230
1.0
 40
0.7500000000000002
 41
5.426113359329387
 42
8.567706012919244
  0
LINE
  5
7A
330
69F
100
AcDbEntity
  8
0
100
AcDbLine
 10
207.5021791063025
 20
126.7111024070873
 30
0.0
 11
215.2966267785723
 21
131.2112288688568
 31
0.0
  0
ELLIPSE
  5
7B
330
69F
100
AcDbEntity
  8
Screw
100
AcDbEllipse
 10
256.7599321396584
 20
70.39494381491612
 30
0.0
 11
2.999635309971367
 21
0.0467761389276598
 31
0.0
210
0.0
220
0.0
230
1.0
 40
0.7500000000000001
 41
2.28452070573966
 42
3.141630808534759
  0
LINE
  5
7C
330
69F
100
AcDbEntity
  8
0
100
AcDbLine
 10
110.0
 20
170.0
 30
0.0
 11
110.0
 21
182.0
 31
0.0
  0
ELLIPSE
  5
7D
330
69F
100
AcDbEntity
  8
Screw
100
AcDbEllipse
 10
256.7599321396584
 20
70.39494381491612
 30
0.0
 11
2.999635309971367
 21
0.0467761389276598
 31
0.0
210
0.0
220
0.0
230
1.0
 40
0.7500000000000001
 41
3.141630808534759
 42
5.426113359329465
  0
LINE
  5
7E
330
69F
100
AcDbEntity
  8
0
100
AcDbLine
 10
215.2966267785723
 20
131.2112288688568
 30
0.0
 11
249.9386164331049
 21
111.2106668165481
 31
0.0
  0
ELLIPSE
  5
7F
330
69F
100
AcDbEntity
  8
Screw
100
AcDbEllipse
 10
256.8415866571256
 20
65.15864643278127
 30
0.0
 11
2.999635309971369
 21
0.04677613892765852
 31
0.0
210
0.0
220
0.0
230
1.0
 40
0.7500000000000001
 41
3.85531703253456
 42
5.426113359329462
  0
LINE
  5
80
330
69F
100
AcDbEntity
  8
0
100
AcDbLine
 10
110.0
 20
182.0
 30
0.0
 11
70.0
 21
182.0
 31
0.0
  0
LINE
  5
81
330
69F
100
AcDbEntity
  8
0
100
AcDbLine
 10
70.0
 20
182.0
 30
0.0
 11
70.0
 21
170.0
 31
0.0
  0
ELLIPSE
  5
82
330
69F
100
AcDbEntity
  8
Screw
100
AcDbEllipse
 10
256.8415866571256
 20
65.15864643278127
 30
0.0
 11
2.999635309971369
 21
0.04677613892765852
 31
0.0
210
0.0
220
0.0
230
1.0
 40
0.7500000000000001
 41
3.141630808534759
 42
3.85531703253456
  0
LINE
  5
83
330
69F
100
AcDbEntity
  8
0
100
AcDbLine
 10
249.9386164331049
 20
111.2106668165481
 30
0.0
 11
242.1441687608351
 21
106.7105403547787
 31
0.0
  0
ELLIPSE
  5
84
330
69F
100
AcDbEntity
  8
Screw
100
AcDbEllipse
 10
256.8471686599773
 20
64.80068672857155
 30
0.0
 11
2.999635309971369
 21
0.04677613892765852
 31
0.0
210
0.0
220
0.0
230
1.0
 40
0.7500000000000001
 41
3.85531703253456
 42
5.426113359329462
  0
LINE
  5
85
330
69F
100
AcDbEntity
  8
0
100
AcDbLine
 10
68.5
 20
170.0
 30
0.0
 11
70.0
 21
170.0
 31
0.0
  0
ELLIPSE
  5
86
330
69F
100
AcDbEntity
  8
Screw
100
AcDbEllipse
 10
256.8471686599773
 20
64.80068672857155
 30
0.0
 11
2.999635309971369
 21
0.04677613892765852
 31
0.0
210
0.0
220
0.0
230
1.0
 40
0.7500000000000001
 41
5.426113359329462
 42
6.362825739463035
  0
LINE
  5
87
330
69F
100
AcDbEntity
  8
0
100
AcDbLine
 10
243.4432433728801
 20
105.9605192778171
 30
0.0
 11
242.1441687608351
 21
106.7105403547787
 31
0.0
  0
LINE
  5
88
330
69F
100
AcDbEntity
  8
0
100
AcDbLine
 10
133.0
 20
151.0
 30
0.0
 11
133.0
 21
170.0
 31
0.0
  0
ELLIPSE
  5
89
330
69F
100
AcDbEntity
  8
Screw
100
AcDbEllipse
 10
256.8415866571256
 20
65.15864643278127
 30
0.0
 11
2.999635309971369
 21
0.04677613892765852
 31
0.0
210
0.0
220
0.0
230
1.0
 40
0.7500000000000001
 41
5.426113359329462
 42
6.283223462124553
  0
LINE
  5
8A
330
69F
100
AcDbEntity
  8
0
100
AcDbLine
 10
173.7262391931332
 20
127.2111164583951
 30
0.0
 11
190.1811842790361
 21
136.7113834332417
 31
0.0
  0
LINE
  5
8B
330
69F
100
AcDbEntity
  8
0
100
AcDbLine
 10
68.5
 20
170.0
 30
0.0
 11
68.5
 21
171.056349186104
 31
0.0
  0
ELLIPSE
  5
8C
330
69F
100
AcDbEntity
  8
Screw
100
AcDbEllipse
 10
256.9477220600791
 20
58.35245187213775
 30
0.0
 11
3.999513746628491
 21
0.06236818523687971
 31
0.0
210
0.0
220
0.0
230
1.0
 40
0.7500000000000001
 41
3.855317032534558
 42
5.426113359329437
  0
LINE
  5
8D
330
69F
100
AcDbEntity
  8
0
100
AcDbLine
 10
243.4432433728801
 20
105.9605192778171
 30
0.0
 11
244.3580943122948
 21
106.4887087139566
 31
0.0
  0
LINE
  5
8E
330
69F
100
AcDbEntity
  8
0
100
AcDbLine
 10
121.0
 20
151.0
 30
0.0
 11
133.0
 21
151.0
 31
0.0
  0
ELLIPSE
  5
8F
330
69F
100
AcDbEntity
  8
Screw
100
AcDbEllipse
 10
256.8471686599773
 20
64.80068672857155
 30
0.0
 11
3.999513746628487
 21
0.0623681852368797
 31
0.0
210
0.0
220
0.0
230
1.0
 40
0.7500000000000001
 41
2.418858181835373
 42
3.141630808534759
  0
LINE
  5
90
330
69F
100
AcDbEntity
  8
0
100
AcDbLine
 10
181.520686865403
 20
122.7109899966256
 30
0.0
 11
173.7262391931332
 21
127.211116458395
 31
0.0
  0
ELLIPSE
  5
91
330
69F
100
AcDbEntity
  8
Screw
100
AcDbEllipse
 10
256.8471686599773
 20
64.80068672857155
 30
0.0
 11
3.999513746628487
 21
0.0623681852368797
 31
0.0
210
0.0
220
0.0
230
1.0
 40
0.7500000000000001
 41
3.141630808534759
 42
5.426113359329453
  0
LINE
  5
92
330
69F
100
AcDbEntity
  8
0
100
AcDbLine
 10
61.3370490960978
 20
178.2193000900063
 30
0.0
 11
68.5
 21
171.056349186104
 31
0.0
  0
LINE
  5
93
330
69F
100
AcDbEntity
  8
0
100
AcDbLine
 10
256.7650378677401
 20
106.4887087139566
 30
0.0
 11
244.3580943122948
 21
106.4887087139566
 31
0.0
  0
LINE
  5
94
330
69F
100
AcDbEntity
  8
0
100
AcDbLine
 10
121.0
 20
114.3
 30
0.0
 11
121.0
 21
151.0
 31
0.0
  0
ELLIPSE
  5
95
330
69F
100
AcDbEntity
  8
Screw
100
AcDbEllipse
 10
256.9477220600791
 20
58.35245187213775
 30
0.0
 11
3.999513746628491
 21
0.06236818523687971
 31
0.0
210
0.0
220
0.0
230
1.0
 40
0.7500000000000001
 41
3.141630808534769
 42
3.855317032534558
  0
LINE
  5
96
330
69F
100
AcDbEntity
  8
0
100
AcDbLine
 10
149.7366613573693
 20
104.3604743136324
 30
0.0
 11
181.520686865403
 21
122.7109899966256
 31
0.0
  0
ELLIPSE
  5
97
330
69F
100
AcDbEntity
  8
Screw
100
AcDbEllipse
 10
256.9503003523894
 20
58.18711251684458
 30
0.0
 11
4.249483355792758
 21
0.06626619681418454
 31
0.0
210
0.0
220
0.0
230
1.0
 40
0.7500000000000001
 41
3.85531703253456
 42
5.426113359329451
  0
ARC
  5
98
330
69F
100
AcDbEntity
  8
0
100
AcDbCircle
 10
53.55887450304573
 20
170.4411254969543
 30
0.0
 40
11.0
100
AcDbArc
 50
45.0
 51
225.0
  0
ELLIPSE
  5
99
330
69F
100
AcDbEntity
  8
Screw
100
AcDbEllipse
 10
256.9503003523894
 20
58.18711251684458
 30
0.0
 11
4.249483355792758
 21
0.06626619681418454
 31
0.0
210
0.0
220
0.0
230
1.0
 40
0.7500000000000001
 41
5.426113359329451
 42
6.627886653638294
  0
ELLIPSE
  5
9A
330
69F
100
AcDbEntity
  8
0
100
AcDbEllipse
 10
256.7650378677401
 20
98.71031553385525
 30
0.0
 11
13.47257218918283
 21
0.0
 31
0.0
210
0.0
220
0.0
230
1.0
 40
0.577350269189626
 41
4.71238898038469
 42
7.853981633974483
  0
LINE
  5
9B
330
69F
100
AcDbEntity
  8
0
100
AcDbLine
 10
109.7
 20
103.0
 30
0.0
 11
121.0
 21
114.3
 31
0.0
  0
ELLIPSE
  5
9C
330
69F
100
AcDbEntity
  8
Screw
100
AcDbEllipse
 10
256.9477220600791
 20
58.35245187213775
 30
0.0
 11
3.999513746628491
 21
0.06236818523687971
 31
0.0
210
0.0
220
0.0
230
1.0
 40
0.7500000000000001
 41
5.426113359329437
 42
6.283185355846572
  0
LINE
  5
9D
330
69F
100
AcDbEntity
  8
0
100
AcDbLine
 10
149.7366613573693
 20
93.06015675407804
 30
0.0
 11
149.7366613573693
 21
104.3604743136324
 31
0.0
  0
ELLIPSE
  5
9E
330
69F
100
AcDbEntity
  8
Screw
100
AcDbEllipse
 10
256.9477220600791
 20
58.35245187213775
 30
0.0
 11
3.999513746628491
 21
0.06236818523687971
 31
0.0
210
0.0
220
0.0
230
1.0
 40
0.7500000000000001
 41
0.0000000486669859
 42
0.0000381549449763
  0
LINE
  5
9F
330
69F
100
AcDbEntity
  8
0
100
AcDbLine
 10
45.7806999099937
 20
162.6629509039022
 30
0.0
 11
52.5
 21
156.0
 31
0.0
  0
LINE
  5
A0
330
69F
100
AcDbEntity
  8
0
100
AcDbLine
 10
256.7650378677401
 20
90.93192235375383
 30
0.0
 11
245.1753428556067
 21
90.96009773858563
 31
0.0
  0
ELLIPSE
  5
A1
330
69F
100
AcDbEntity
  8
Screw
100
AcDbEllipse
 10
256.9740206416441
 20
56.66599044814735
 30
0.0
 11
6.499209838271296
 21
0.1013483010099295
 31
0.0
210
0.0
220
0.0
230
1.0
 40
0.75
 41
3.978706819747229
 42
5.42611335932946
  0
LINE
  5
A2
330
69F
100
AcDbEntity
  8
0
100
AcDbLine
 10
73.0
 20
103.0
 30
0.0
 11
109.7
 21
103.0
 31
0.0
  0
ELLIPSE
  5
A3
330
69F
100
AcDbEntity
  8
Screw
100
AcDbEllipse
 10
256.9503003523894
 20
58.18711251684458
 30
0.0
 11
6.499209838271296
 21
0.1013483010099295
 31
0.0
210
0.0
220
0.0
230
1.0
 40
0.75
 41
2.284520705739663
 42
3.141630808534759
  0
LINE
  5
A4
330
69F
100
AcDbEntity
  8
0
100
AcDbLine
 10
181.520686865403
 20
74.70964107108486
 30
0.0
 11
149.7366613573693
 21
93.06015675407804
 31
0.0
  0
ELLIPSE
  5
A5
330
69F
100
AcDbEntity
  8
Screw
100
AcDbEllipse
 10
256.9503003523894
 20
58.18711251684458
 30
0.0
 11
6.499209838271296
 21
0.1013483010099295
 31
0.0
210
0.0
220
0.0
230
1.0
 40
0.75
 41
3.141630808534759
 42
5.42611335932946
  0
LINE
  5
A6
330
69F
100
AcDbEntity
  8
0
100
AcDbLine
 10
52.5
 20
156.0
 30
0.0
 11
54.0
 21
156.0
 31
0.0
  0
LINE
  5
A7
330
69F
100
AcDbEntity
  8
0
100
AcDbLine
 10
245.1753428556067
 20
90.96009773858563
 30
0.0
 11
243.8762682435617
 21
91.7101188155472
 31
0.0
  0
ELLIPSE
  5
A8
330
69F
100
AcDbEntity
  8
Screw
100
AcDbEllipse
 10
256.9740206416441
 20
56.66599044814735
 30
0.0
 11
6.499209838271296
 21
0.1013483010099295
 31
0.0
210
0.0
220
0.0
230
1.0
 40
0.75
 41
3.141630808534759
 42
3.731927245321878
  0
LINE
  5
A9
330
69F
100
AcDbEntity
  8
0
100
AcDbLine
 10
73.0
 20
91.0
 30
0.0
 11
73.0
 21
103.0
 31
0.0
  0
LINE
  5
AA
330
69F
100
AcDbEntity
  8
Screw
100
AcDbLine
 10
251.6170837739221
 20
53.86850955827778
 30
0.0
 11
251.6098645554533
 21
54.33145975309868
 31
0.0
  0
LINE
  5
AB
330
69F
100
AcDbEntity
  8
0
100
AcDbLine
 10
173.7262391931332
 20
70.20951460931542
 30
0.0
 11
181.520686865403
 21
74.70964107108486
 31
0.0
  0
ELLIPSE
  5
AC
330
69F
100
AcDbEntity
  8
Screw
100
AcDbEllipse
 10
256.9668014231753
 20
57.12894064296826
 30
0.0
 11
6.499209838271296
 21
0.1013483010099295
 31
0.0
210
0.0
220
0.0
230
1.0
 40
0.75
 41
3.731927245321887
 42
3.978706819747229
  0
LINE
  5
AD
330
69F
100
AcDbEntity
  8
0
100
AcDbLine
 10
54.0
 20
154.5
 30
0.0
 11
54.0
 21
156.0
 31
0.0
  0
LINE
  5
AE
330
69F
100
AcDbEntity
  8
Screw
100
AcDbLine
 10
252.6713268725236
 20
53.44078711433641
 30
0.0
 11
252.6785460909924
 21
52.97783691951551
 31
0.0
  0
LINE
  5
AF
330
69F
100
AcDbEntity
  8
0
100
AcDbLine
 10
242.5771936315167
 20
90.96009773858563
 30
0.0
 11
243.8762682435617
 21
91.7101188155472
 31
0.0
  0
LINE
  5
B0
330
69F
100
AcDbEntity
  8
0
100
AcDbLine
 10
54.0
 20
91.0
 30
0.0
 11
73.0
 21
91.0
 31
0.0
  0
LINE
  5
B1
330
69F
100
AcDbEntity
  8
Screw
100
AcDbLine
 10
252.229117477617
 20
53.74511675264795
 30
0.0
 11
252.1464902911819
 21
53.76170078123634
 31
0.0
  0
LINE
  5
B2
330
69F
100
AcDbEntity
  8
0
100
AcDbLine
 10
190.1811842790361
 20
60.70924763446881
 30
0.0
 11
173.7262391931332
 21
70.20951460931542
 31
0.0
  0
LINE
  5
B3
330
69F
100
AcDbEntity
  8
Screw
100
AcDbLine
 10
252.1464902911819
 20
53.76170078123634
 30
0.0
 11
252.0623362531695
 21
53.77861737483249
 31
0.0
  0
LINE
  5
B4
330
69F
100
AcDbEntity
  8
0
100
AcDbLine
 10
42.0
 20
154.5
 30
0.0
 11
54.0
 21
154.5
 31
0.0
  0
LINE
  5
B5
330
69F
100
AcDbEntity
  8
Screw
100
AcDbLine
 10
252.0623362531695
 20
53.77861737483249
 30
0.0
 11
251.9766123229226
 21
53.79587559439581
 31
0.0
  0
LINE
  5
B6
330
69F
100
AcDbEntity
  8
0
100
AcDbLine
 10
250.3716413037866
 20
86.45997127681619
 30
0.0
 11
242.5771936315167
 21
90.96009773858563
 31
0.0
  0
LINE
  5
B7
330
69F
100
AcDbEntity
  8
Screw
100
AcDbLine
 10
251.9766123229226
 20
53.79587559439581
 30
0.0
 11
251.8892729397143
 21
53.8134842814257
 31
0.0
  0
LINE
  5
B8
330
69F
100
AcDbEntity
  8
Helpers
  6
ACAD_ISO07W100
100
AcDbLine
 10
177.4423881554251
 20
181.0576118445748
 30
0.0
 11
201.4840187157677
 21
157.0159812842323
 31
0.0
  0
LINE
  5
B9
330
69F
100
AcDbEntity
  8
Screw
100
AcDbLine
 10
251.8892729397143
 20
53.8134842814257
 30
0.0
 11
251.8002710924157
 21
53.83145281652374
 31
0.0
  0
LINE
  5
BA
330
69F
100
AcDbEntity
  8
Helpers
  6
ACAD_ISO07W100
100
AcDbLine
 10
45.7806999099937
 20
178.2193000900063
 30
0.0
 11
69.8223304703363
 21
154.1776695296637
 31
0.0
  0
LINE
  5
BB
330
69F
100
AcDbEntity
  8
Screw
100
AcDbLine
 10
251.8002710924157
 20
53.83145281652374
 30
0.0
 11
251.7095583179589
 21
53.84979121794385
 31
0.0
  0
LINE
  5
BC
330
69F
100
AcDbEntity
  8
0
100
AcDbLine
 10
207.9352039769841
 20
70.959535686277
 30
0.0
 11
190.1811842790361
 21
60.70924763446881
 31
0.0
  0
LINE
  5
BD
330
69F
100
AcDbEntity
  8
Screw
100
AcDbLine
 10
251.7095583179589
 20
53.84979121794385
 30
0.0
 11
251.6170836301331
 21
53.86850948157976
 31
0.0
  0
LINE
  5
BE
330
69F
100
AcDbEntity
  8
0
100
AcDbLine
 10
54.0
 20
114.5
 30
0.0
 11
54.0
 21
91.0
 31
0.0
  0
LINE
  5
BF
330
69F
100
AcDbEntity
  8
0
100
AcDbLine
 10
250.3716413037866
 20
86.45997127681619
 30
0.0
 11
215.729651649254
 21
66.45940922450754
 31
0.0
  0
LINE
  5
C0
330
69F
100
AcDbEntity
  8
0
100
AcDbLine
 10
42.0
 20
154.5
 30
0.0
 11
42.0
 21
114.5
 31
0.0
  0
LINE
  5
C1
330
69F
100
AcDbEntity
  8
0
100
AcDbLine
 10
215.729651649254
 20
66.45940922450754
 30
0.0
 11
207.9352039769841
 21
70.959535686277
 31
0.0
  0
LINE
  5
C2
330
69F
100
AcDbEntity
  8
0
100
AcDbLine
 10
42.0
 20
114.5
 30
0.0
 11
54.0
 21
114.5
 31
0.0
  0
ELLIPSE
  5
C3
330
69F
100
AcDbEntity
  8
0
100
AcDbEllipse
 10
197.975631951306
 20
98.71031553385524
 30
0.0
 11
-33.68143047295709
 21
4.100000000000000E-15
 31
0.0
210
0.0
220
0.0
230
1.0
 40
0.5773502691896258
 41
0.0
 42
6.283185307179586
  0
CIRCLE
  5
C4
330
69F
100
AcDbEntity
  8
0
100
AcDbCircle
 10
87.5
 20
136.5
 30
0.0
 40
27.5
  0
ELLIPSE
  5
C5
330
69F
100
AcDbEntity
  8
0
100
AcDbEllipse
 10
256.7650378677401
 20
98.71031553385525
 30
0.0
 11
4.89911715970285
 21
0.0
 31
0.0
210
0.0
220
0.0
230
1.0
 40
0.5773502691896258
 41
0.0
 42
6.283185307179586
  0
CIRCLE
  5
C6
330
69F
100
AcDbEntity
  8
0
100
AcDbCircle
 10
53.55887450304573
 20
170.4411254969543
 30
0.0
 40
4.0
  0
LINE
  5
C7
330
69F
100
AcDbEntity
  8
Folding Lines
100
AcDbLine
 10
181.520686865403
 20
74.70964107108486
 30
0.0
 11
197.975631951306
 21
65.20937409623826
 31
0.0
  0
LINE
  5
C8
330
69F
100
AcDbEntity
  8
Folding Lines
100
AcDbLine
 10
73.0
 20
103.0
 30
0.0
 11
54.0
 21
103.0
 31
0.0
  0
LINE
  5
C9
330
69F
100
AcDbEntity
  8
Folding Lines
100
AcDbLine
 10
208.0380863790618
 20
70.93136030144518
 30
0.0
 11
242.6800760335944
 21
90.93192235375383
 31
0.0
  0
LINE
  5
CA
330
69F
100
AcDbEntity
  8
Folding Lines
100
AcDbLine
 10
53.91242789363899
 20
114.5312229202569
 30
0.0
 11
53.912427893639
 21
154.5312229202569
 31
0.0
  0
LINE
  5
CB
330
69F
100
AcDbEntity
  8
Folding Lines
100
AcDbLine
 10
181.520686865403
 20
122.7109899966256
 30
0.0
 11
197.975631951306
 21
132.2112569714722
 31
0.0
  0
LINE
  5
CC
330
69F
100
AcDbEntity
  8
Folding Lines
100
AcDbLine
 10
121.0
 20
151.0
 30
0.0
 11
121.0
 21
170.0
 31
0.0
  0
LINE
  5
CD
330
69F
100
AcDbEntity
  8
Folding Lines
100
AcDbLine
 10
207.5021791063025
 20
126.7111024070873
 30
0.0
 11
242.1441687608351
 21
106.7105403547787
 31
0.0
  0
LINE
  5
CE
330
69F
100
AcDbEntity
  8
Folding Lines
100
AcDbLine
 10
110.0
 20
170.0
 30
0.0
 11
70.0
 21
170.0
 31
0.0
  0
LINE
  5
CF
330
69F
100
AcDbEntity
  8
Centers
100
AcDbLine
 10
87.49999999999994
 20
119.0
 30
0.0
 11
87.49999999999994
 21
154.0
 31
0.0
  0
LINE
  5
D0
330
69F
100
AcDbEntity
  8
Centers
100
AcDbLine
 10
182.819761477448
 20
89.96006963597017
 30
0.0
 11
213.1315024251641
 21
107.4605614317402
 31
0.0
  0
LINE
  5
D1
330
69F
100
AcDbEntity
  8
Screw
100
AcDbLine
 10
252.238604365381
 20
53.7514911567004
 30
0.0
 11
252.2291174951753
 21
53.74511675249575
 31
0.0
  0
LINE
  5
D2
330
69F
100
AcDbEntity
  8
Centers
100
AcDbLine
 10
69.99999999999994
 20
136.5
 30
0.0
 11
105.0
 21
136.5
 31
0.0
  0
LINE
  5
D3
330
69F
100
AcDbEntity
  8
Centers
100
AcDbLine
 10
213.1315024251641
 20
89.96006963597017
 30
0.0
 11
182.819761477448
 21
107.4605614317403
 31
0.0
  0
LINE
  5
D4
330
69F
100
AcDbEntity
  8
Meta
100
AcDbLine
 10
113.0
 20
42.0
 30
0.0
 11
285.0
 21
42.0
 31
0.0
  0
LINE
  5
D5
330
69F
100
AcDbEntity
  8
Meta
100
AcDbLine
 10
140.0
 20
42.0
 30
0.0
 11
140.0
 21
12.0
 31
0.0
  0
LINE
  5
D6
330
69F
100
AcDbEntity
  8
Meta
100
AcDbLine
 10
113.0
 20
42.0
 30
0.0
 11
113.0
 21
12.0
 31
0.0
  0
LINE
  5
D7
330
69F
100
AcDbEntity
  8
Meta
100
AcDbLine
 10
234.0
 20
42.0
 30
0.0
 11
234.0
 21
12.0
 31
0.0
  0
MTEXT
  5
D8
330
69F
100
AcDbEntity
  8
Meta
100
AcDbMText
 10
146.532797029703
 20
36.72648514851485
 30
0.0
 40
1.0
 41
0.0
 46
0.0
 71
     1
 72
     1
  1
\H4;Filter Holder for\PLeitz Focomat Ic
  7
textstyle0
 73
     1
 44
1.0
  0
MTEXT
  5
D9
330
69F
100
AcDbEntity
  8
Meta
100
AcDbMText
 10
236.8894409937888
 20
37.74968944099379
 30
0.0
 40
1.0
 41
0.0
 46
0.0
 71
     1
 72
     1
  1
\H2.8;Material: Stahl 1.5mm\POberflche: \P   Schwarzverchromt (matt)
  7
textstyle1
 73
     1
 44
1.0
  0
MTEXT
  5
DA
330
69F
100
AcDbEntity
  8
Meta
100
AcDbMText
 10
122.1667121418827
 20
30.51023192360163
 30
0.0
 40
1.0
 41
0.0
 46
0.0
 71
     1
 72
     1
  1
\fArial|b0|i0|c0|p0;\H5;1:1
  7
textstyle2
 73
     1
 44
1.0
  0
LINE
  5
DB
330
69F
100
AcDbEntity
  8
Meta
370
   100
100
AcDbLine
 10
12.0
 20
12.0
 30
0.0
 11
285.0
 21
12.0
 31
0.0
  0
LINE
  5
DC
330
69F
100
AcDbEntity
  8
Meta
370
   100
100
AcDbLine
 10
285.0
 20
12.0
 30
0.0
 11
285.0
 21
198.0
 31
0.0
  0
LINE
  5
DD
330
69F
100
AcDbEntity
  8
Meta
370
   100
100
AcDbLine
 10
285.0
 20
198.0
 30
0.0
 11
12.0
 21
198.0
 31
0.0
  0
ELLIPSE
  5
DE
330
69F
100
AcDbEntity
  8
Screw
100
AcDbEllipse
 10
256.9740206416441
 20
56.66599044814735
 30
0.0
 11
6.499209838271296
 21
0.1013483010099295
 31
0.0
210
0.0
220
0.0
230
1.0
 40
0.75
 41
5.42611335932946
 42
6.283223462124553
  0
LINE
  5
DF
330
69F
100
AcDbEntity
  8
Meta
370
   100
100
AcDbLine
 10
12.0
 20
198.0
 30
0.0
 11
12.0
 21
12.0
 31
0.0
  0
MTEXT
  5
E0
330
69F
100
AcDbEntity
  8
Meta
100
AcDbMText
 10
146.5254658385093
 20
21.72111801242238
 30
0.0
 40
1.0
 41
0.0
 46
0.0
 71
     1
 72
     1
  1
\H2;Adapted from Leitz USA \PPart Nr. 17636\P
  7
textstyle3
 73
     1
 44
1.0
  0
MTEXT
  5
E1
330
69F
100
AcDbEntity
  8
Meta
100
AcDbMText
 10
200.9201732673267
 20
37.65222772277227
 30
0.0
 40
1.0
 41
0.0
 46
0.0
 71
     1
 72
     1
  1
\fArial|b0|i0|c0|p0;\H1.5;Revsion:\P
  7
textstyle4
 73
     1
 44
1.0
  0
MTEXT
  5
E2
330
69F
100
AcDbEntity
  8
Meta
100
AcDbMText
 10
201.8459158415841
 20
32.09777227722773
 30
0.0
 40
1.0
 41
0.0
 46
0.0
 71
     1
 72
     1
  1
\H2;Initial: 2017-02-14\P
  7
textstyle5
 73
     1
 44
1.0
  0
LINE
  5
E3
330
69F
100
AcDbEntity
  8
Centers
100
AcDbLine
 10
53.55887450304573
 20
168.4411254969543
 30
0.0
 11
53.55887450304573
 21
172.4411254969543
 31
0.0
  0
ELLIPSE
  5
E4
330
69F
100
AcDbEntity
  8
Screw
100
AcDbEllipse
 10
256.9503003523894
 20
58.18711251684458
 30
0.0
 11
6.499209838271296
 21
0.1013483010099295
 31
0.0
210
0.0
220
0.0
230
1.0
 40
0.75
 41
5.42611335932946
 42
6.283223462124553
  0
LINE
  5
E5
330
69F
100
AcDbEntity
  8
Centers
100
AcDbLine
 10
255.0329383850136
 20
97.71028743123982
 30
0.0
 11
258.4971373504668
 21
99.71034363647068
 31
0.0
  0
ELLIPSE
  5
E6
330
69F
100
AcDbEntity
  8
Screw
100
AcDbEllipse
 10
256.9503003523894
 20
58.18711251684458
 30
0.0
 11
6.499209838271296
 21
0.1013483010099295
 31
0.0
210
0.0
220
0.0
230
1.0
 40
0.75
 41
0.0000381549449668
 42
0.9079225039623545
  0
LINE
  5
E7
330
69F
100
AcDbEntity
  8
Centers
100
AcDbLine
 10
51.55887450304573
 20
170.4411254969543
 30
0.0
 11
55.55887450304573
 21
170.4411254969543
 31
0.0
  0
LINE
  5
E8
330
69F
100
AcDbEntity
  8
Centers
100
AcDbLine
 10
258.4971373504668
 20
97.71028743123982
 30
0.0
 11
255.0329383850136
 21
99.71034363647068
 31
0.0
  0
ELLIPSE
  5
E9
330
69F
100
AcDbEntity
  8
Screw
100
AcDbEllipse
 10
256.9503003523894
 20
58.18711251684458
 30
0.0
 11
6.499209838271296
 21
0.1013483010099295
 31
0.0
210
0.0
220
0.0
230
1.0
 40
0.75
 41
2.233670061862819
 42
2.284520705739663
  0
DIMENSION
  5
EA
330
69F
100
AcDbEntity
  8
Measurements
100
AcDbDimension
280
     0
 10
87.49999999999994
 20
136.5
 30
0.0
 11
71.8552624662476
 21
154.7963879632019
 31
0.0
 70
    33
 71
     5
 42
-1.0
 73
     0
 74
     0
 75
     0
  3
QCADDimStyle
100
AcDbAlignedDimension
 13
87.49999999999994
 23
136.5
 33
0.0
 14
53.55887450304571
 24
170.4411254969543
 34
0.0
1001
ACAD
1000
DSTYLE
1002
{
1070
   279
1070
     2
1070
    41
1040
2.5
1070
    79
1070
     2
1070
   176
1070
     0
1070
   177
1070
     0
1070
   178
1070
     0
1070
    44
1040
1.25
1070
    42
1040
0.625
1070
   147
1040
0.625
1070
   140
1040
2.5
1070
    78
1070
     8
1002
}
  0
MTEXT
  5
EB
330
69F
100
AcDbEntity
  8
Comments
100
AcDbMText
 10
235.8333954315627
 20
157.5489611557607
 30
0.0
 40
1.0
 41
0.0
 46
0.0
 71
     1
 72
     1
  1
\H2.5;Durchgangsloch fr Ansatz\PFlachkopfschraube \PDIN 923/M6\PAnsatz D=8mm
  7
textstyle6
 73
     1
 44
1.0
  0
ELLIPSE
  5
EC
330
69F
100
AcDbEntity
  8
Screw
100
AcDbEllipse
 10
256.9503003523894
 20
58.18711251684458
 30
0.0
 11
4.249483355792758
 21
0.06626619681418454
 31
0.0
210
0.0
220
0.0
230
1.0
 40
0.7500000000000001
 41
2.796890982582479
 42
3.855317032534547
  0
DIMENSION
  5
ED
330
69F
100
AcDbEntity
  8
Measurements
100
AcDbDimension
280
     0
 10
111.4716371420952
 20
149.976298183393
 30
0.0
 11
99.10942740094175
 21
143.0265507093301
 31
0.0
 70
   163
  1
<>
 71
     5
 42
-1.0
 73
     0
 74
     0
 75
     0
  3
QCADDimStyle
100
AcDbDiametricDimension
 15
63.52836285790481
 25
123.023701816607
 35
0.0
 40
0.0
1001
ACAD
1000
DSTYLE
1002
{
1070
   279
1070
     2
1070
    41
1040
2.5
1070
    79
1070
     2
1070
   176
1070
     0
1070
   177
1070
     0
1070
   178
1070
     0
1070
    44
1040
1.25
1070
    42
1040
0.625
1070
   147
1040
0.625
1070
   140
1040
2.5
1070
    78
1070
     8
1002
}
  0
ELLIPSE
  5
EF
330
69F
100
AcDbEntity
  8
Screw
100
AcDbEllipse
 10
256.8471686599773
 20
64.80068672857155
 30
0.0
 11
3.999513746628487
 21
0.0623681852368797
 31
0.0
210
0.0
220
0.0
230
1.0
 40
0.7500000000000001
 41
5.426113359329453
 42
6.283223462124562
  0
LINE
  5
F0
330
69F
100
AcDbEntity
  8
Hatch
100
AcDbLine
 10
215.5546969820566
 20
115.2976121927373
 30
0.0
 11
215.5546969820566
 21
131.0622319674053
 31
0.0
  0
ELLIPSE
  5
F1
330
69F
100
AcDbEntity
  8
Screw
100
AcDbEllipse
 10
256.8471686599773
 20
64.80068672857155
 30
0.0
 11
3.999513746628487
 21
0.0623681852368797
 31
0.0
210
0.0
220
0.0
230
1.0
 40
0.7500000000000001
 41
0.0000381549449763
 42
0.722734258799863
  0
LINE
  5
F2
330
69F
100
AcDbEntity
  8
Hatch
100
AcDbLine
 10
219.4433712275707
 20
68.6035262227435
 30
0.0
 11
219.4433712275707
 21
83.72615802143606
 31
0.0
  0
LINE
  5
F3
330
69F
100
AcDbEntity
  8
Hatch
100
AcDbLine
 10
219.4433712275707
 20
113.6944730462744
 30
0.0
 11
219.4433712275707
 21
128.817104844967
 31
0.0
  0
LINE
  5
F4
330
69F
100
AcDbEntity
  8
Hatch
100
AcDbLine
 10
207.7773484910282
 20
70.86839777896732
 30
0.0
 11
207.7773484910282
 21
80.10596916372282
 31
0.0
  0
ELLIPSE
  5
F5
330
69F
100
AcDbEntity
  8
Screw
100
AcDbEllipse
 10
256.8471686599773
 20
64.80068672857155
 30
0.0
 11
2.999635309971369
 21
0.04677613892765852
 31
0.0
210
0.0
220
0.0
230
1.0
 40
0.7500000000000001
 41
3.061952219862208
 42
3.855317032534558
  0
LINE
  5
F6
330
69F
100
AcDbEntity
  8
Hatch
100
AcDbLine
 10
223.3320454730848
 20
111.5099386014459
 30
0.0
 11
223.3320454730848
 21
126.5719777225286
 31
0.0
  0
LINE
  5
F7
330
69F
100
AcDbEntity
  8
Hatch
100
AcDbLine
 10
227.220719718599
 20
73.0937804676202
 30
0.0
 11
227.220719718599
 21
89.06383776235795
 31
0.0
  0
ELLIPSE
  5
F8
330
69F
100
AcDbEntity
  8
Screw
100
AcDbEllipse
 10
256.7599321396584
 20
70.39494381491612
 30
0.0
 11
2.999635309971367
 21
0.0467761389276598
 31
0.0
210
0.0
220
0.0
230
1.0
 40
0.7500000000000001
 41
5.426113359329465
 42
6.283223462124553
  0
ELLIPSE
  5
F9
330
69F
100
AcDbEntity
  8
Screw
100
AcDbEllipse
 10
256.7599321396584
 20
70.39494381491612
 30
0.0
 11
2.999635309971367
 21
0.0467761389276598
 31
0.0
210
0.0
220
0.0
230
1.0
 40
0.7500000000000001
 41
0.0000381549449668
 42
2.28452070573966
  0
LINE
  5
FA
330
69F
100
AcDbEntity
  8
Hatch
100
AcDbLine
 10
227.220719718599
 20
108.3567933053525
 30
0.0
 11
227.220719718599
 21
124.3268506000903
 31
0.0
  0
LINE
  5
FB
330
69F
100
AcDbEntity
  8
Screw
100
AcDbLine
 10
253.7602968281133
 20
70.3481677769036
 30
0.0
 11
253.841951350695
 21
65.11187006679457
 31
0.0
  0
LINE
  5
FC
330
69F
100
AcDbEntity
  8
Hatch
100
AcDbLine
 10
215.5546969820566
 20
66.56041934870996
 30
0.0
 11
215.5546969820566
 21
82.12301887497313
 31
0.0
  0
LINE
  5
FD
330
69F
100
AcDbEntity
  8
Hatch
100
AcDbLine
 10
244.1502706650697
 20
107.8687638292104
 30
0.0
 11
244.1502706650698
 21
114.5525698038859
 31
0.0
  0
LINE
  5
FE
330
69F
100
AcDbEntity
  8
Hatch
100
AcDbLine
 10
248.0389449105839
 20
85.11318838626296
 30
0.0
 11
248.0389449105839
 21
87.80675416736943
 31
0.0
  0
LINE
  5
FF
330
69F
100
AcDbEntity
  8
Hatch
100
AcDbLine
 10
248.0389449105839
 20
90.95313611536608
 30
0.0
 11
248.0389449105839
 21
106.4887087139566
 31
0.0
  0
LINE
  5
100
330
69F
100
AcDbEntity
  8
Hatch
100
AcDbLine
 10
223.3320454730848
 20
70.84865334518184
 30
0.0
 11
223.3320454730848
 21
85.9106924662646
 31
0.0
  0
LINE
  5
101
330
69F
100
AcDbEntity
  8
Hatch
100
AcDbLine
 10
251.927619156098
 20
90.94368246768698
 30
0.0
 11
251.927619156098
 21
98.26283028167761
 31
0.0
  0
LINE
  5
102
330
69F
100
AcDbEntity
  8
Hatch
100
AcDbLine
 10
251.927619156098
 20
99.15780078603291
 30
0.0
 11
251.927619156098
 21
106.4887087139566
 31
0.0
  0
LINE
  5
103
330
69F
100
AcDbEntity
  8
Hatch
100
AcDbLine
 10
255.8162934016122
 20
90.93422882000789
 30
0.0
 11
255.8162934016122
 21
95.93535409973967
 31
0.0
  0
LINE
  5
104
330
69F
100
AcDbEntity
  8
Hatch
100
AcDbLine
 10
244.1502706650697
 20
91.55192344373093
 30
0.0
 11
244.1502706650697
 21
106.3687216752873
 31
0.0
  0
LINE
  5
105
330
69F
100
AcDbEntity
  8
Hatch
100
AcDbLine
 10
246.6640909461696
 20
109.3201186451978
 30
0.0
 11
246.6640909461696
 21
113.1012149878985
 31
0.0
  0
LINE
  5
106
330
69F
100
AcDbEntity
  8
Hatch
100
AcDbLine
 10
250.5527651916838
 20
90.9470248368774
 30
0.0
 11
250.5527651916838
 21
106.4887087139566
 31
0.0
  0
LINE
  5
107
330
69F
100
AcDbEntity
  8
Hatch
100
AcDbLine
 10
254.4414394371979
 20
90.93757118919831
 30
0.0
 11
254.4414394371979
 21
96.22018573281565
 31
0.0
  0
LINE
  5
108
330
69F
100
AcDbEntity
  8
Hatch
100
AcDbLine
 10
242.7754167006555
 20
82.0742889573736
 30
0.0
 11
242.7754167006555
 21
90.84565359625879
 31
0.0
  0
LINE
  5
109
330
69F
100
AcDbEntity
  8
Hatch
100
AcDbLine
 10
258.3301136827121
 20
90.98458495165715
 30
0.0
 11
258.3301136827121
 21
96.03002409212202
 31
0.0
  0
LINE
  5
10A
330
69F
100
AcDbEntity
  8
Hatch
100
AcDbLine
 10
258.3301136827121
 20
101.3906069755885
 30
0.0
 11
258.3301136827121
 21
106.4360461160533
 31
0.0
  0
LINE
  5
10B
330
69F
100
AcDbEntity
  8
Hatch
100
AcDbLine
 10
262.2187879282262
 20
91.59772548356435
 30
0.0
 11
262.2187879282262
 21
105.8229055841462
 31
0.0
  0
LINE
  5
10C
330
69F
100
AcDbEntity
  8
Hatch
100
AcDbLine
 10
246.6640909461696
 20
90.9564784845565
 30
0.0
 11
246.6640909461696
 21
106.4887087139566
 31
0.0
  0
LINE
  5
10D
330
69F
100
AcDbEntity
  8
Hatch
100
AcDbLine
 10
200.0
 20
118.1211432056133
 30
0.0
 11
200.0
 21
131.0424875336198
 31
0.0
  0
LINE
  5
10E
330
69F
100
AcDbEntity
  8
Hatch
100
AcDbLine
 10
203.8886742455141
 20
68.62327065652899
 30
0.0
 11
203.8886742455141
 21
79.5663461654828
 31
0.0
  0
LINE
  5
10F
330
69F
100
AcDbEntity
  8
Hatch
100
AcDbLine
 10
203.8886742455142
 20
117.8542849022277
 30
0.0
 11
203.8886742455142
 21
128.7973604111815
 31
0.0
  0
LINE
  5
110
330
69F
100
AcDbEntity
  8
Hatch
100
AcDbLine
 10
254.4414394371979
 20
101.2004453348949
 30
0.0
 11
254.4414394371979
 21
106.4887087139566
 31
0.0
  0
LINE
  5
111
330
69F
100
AcDbEntity
  8
Hatch
100
AcDbLine
 10
207.7773484910283
 20
117.3146619039877
 30
0.0
 11
207.7773484910283
 21
126.8699715254315
 31
0.0
  0
LINE
  5
112
330
69F
100
AcDbEntity
  8
Hatch
100
AcDbLine
 10
211.6660227365424
 20
68.8055464711483
 30
0.0
 11
211.6660227365424
 21
80.94319272371182
 31
0.0
  0
LINE
  5
113
330
69F
100
AcDbEntity
  8
Hatch
100
AcDbLine
 10
211.6660227365424
 20
116.4774383439986
 30
0.0
 11
211.6660227365424
 21
129.1150986478698
 31
0.0
  0
LINE
  5
114
330
69F
100
AcDbEntity
  8
Hatch
100
AcDbLine
 10
200.0
 20
66.37814353409064
 30
0.0
 11
200.0
 21
79.29948786209714
 31
0.0
  0
LINE
  5
115
330
69F
100
AcDbEntity
  8
Hatch
100
AcDbLine
 10
170.2654600003012
 20
109.7645022090535
 30
0.0
 11
170.2654600003012
 21
116.2127817362688
 31
0.0
  0
LINE
  5
116
330
69F
100
AcDbEntity
  8
Hatch
100
AcDbLine
 10
174.1541342458153
 20
69.96246928546446
 30
0.0
 11
174.1541342458153
 21
70.45655993316637
 31
0.0
  0
LINE
  5
117
330
69F
100
AcDbEntity
  8
Hatch
100
AcDbLine
 10
174.1541342458153
 20
78.96272220900335
 30
0.0
 11
174.1541342458153
 21
84.96289146275565
 31
0.0
  0
LINE
  5
118
330
69F
100
AcDbEntity
  8
Hatch
100
AcDbLine
 10
158.5994372637588
 20
87.94323069875675
 30
0.0
 11
158.5994372637588
 21
109.4774003689537
 31
0.0
  0
LINE
  5
119
330
69F
100
AcDbEntity
  8
Hatch
100
AcDbLine
 10
174.1541342458153
 20
126.9640711345441
 30
0.0
 11
174.1541342458153
 21
127.458161782246
 31
0.0
  0
LINE
  5
11A
330
69F
100
AcDbEntity
  8
Hatch
100
AcDbLine
 10
178.0428084913295
 20
67.7173421630261
 30
0.0
 11
178.0428084913295
 21
72.70168705560474
 31
0.0
  0
LINE
  5
11B
330
69F
100
AcDbEntity
  8
Hatch
100
AcDbLine
 10
178.0428084913295
 20
76.717595086565
 30
0.0
 11
178.0428084913295
 21
83.0352684034843
 31
0.0
  0
LINE
  5
11C
330
69F
100
AcDbEntity
  8
Hatch
100
AcDbLine
 10
170.2654600003011
 20
81.20784933144174
 30
0.0
 11
170.2654600003011
 21
87.65612885865706
 31
0.0
  0
LINE
  5
11D
330
69F
100
AcDbEntity
  8
Hatch
100
AcDbLine
 10
231.1093939641131
 20
102.202810992373
 30
0.0
 11
231.1093939641131
 21
122.0817234776519
 31
0.0
  0
LINE
  5
11E
330
69F
100
AcDbEntity
  8
Hatch
100
AcDbLine
 10
234.9980682096272
 20
77.5840347124969
 30
0.0
 11
234.9980682096272
 21
119.8365963552136
 31
0.0
  0
LINE
  5
11F
330
69F
100
AcDbEntity
  8
Hatch
100
AcDbLine
 10
238.8867424551414
 20
79.82916183493526
 30
0.0
 11
238.8867424551414
 21
117.5914692327752
 31
0.0
  0
LINE
  5
120
330
69F
100
AcDbEntity
  8
Hatch
100
AcDbLine
 10
174.1541342458153
 20
112.4577396049548
 30
0.0
 11
174.1541342458153
 21
118.4579088587071
 31
0.0
  0
LINE
  5
121
330
69F
100
AcDbEntity
  8
Hatch
100
AcDbLine
 10
242.7754167006555
 20
91.07454188091249
 30
0.0
 11
242.7754167006555
 21
106.346089186798
 31
0.0
  0
LINE
  5
122
330
69F
100
AcDbEntity
  8
Hatch
100
AcDbLine
 10
242.7754167006555
 20
107.0749915227594
 30
0.0
 11
242.7754167006555
 21
115.3463421103369
 31
0.0
  0
LINE
  5
123
330
69F
100
AcDbEntity
  8
Hatch
100
AcDbLine
 10
246.6640909461696
 20
84.31941607981196
 30
0.0
 11
246.6640909461696
 21
88.60052647382044
 31
0.0
  0
LINE
  5
124
330
69F
100
AcDbEntity
  8
Hatch
100
AcDbLine
 10
231.1093939641131
 20
75.33890759005855
 30
0.0
 11
231.1093939641131
 21
95.21782007533743
 31
0.0
  0
LINE
  5
125
330
69F
100
AcDbEntity
  8
Hatch
100
AcDbLine
 10
162.4881115092729
 20
85.6981035763184
 30
0.0
 11
162.4881115092729
 21
111.722527491392
 31
0.0
  0
LINE
  5
126
330
69F
100
AcDbEntity
  8
Hatch
100
AcDbLine
 10
166.3767857547871
 20
83.45297645388004
 30
0.0
 11
166.376785754787
 21
91.97850850172827
 31
0.0
  0
LINE
  5
127
330
69F
100
AcDbEntity
  8
Hatch
100
AcDbLine
 10
166.3767857547871
 20
105.4421225659822
 30
0.0
 11
166.376785754787
 21
113.9676546138304
 31
0.0
  0
LINE
  5
128
330
69F
100
AcDbEntity
  8
Hatch
100
AcDbLine
 10
189.7088312278719
 20
117.561476103819
 30
0.0
 11
189.7088312278719
 21
136.4386702719994
 31
0.0
  0
LINE
  5
129
330
69F
100
AcDbEntity
  8
Hatch
100
AcDbLine
 10
178.0428084913295
 20
114.3853626642262
 30
0.0
 11
178.0428084913295
 21
120.7030359811454
 31
0.0
  0
LINE
  5
12A
330
69F
100
AcDbEntity
  8
Hatch
100
AcDbLine
 10
178.0428084913295
 20
124.7189440121057
 30
0.0
 11
178.0428084913295
 21
129.7032889046844
 31
0.0
  0
LINE
  5
12B
330
69F
100
AcDbEntity
  8
Hatch
100
AcDbLine
 10
181.9314827368436
 20
65.47221504058777
 30
0.0
 11
181.9314827368436
 21
81.61232311087656
 31
0.0
  0
LINE
  5
12C
330
69F
100
AcDbEntity
  8
Hatch
100
AcDbLine
 10
197.4861797189001
 20
118.1542451368345
 30
0.0
 11
197.4861797189001
 21
132.4938423496072
 31
0.0
  0
LINE
  5
12D
330
69F
100
AcDbEntity
  8
Hatch
100
AcDbLine
 10
185.8201569823577
 20
63.22708791814941
 30
0.0
 11
185.8201569823577
 21
80.57486969810846
 31
0.0
  0
LINE
  5
12E
330
69F
100
AcDbEntity
  8
Hatch
100
AcDbLine
 10
185.8201569823577
 20
116.845761369602
 30
0.0
 11
185.8201569823577
 21
134.1935431495611
 31
0.0
  0
LINE
  5
12F
330
69F
100
AcDbEntity
  8
Screw
100
AcDbLine
 10
252.8476549094147
 20
64.73831879562249
 30
0.0
 11
252.9482083144341
 21
58.29008362382888
 31
0.0
  0
LINE
  5
130
330
69F
100
AcDbEntity
  8
Hatch
100
AcDbLine
 10
189.7088312278719
 20
60.98196079571105
 30
0.0
 11
189.7088312278719
 21
79.85915496389146
 31
0.0
  0
LINE
  5
131
330
69F
100
AcDbEntity
  8
Hatch
100
AcDbLine
 10
205.2635282099284
 20
117.6956197349841
 30
0.0
 11
205.2635282099284
 21
128.0035881047305
 31
0.0
  0
LINE
  5
132
330
69F
100
AcDbEntity
  8
Hatch
100
AcDbLine
 10
193.597505473386
 20
62.68166159566493
 30
0.0
 11
193.597505473386
 21
79.42931653442598
 31
0.0
  0
LINE
  5
133
330
69F
100
AcDbEntity
  8
Hatch
100
AcDbLine
 10
193.597505473386
 20
117.9913145332845
 30
0.0
 11
193.597505473386
 21
134.7389694720456
 31
0.0
  0
LINE
  5
134
330
69F
100
AcDbEntity
  8
Hatch
100
AcDbLine
 10
197.4861797189001
 20
64.92678871810328
 30
0.0
 11
197.4861797189001
 21
79.26638593087601
 31
0.0
  0
LINE
  5
135
330
69F
100
AcDbEntity
  8
Hatch
100
AcDbLine
 10
154.7107630182446
 20
90.18835782119511
 30
0.0
 11
154.7107630182446
 21
107.2322732465153
 31
0.0
  0
LINE
  5
136
330
69F
100
AcDbEntity
  8
Hatch
100
AcDbLine
 10
201.3748539644143
 20
67.17191584054163
 30
0.0
 11
201.3748539644143
 21
79.36361858570892
 31
0.0
  0
LINE
  5
137
330
69F
100
AcDbEntity
  8
Hatch
100
AcDbLine
 10
201.3748539644143
 20
118.0570124820016
 30
0.0
 11
201.3748539644143
 21
130.2487152271688
 31
0.0
  0
LINE
  5
138
330
69F
100
AcDbEntity
  8
Hatch
100
AcDbLine
 10
205.2635282099284
 20
69.41704296297998
 30
0.0
 11
205.2635282099284
 21
79.7250113327264
 31
0.0
  0
LINE
  5
139
330
69F
100
AcDbEntity
  8
Hatch
100
AcDbLine
 10
196.1113257544859
 20
64.13301641165228
 30
0.0
 11
196.1113257544859
 21
79.29414425740683
 31
0.0
  0
LINE
  5
13A
330
69F
100
AcDbEntity
  8
Hatch
100
AcDbLine
 10
196.1113257544859
 20
118.1264868103036
 30
0.0
 11
196.1113257544859
 21
133.2876146560582
 31
0.0
  0
LINE
  5
13B
330
69F
100
AcDbEntity
  8
Hatch
100
AcDbLine
 10
184.4453030179434
 20
64.02086022460041
 30
0.0
 11
184.4453030179434
 21
80.90236826622913
 31
0.0
  0
LINE
  5
13C
330
69F
100
AcDbEntity
  8
Screw
100
AcDbLine
 10
250.4510905151016
 20
58.08576415276268
 30
0.0
 11
250.4748108032499
 21
56.56464215502142
 31
0.0
  0
LINE
  5
13D
330
69F
100
AcDbEntity
  8
Hatch
100
AcDbLine
 10
184.4453030179434
 20
116.5182628014813
 30
0.0
 11
184.4453030179434
 21
133.39977084311
 31
0.0
  0
LINE
  5
13E
330
69F
100
AcDbEntity
  8
Screw
100
AcDbLine
 10
263.4495071904366
 20
58.28864690445801
 30
0.0
 11
263.4732274785849
 21
56.76752490671676
 31
0.0
  0
LINE
  5
13F
330
69F
100
AcDbEntity
  8
Hatch
100
AcDbLine
 10
165.0019317903728
 20
102.6757434805597
 30
0.0
 11
165.0019317903728
 21
113.1738823073794
 31
0.0
  0
LINE
  5
140
330
69F
100
AcDbEntity
  8
Hatch
100
AcDbLine
 10
153.3359090538304
 20
90.9821301276461
 30
0.0
 11
153.3359090538304
 21
106.4385009400643
 31
0.0
  0
LINE
  5
141
330
69F
100
AcDbEntity
  8
Hatch
100
AcDbLine
 10
192.2226515089718
 20
61.88788928921394
 30
0.0
 11
192.2226515089718
 21
79.55009654820024
 31
0.0
  0
LINE
  5
142
330
69F
100
AcDbEntity
  8
Hatch
100
AcDbLine
 10
192.2226515089717
 20
117.8705345195102
 30
0.0
 11
192.2226515089717
 21
135.5327417784966
 31
0.0
  0
LINE
  5
143
330
69F
100
AcDbEntity
  8
Hatch
100
AcDbLine
 10
172.779280281401
 20
111.6148705595186
 30
0.0
 11
172.779280281401
 21
117.6641365522561
 31
0.0
  0
LINE
  5
144
330
69F
100
AcDbEntity
  8
Hatch
100
AcDbLine
 10
157.2245832993445
 20
88.73700300520775
 30
0.0
 11
157.2245832993445
 21
108.6836280625027
 31
0.0
  0
LINE
  5
145
330
69F
100
AcDbEntity
  8
Hatch
100
AcDbLine
 10
161.1132575448586
 20
86.4918758827694
 30
0.0
 11
161.1132575448586
 21
110.928755184941
 31
0.0
  0
LINE
  5
146
330
69F
100
AcDbEntity
  8
Hatch
100
AcDbLine
 10
165.0019317903728
 20
84.24674876033106
 30
0.0
 11
165.0019317903728
 21
94.74488758715076
 31
0.0
  0
LINE
  5
147
330
69F
100
AcDbEntity
  8
Hatch
100
AcDbLine
 10
181.9314827368436
 20
115.8083079568339
 30
0.0
 11
181.9314827368436
 21
131.9484160271227
 31
0.0
  0
LINE
  5
148
330
69F
100
AcDbEntity
  8
Hatch
100
AcDbLine
 10
168.8906060358869
 20
82.0016216378927
 30
0.0
 11
168.8906060358869
 21
88.90385463293143
 31
0.0
  0
LINE
  5
149
330
69F
100
AcDbEntity
  8
Hatch
100
AcDbLine
 10
168.8906060358869
 20
108.516776434779
 30
0.0
 11
168.8906060358869
 21
115.4190094298177
 31
0.0
  0
LINE
  5
14A
330
69F
100
AcDbEntity
  8
Hatch
100
AcDbLine
 10
172.779280281401
 20
79.75649451545435
 30
0.0
 11
172.779280281401
 21
85.80576050819187
 31
0.0
  0
LINE
  5
14B
330
69F
100
AcDbEntity
  8
Hatch
100
AcDbLine
 10
240.2615964195556
 20
80.62293414138625
 30
0.0
 11
240.2615964195556
 21
116.7976969263242
 31
0.0
  0
LINE
  5
14C
330
69F
100
AcDbEntity
  8
Hatch
100
AcDbLine
 10
244.1502706650697
 20
82.8680612638246
 30
0.0
 11
244.1502706650697
 21
90.05188128980778
 31
0.0
  0
LINE
  5
14D
330
69F
100
AcDbEntity
  8
Hatch
100
AcDbLine
 10
224.7068994374991
 20
71.64242565163285
 30
0.0
 11
224.7068994374991
 21
86.87987320222287
 31
0.0
  0
LINE
  5
14E
330
69F
100
AcDbEntity
  8
Hatch
100
AcDbLine
 10
224.7068994374991
 20
110.5407578654876
 30
0.0
 11
224.7068994374991
 21
125.7782054160776
 31
0.0
  0
LINE
  5
14F
330
69F
100
AcDbEntity
  8
Hatch
100
AcDbLine
 10
176.6679545269152
 20
113.7704355143727
 30
0.0
 11
176.6679545269152
 21
119.9092636746944
 31
0.0
  0
LINE
  5
150
330
69F
100
AcDbEntity
  8
Hatch
100
AcDbLine
 10
176.6679545269152
 20
125.5127163185567
 30
0.0
 11
176.6679545269152
 21
128.9095165982334
 31
0.0
  0
LINE
  5
151
330
69F
100
AcDbEntity
  8
Hatch
100
AcDbLine
 10
232.4842479285274
 20
76.13267989650954
 30
0.0
 11
232.4842479285274
 21
121.2879511712009
 31
0.0
  0
LINE
  5
152
330
69F
100
AcDbEntity
  8
Hatch
100
AcDbLine
 10
236.3729221740415
 20
78.37780701894789
 30
0.0
 11
236.3729221740415
 21
119.0428240487626
 31
0.0
  0
LINE
  5
153
330
69F
100
AcDbEntity
  8
Hatch
100
AcDbLine
 10
180.5566287724293
 20
115.3538036193791
 30
0.0
 11
180.5566287724293
 21
122.1543907971328
 31
0.0
  0
LINE
  5
154
330
69F
100
AcDbEntity
  8
Hatch
100
AcDbLine
 10
180.5566287724293
 20
123.2675891961184
 30
0.0
 11
180.5566287724293
 21
131.1546437206717
 31
0.0
  0
LINE
  5
155
330
69F
100
AcDbEntity
  8
Hatch
100
AcDbLine
 10
176.6679545269152
 20
68.5111144694771
 30
0.0
 11
176.6679545269152
 21
71.90791474915373
 31
0.0
  0
LINE
  5
156
330
69F
100
AcDbEntity
  8
Hatch
100
AcDbLine
 10
176.6679545269152
 20
77.51136739301599
 30
0.0
 11
176.6679545269152
 21
83.65019555333772
 31
0.0
  0
LINE
  5
157
330
69F
100
AcDbEntity
  8
Hatch
100
AcDbLine
 10
188.3339772634576
 20
61.77573310216205
 30
0.0
 11
188.3339772634576
 21
80.07810996048548
 31
0.0
  0
LINE
  5
158
330
69F
100
AcDbEntity
  8
Hatch
100
AcDbLine
 10
188.3339772634576
 20
117.342521107225
 30
0.0
 11
188.3339772634576
 21
135.6448979655484
 31
0.0
  0
LINE
  5
159
330
69F
100
AcDbEntity
  8
Hatch
100
AcDbLine
 10
180.5566287724293
 20
66.26598734703876
 30
0.0
 11
180.5566287724293
 21
74.15304187159208
 31
0.0
  0
LINE
  5
15A
330
69F
100
AcDbEntity
  8
Hatch
100
AcDbLine
 10
180.5566287724293
 20
75.26624027057764
 30
0.0
 11
180.5566287724293
 21
82.06682744833134
 31
0.0
  0
LINE
  5
15B
330
69F
100
AcDbEntity
  8
Hatch
100
AcDbLine
 10
259.7049676471263
 20
91.11937764088003
 30
0.0
 11
259.7049676471263
 21
96.44770923161782
 31
0.0
  0
LINE
  5
15C
330
69F
100
AcDbEntity
  8
Hatch
100
AcDbLine
 10
259.7049676471263
 20
100.9729218360927
 30
0.0
 11
259.7049676471263
 21
106.3012534268305
 31
0.0
  0
LINE
  5
15D
330
69F
100
AcDbEntity
  8
Hatch
100
AcDbLine
 10
263.5936418926404
 20
92.00508452953585
 30
0.0
 11
263.5936418926404
 21
105.4155465381747
 31
0.0
  0
LINE
  5
15E
330
69F
100
AcDbEntity
  8
Hatch
100
AcDbLine
 10
248.0389449105839
 20
110.1138909516488
 30
0.0
 11
248.0389449105839
 21
112.3074426814475
 31
0.0
  0
LINE
  5
15F
330
69F
100
AcDbEntity
  8
Hatch
100
AcDbLine
 10
213.0408767009567
 20
68.01177416469731
 30
0.0
 11
213.0408767009567
 21
81.31800727859707
 31
0.0
  0
LINE
  5
160
330
69F
100
AcDbEntity
  8
Hatch
100
AcDbLine
 10
213.0408767009567
 20
116.1026237891134
 30
0.0
 11
213.0408767009567
 21
129.9088709543209
 31
0.0
  0
LINE
  5
161
330
69F
100
AcDbEntity
  8
Hatch
100
AcDbLine
 10
267.4823161381546
 20
93.99685438988168
 30
0.0
 11
267.4823161381546
 21
103.4237766778288
 31
0.0
  0
LINE
  5
162
330
69F
100
AcDbEntity
  8
Hatch
100
AcDbLine
 10
255.8162934016122
 20
101.4852769679708
 30
0.0
 11
255.8162934016122
 21
106.4887087139566
 31
0.0
  0
LINE
  5
163
330
69F
100
AcDbEntity
  8
Hatch
100
AcDbLine
 10
220.8182251919849
 20
69.39729852919449
 30
0.0
 11
220.8182251919849
 21
84.41982110870757
 31
0.0
  0
LINE
  5
164
330
69F
100
AcDbEntity
  8
Hatch
100
AcDbLine
 10
220.8182251919849
 20
113.0008099590029
 30
0.0
 11
220.8182251919849
 21
128.023332538516
 31
0.0
  0
LINE
  5
165
330
69F
100
AcDbEntity
  8
Hatch
100
AcDbLine
 10
209.1522024554425
 20
70.25690128713568
 30
0.0
 11
209.1522024554425
 21
80.36616996030592
 31
0.0
  0
LINE
  5
166
330
69F
100
AcDbEntity
  8
Hatch
100
AcDbLine
 10
209.1522024554425
 20
117.0544611074045
 30
0.0
 11
209.1522024554426
 21
127.6637438318825
 31
0.0
  0
LINE
  5
167
330
69F
100
AcDbEntity
  8
Hatch
100
AcDbLine
 10
228.5955736830133
 20
73.88755277407124
 30
0.0
 11
228.5955736830132
 21
90.60974092354736
 31
0.0
  0
LINE
  5
168
330
69F
100
AcDbEntity
  8
Hatch
100
AcDbLine
 10
228.5955736830132
 20
106.8108901441632
 30
0.0
 11
228.5955736830132
 21
123.5330782936393
 31
0.0
  0
LINE
  5
169
330
69F
100
AcDbEntity
  8
Hatch
100
AcDbLine
 10
216.9295509464708
 20
67.15217140675614
 30
0.0
 11
216.9295509464708
 21
82.63561788579798
 31
0.0
  0
LINE
  5
16A
330
69F
100
AcDbEntity
  8
Hatch
100
AcDbLine
 10
216.9295509464708
 20
114.7850131819125
 30
0.0
 11
216.9295509464708
 21
130.2684596609543
 31
0.0
  0
LINE
  5
16B
330
69F
100
AcDbEntity
  8
Hatch
100
AcDbLine
 10
266.1074621737403
 20
93.10587356105663
 30
0.0
 11
266.1074621737403
 21
104.3147575066539
 31
0.0
  0
LINE
  5
16C
330
69F
100
AcDbEntity
  8
Hatch
100
AcDbLine
 10
269.9961364192544
 20
97.24422862046302
 30
0.0
 11
269.9961364192544
 21
100.1764024472475
 31
0.0
  0
LINE
  5
16D
330
69F
100
AcDbEntity
  8
Hatch
100
AcDbLine
 10
150.8220887727305
 20
92.43348494363346
 30
0.0
 11
150.8220887727305
 21
104.987146124077
 31
0.0
  0
LINE
  5
16E
330
69F
100
AcDbEntity
  8
Screw
100
AcDbLine
 10
260.8466805464469
 20
64.86316960316842
 30
0.0
 11
260.9472339514663
 21
58.41493443137483
 31
0.0
  0
DIMENSION
  5
16F
330
69F
100
AcDbEntity
  8
Measurements
100
AcDbDimension
280
     0
 10
47.29304168510819
 20
192.2633075009809
 30
0.0
 11
38.18904187733484
 21
185.8109581226487
 31
0.0
 70
    33
 71
     5
 42
-1.0
 73
     0
 74
     0
 75
     0
  3
QCADDimStyle
100
AcDbAlignedDimension
 13
61.33704909609782
 23
178.2193000900063
 33
0.0
 14
45.78069991000208
 24
162.6629509038939
 34
0.0
1001
ACAD
1000
DSTYLE
1002
{
1070
   279
1070
     2
1070
    41
1040
2.5
1070
    79
1070
     2
1070
   176
1070
     0
1070
   177
1070
     0
1070
   178
1070
     0
1070
    44
1040
1.25
1070
    42
1040
0.625
1070
   147
1040
0.625
1070
   140
1040
2.5
1070
    78
1070
     8
1002
}
  0
DIMENSION
  5
170
330
69F
100
AcDbEntity
  8
Measurements
100
AcDbDimension
280
     0
 10
31.73669249901244
 20
174.4411254969543
 30
0.0
 11
29.86169249901244
 21
170.4411254969543
 31
0.0
 70
    33
  1
<>
 71
     5
 42
-1.0
 73
     0
 74
     0
 75
     0
  3
QCADDimStyle
100
AcDbAlignedDimension
 13
53.55887450304573
 23
174.4411254969543
 33
0.0
 14
53.55887450304573
 24
166.4411254969543
 34
0.0
1001
ACAD
1000
DSTYLE
1002
{
1070
   279
1070
     2
1070
    41
1040
2.5
1070
    79
1070
     2
1070
   176
1070
     0
1070
   177
1070
     0
1070
   178
1070
     0
1070
    44
1040
1.25
1070
    42
1040
0.625
1070
   147
1040
0.625
1070
   140
1040
2.5
1070
    78
1070
     8
1002
}
  0
DIMENSION
  5
172
330
69F
100
AcDbEntity
  8
Measurements
100
AcDbDimension
280
     0
 10
127.65
 20
107.65
 30
0.0
 11
120.6741747852752
 21
103.3258252147248
 31
0.0
 70
    33
  1
<>
 71
     5
 42
-1.0
 73
     0
 74
     0
 75
     0
  3
QCADDimStyle
100
AcDbAlignedDimension
 13
121.0
 23
114.3
 33
0.0
 14
109.7
 24
103.0
 34
0.0
1001
ACAD
1000
DSTYLE
1002
{
1070
   279
1070
     2
1070
    41
1040
2.5
1070
    79
1070
     2
1070
   176
1070
     0
1070
   177
1070
     0
1070
   178
1070
     0
1070
    44
1040
1.25
1070
    42
1040
0.625
1070
   147
1040
0.625
1070
   140
1040
2.5
1070
    78
1070
     8
1002
}
  0
DIMENSION
  5
173
330
69F
100
AcDbEntity
  8
Measurements
100
AcDbDimension
280
     0
 10
70.0
 20
186.3986254481931
 30
0.0
 11
90.0
 21
188.2736254481931
 31
0.0
 70
    33
 71
     5
 42
-1.0
 73
     0
 74
     0
 75
     0
  3
QCADDimStyle
100
AcDbAlignedDimension
 13
70.0
 23
179.0
 33
0.0
 14
110.0
 24
179.0
 34
0.0
1001
ACAD
1000
DSTYLE
1002
{
1070
   279
1070
     2
1070
    41
1040
2.5
1070
    79
1070
     2
1070
   176
1070
     0
1070
   177
1070
     0
1070
   178
1070
     0
1070
    44
1040
1.25
1070
    42
1040
0.625
1070
   147
1040
0.625
1070
   140
1040
2.5
1070
    78
1070
     8
1002
}
  0
DIMENSION
  5
174
330
69F
100
AcDbEntity
  8
Measurements
100
AcDbDimension
280
     0
 10
137.0863342781037
 20
151.0
 30
0.0
 11
135.2113342781037
 21
160.5
 31
0.0
 70
    33
 71
     5
 42
-1.0
 73
     0
 74
     0
 75
     0
  3
QCADDimStyle
100
AcDbAlignedDimension
 13
130.0
 23
151.0
 33
0.0
 14
130.0
 24
170.0
 34
0.0
1001
ACAD
1000
DSTYLE
1002
{
1070
   279
1070
     2
1070
    41
1040
2.5
1070
    79
1070
     2
1070
   176
1070
     0
1070
   177
1070
     0
1070
   178
1070
     0
1070
    44
1040
1.25
1070
    42
1040
0.625
1070
   147
1040
0.625
1070
   140
1040
2.5
1070
    78
1070
     8
1002
}
  0
DIMENSION
  5
175
330
69F
100
AcDbEntity
  8
Measurements
100
AcDbDimension
280
     0
 10
73.0
 20
85.5312574613944
 30
0.0
 11
63.5
 21
87.4062574613944
 31
0.0
 70
    33
 71
     5
 42
-1.0
 73
     0
 74
     0
 75
     0
  3
QCADDimStyle
100
AcDbAlignedDimension
 13
73.0
 23
94.0
 33
0.0
 14
54.0
 24
94.0
 34
0.0
1001
ACAD
1000
DSTYLE
1002
{
1070
   279
1070
     2
1070
    41
1040
2.5
1070
    79
1070
     2
1070
   176
1070
     0
1070
   177
1070
     0
1070
   178
1070
     0
1070
    44
1040
1.25
1070
    42
1040
0.625
1070
   147
1040
0.625
1070
   140
1040
2.5
1070
    78
1070
     8
1002
}
  0
DIMENSION
  5
176
330
69F
100
AcDbEntity
  8
Measurements
100
AcDbDimension
280
     0
 10
37.18328147282322
 20
114.5
 30
0.0
 11
35.30828147282322
 21
134.5
 31
0.0
 70
    33
 71
     5
 42
-1.0
 73
     0
 74
     0
 75
     0
  3
QCADDimStyle
100
AcDbAlignedDimension
 13
45.0
 23
114.5
 33
0.0
 14
45.0
 24
154.5
 34
0.0
1001
ACAD
1000
DSTYLE
1002
{
1070
   279
1070
     2
1070
    41
1040
2.5
1070
    79
1070
     2
1070
   176
1070
     0
1070
   177
1070
     0
1070
   178
1070
     0
1070
    44
1040
1.25
1070
    42
1040
0.625
1070
   147
1040
0.625
1070
   140
1040
2.5
1070
    78
1070
     8
1002
}
  0
DIMENSION
  5
177
330
69F
100
AcDbEntity
  8
Measurements
100
AcDbDimension
280
     0
 10
36.99041843651965
 20
114.5
 30
0.0
 11
35.11541843651965
 21
104.25
 31
0.0
 70
    32
 71
     5
 42
-1.0
 73
     0
 74
     0
 75
     0
  3
QCADDimStyle
100
AcDbAlignedDimension
 13
54.0
 23
114.5
 33
0.0
 14
54.0
 24
94.0
 34
0.0
 50
90.0
100
AcDbRotatedDimension
1001
ACAD
1000
DSTYLE
1002
{
1070
   279
1070
     2
1070
    41
1040
2.5
1070
    79
1070
     2
1070
   176
1070
     0
1070
   177
1070
     0
1070
   178
1070
     0
1070
    44
1040
1.25
1070
    42
1040
0.625
1070
   147
1040
0.625
1070
   140
1040
2.5
1070
    78
1070
     8
1002
}
  0
DIMENSION
  5
178
330
69F
100
AcDbEntity
  8
Measurements
100
AcDbDimension
280
     0
 10
136.9706164563216
 20
151.0
 30
0.0
 11
135.0956164563216
 21
127.0
 31
0.0
 70
    32
 71
     5
 42
-1.0
 73
     0
 74
     0
 75
     0
  3
QCADDimStyle
100
AcDbAlignedDimension
 13
130.0
 23
151.0
 33
0.0
 14
109.7
 24
103.0
 34
0.0
 50
90.0
100
AcDbRotatedDimension
1001
ACAD
1000
DSTYLE
1002
{
1070
   279
1070
     2
1070
    41
1040
2.5
1070
    79
1070
     2
1070
   176
1070
     0
1070
   177
1070
     0
1070
   178
1070
     0
1070
    44
1040
1.25
1070
    42
1040
0.625
1070
   147
1040
0.625
1070
   140
1040
2.5
1070
    78
1070
     8
1002
}
  0
DIMENSION
  5
179
330
69F
100
AcDbEntity
  8
Measurements
100
AcDbDimension
280
     0
 10
73.0
 20
85.72412049769798
 30
0.0
 11
97.0
 21
87.59912049769798
 31
0.0
 70
    32
 71
     5
 42
-1.0
 73
     0
 74
     0
 75
     0
  3
QCADDimStyle
100
AcDbAlignedDimension
 13
73.0
 23
94.0
 33
0.0
 14
121.0
 24
114.3
 34
0.0
100
AcDbRotatedDimension
1001
ACAD
1000
DSTYLE
1002
{
1070
   279
1070
     2
1070
    41
1040
2.5
1070
    79
1070
     2
1070
   176
1070
     0
1070
   177
1070
     0
1070
   178
1070
     0
1070
    44
1040
1.25
1070
    42
1040
0.625
1070
   147
1040
0.625
1070
   140
1040
2.5
1070
    78
1070
     8
1002
}
  0
LINE
  5
17A
330
69F
100
AcDbEntity
  8
Screw
100
AcDbLine
 10
259.7595661450777
 20
70.44180594249157
 30
0.0
 11
259.8412206676593
 21
65.20550823238254
 31
0.0
  0
LWPOLYLINE
  5
17B
330
69F
100
AcDbEntity
  8
Comments
  6
ACAD_ISO02W100
370
    13
100
AcDbPolyline
 90
        2
 70
   128
 43
0.0
 10
257.0
 20
137.0
 10
256.7350862278028
 20
70.59493094169653
  0
LINE
  5
2A5
330
69F
100
AcDbEntity
  8
Comments
100
AcDbLine
 10
168.5191831683168
 20
127.9121287128713
 30
0.0
 11
168.0563118811881
 21
127.9121287128713
 31
0.0
  0
LINE
  5
17C
330
69F
100
AcDbEntity
  8
Comments
100
AcDbLine
 10
168.0563118811881
 20
127.9121287128713
 30
0.0
 11
167.8248762376238
 21
128.375
 31
0.0
  0
LINE
  5
17D
330
69F
100
AcDbEntity
  8
Comments
100
AcDbLine
 10
167.8248762376238
 20
128.375
 30
0.0
 11
167.362004950495
 21
129.0693069306931
 31
0.0
  0
LINE
  5
17E
330
69F
100
AcDbEntity
  8
Comments
100
AcDbLine
 10
167.362004950495
 20
129.0693069306931
 30
0.0
 11
166.8991336633663
 21
129.3007425742574
 31
0.0
  0
LINE
  5
17F
330
69F
100
AcDbEntity
  8
Comments
100
AcDbLine
 10
166.8991336633663
 20
129.3007425742574
 30
0.0
 11
166.667698019802
 21
129.7636138613861
 31
0.0
  0
LINE
  5
180
330
69F
100
AcDbEntity
  8
Comments
100
AcDbLine
 10
166.667698019802
 20
129.7636138613861
 30
0.0
 11
166.4362623762376
 21
129.9950495049505
 31
0.0
  0
LINE
  5
181
330
69F
100
AcDbEntity
  8
Comments
100
AcDbLine
 10
166.4362623762376
 20
129.9950495049505
 30
0.0
 11
166.4362623762376
 21
130.4579207920792
 31
0.0
  0
LINE
  5
182
330
69F
100
AcDbEntity
  8
Comments
100
AcDbLine
 10
166.4362623762376
 20
130.4579207920792
 30
0.0
 11
166.2048267326733
 21
130.6893564356436
 31
0.0
  0
LINE
  5
183
330
69F
100
AcDbEntity
  8
Comments
100
AcDbLine
 10
166.2048267326733
 20
130.6893564356436
 30
0.0
 11
166.2048267326733
 21
131.1522277227723
 31
0.0
  0
LINE
  5
184
330
69F
100
AcDbEntity
  8
Comments
100
AcDbLine
 10
166.2048267326733
 20
131.1522277227723
 30
0.0
 11
166.2048267326733
 21
131.3836633663366
 31
0.0
  0
LINE
  5
185
330
69F
100
AcDbEntity
  8
Comments
100
AcDbLine
 10
166.2048267326733
 20
131.3836633663366
 30
0.0
 11
166.2048267326733
 21
131.8465346534653
 31
0.0
  0
LINE
  5
186
330
69F
100
AcDbEntity
  8
Comments
100
AcDbLine
 10
166.2048267326733
 20
131.8465346534653
 30
0.0
 11
166.2048267326733
 21
132.0779702970297
 31
0.0
  0
LINE
  5
187
330
69F
100
AcDbEntity
  8
Comments
100
AcDbLine
 10
166.2048267326733
 20
132.0779702970297
 30
0.0
 11
166.2048267326733
 21
132.7722772277228
 31
0.0
  0
LINE
  5
188
330
69F
100
AcDbEntity
  8
Comments
100
AcDbLine
 10
166.2048267326733
 20
132.7722772277228
 30
0.0
 11
166.2048267326733
 21
133.2351485148515
 31
0.0
  0
LINE
  5
189
330
69F
100
AcDbEntity
  8
Comments
100
AcDbLine
 10
166.2048267326733
 20
133.2351485148515
 30
0.0
 11
166.4362623762376
 21
133.6980198019802
 31
0.0
  0
LINE
  5
18A
330
69F
100
AcDbEntity
  8
Comments
100
AcDbLine
 10
166.4362623762376
 20
133.6980198019802
 30
0.0
 11
166.667698019802
 21
134.3923267326733
 31
0.0
  0
LINE
  5
18B
330
69F
100
AcDbEntity
  8
Comments
100
AcDbLine
 10
166.667698019802
 20
134.3923267326733
 30
0.0
 11
166.8991336633663
 21
134.6237623762376
 31
0.0
  0
LINE
  5
18C
330
69F
100
AcDbEntity
  8
Comments
100
AcDbLine
 10
166.8991336633663
 20
134.6237623762376
 30
0.0
 11
167.362004950495
 21
135.0866336633663
 31
0.0
  0
LINE
  5
18D
330
69F
100
AcDbEntity
  8
Comments
100
AcDbLine
 10
167.362004950495
 20
135.0866336633663
 30
0.0
 11
167.362004950495
 21
135.0866336633663
 31
0.0
  0
LINE
  5
18E
330
69F
100
AcDbEntity
  8
Comments
100
AcDbLine
 10
167.362004950495
 20
135.0866336633663
 30
0.0
 11
167.8248762376238
 21
135.3180693069307
 31
0.0
  0
LINE
  5
18F
330
69F
100
AcDbEntity
  8
Comments
100
AcDbLine
 10
167.8248762376238
 20
135.3180693069307
 30
0.0
 11
168.0563118811881
 21
135.3180693069307
 31
0.0
  0
LINE
  5
190
330
69F
100
AcDbEntity
  8
Comments
100
AcDbLine
 10
168.0563118811881
 20
135.3180693069307
 30
0.0
 11
168.0563118811881
 21
135.7809405940594
 31
0.0
  0
LINE
  5
191
330
69F
100
AcDbEntity
  8
Comments
100
AcDbLine
 10
168.0563118811881
 20
135.7809405940594
 30
0.0
 11
168.2877475247525
 21
135.7809405940594
 31
0.0
  0
LINE
  5
192
330
69F
100
AcDbEntity
  8
Comments
100
AcDbLine
 10
168.2877475247525
 20
135.7809405940594
 30
0.0
 11
168.2877475247525
 21
136.0123762376238
 31
0.0
  0
LINE
  5
193
330
69F
100
AcDbEntity
  8
Comments
100
AcDbLine
 10
168.2877475247525
 20
136.0123762376238
 30
0.0
 11
168.5191831683168
 21
136.0123762376238
 31
0.0
  0
LINE
  5
194
330
69F
100
AcDbEntity
  8
Comments
100
AcDbLine
 10
167.8248762376238
 20
135.549504950495
 30
0.0
 11
167.362004950495
 21
135.549504950495
 31
0.0
  0
LINE
  5
195
330
69F
100
AcDbEntity
  8
Comments
100
AcDbLine
 10
167.362004950495
 20
135.549504950495
 30
0.0
 11
167.1305693069307
 21
135.3180693069307
 31
0.0
  0
LINE
  5
196
330
69F
100
AcDbEntity
  8
Comments
100
AcDbLine
 10
167.1305693069307
 20
135.3180693069307
 30
0.0
 11
166.667698019802
 21
135.3180693069307
 31
0.0
  0
LINE
  5
197
330
69F
100
AcDbEntity
  8
Comments
100
AcDbLine
 10
166.667698019802
 20
135.3180693069307
 30
0.0
 11
166.4362623762376
 21
135.3180693069307
 31
0.0
  0
LINE
  5
198
330
69F
100
AcDbEntity
  8
Comments
100
AcDbLine
 10
166.4362623762376
 20
135.3180693069307
 30
0.0
 11
166.4362623762376
 21
135.0866336633663
 31
0.0
  0
LINE
  5
199
330
69F
100
AcDbEntity
  8
Comments
100
AcDbLine
 10
166.4362623762376
 20
135.0866336633663
 30
0.0
 11
165.9733910891089
 21
135.0866336633663
 31
0.0
  0
LINE
  5
19A
330
69F
100
AcDbEntity
  8
Comments
100
AcDbLine
 10
165.9733910891089
 20
135.0866336633663
 30
0.0
 11
165.7419554455446
 21
134.855198019802
 31
0.0
  0
LINE
  5
19B
330
69F
100
AcDbEntity
  8
Comments
100
AcDbLine
 10
165.7419554455446
 20
134.855198019802
 30
0.0
 11
165.5105198019802
 21
134.855198019802
 31
0.0
  0
LINE
  5
19C
330
69F
100
AcDbEntity
  8
Comments
100
AcDbLine
 10
168.5191831683168
 20
134.855198019802
 30
0.0
 11
168.5191831683168
 21
134.6237623762376
 31
0.0
  0
LINE
  5
19D
330
69F
100
AcDbEntity
  8
Comments
100
AcDbLine
 10
168.5191831683168
 20
134.6237623762376
 30
0.0
 11
168.5191831683168
 21
134.1608910891089
 31
0.0
  0
LINE
  5
19E
330
69F
100
AcDbEntity
  8
Comments
100
AcDbLine
 10
168.5191831683168
 20
134.1608910891089
 30
0.0
 11
168.5191831683168
 21
133.6980198019802
 31
0.0
  0
LINE
  5
19F
330
69F
100
AcDbEntity
  8
Comments
100
AcDbLine
 10
168.5191831683168
 20
133.6980198019802
 30
0.0
 11
168.5191831683168
 21
133.2351485148515
 31
0.0
  0
LINE
  5
1A0
330
69F
100
AcDbEntity
  8
Comments
100
AcDbLine
 10
168.5191831683168
 20
133.2351485148515
 30
0.0
 11
168.5191831683168
 21
133.0037128712871
 31
0.0
  0
LINE
  5
1A1
330
69F
100
AcDbEntity
  8
Comments
100
AcDbLine
 10
168.5191831683168
 20
133.0037128712871
 30
0.0
 11
168.5191831683168
 21
133.0037128712871
 31
0.0
  0
LINE
  5
1A2
330
69F
100
AcDbEntity
  8
Comments
100
AcDbLine
 10
168.5191831683168
 20
133.0037128712871
 30
0.0
 11
168.2877475247525
 21
132.7722772277228
 31
0.0
  0
LINE
  5
1A3
330
69F
100
AcDbEntity
  8
Comments
100
AcDbLine
 10
168.2877475247525
 20
132.7722772277228
 30
0.0
 11
168.5191831683168
 21
132.7722772277228
 31
0.0
  0
MTEXT
  5
1A4
330
69F
100
AcDbEntity
  8
Comments
100
AcDbMText
 10
162.7332920792079
 20
139.7153465346535
 30
0.0
 40
1.0
 41
0.0
 46
0.0
 71
     1
 72
     1
  1
\H2;Hochbiegen 90 Grad
  7
textstyle7
 73
     1
 44
1.0
  0
HATCH
  5
588
330
69F
100
AcDbEntity
  8
Hatch
100
AcDbHatch
 10
0.0
 20
0.0
 30
0.0
210
0.0
220
0.0
230
1.0
  2
STEEL
 70
     0
 71
     0
 91
        3
 92
        0
 93
       22
 72
     1
 10
70.0
 20
182.0
 11
70.0
 21
170.0
 72
     1
 10
70.0
 20
170.0
 11
68.5
 21
170.0
 72
     1
 10
68.5
 20
170.0
 11
68.5
 21
171.056349186104
 72
     1
 10
68.5
 20
171.056349186104
 11
61.3370490960978
 21
178.2193000900063
 72
     2
 10
53.55887450304573
 20
170.4411254969543
 40
11.0
 50
45.0
 51
225.0
 73
     1
 72
     1
 10
45.78069990999371
 20
162.6629509039023
 11
52.5
 21
156.0
 72
     1
 10
52.5
 20
156.0
 11
54.0
 21
156.0
 72
     1
 10
54.0
 20
156.0
 11
54.0
 21
154.5
 72
     1
 10
54.0
 20
154.5
 11
42.0
 21
154.5
 72
     1
 10
42.0
 20
154.5
 11
42.0
 21
114.5
 72
     1
 10
42.0
 20
114.5
 11
54.0
 21
114.5
 72
     1
 10
54.0
 20
114.5
 11
54.0
 21
91.0
 72
     1
 10
54.0
 20
91.0
 11
73.0
 21
91.0
 72
     1
 10
73.0
 20
91.0
 11
73.0
 21
103.0
 72
     1
 10
73.0
 20
103.0
 11
109.7
 21
103.0
 72
     1
 10
109.7
 20
103.0
 11
121.0
 21
114.3
 72
     1
 10
121.0
 20
114.3
 11
121.0
 21
151.0
 72
     1
 10
121.0
 20
151.0
 11
133.0
 21
151.0
 72
     1
 10
133.0
 20
151.0
 11
133.0
 21
170.0
 72
     1
 10
133.0
 20
170.0
 11
110.0
 21
170.0
 72
     1
 10
110.0
 20
170.0
 11
110.0
 21
182.0
 72
     1
 10
110.0
 20
182.0
 11
70.0
 21
182.0
 97
        0
 92
        0
 93
        1
 72
     2
 10
87.5
 20
136.5
 40
27.5
 50
0.0
 51
360.0
 73
     1
 97
        0
 92
        0
 93
        1
 72
     2
 10
53.55887450304573
 20
170.4411254969543
 40
4.0
 50
0.0
 51
360.0
 73
     1
 97
        0
 75
     0
 76
     0
 52
0.0
 41
1.0
 77
     0
 78
     2
 53
45.0
 43
0.0
 44
0.0
 45
-2.245064030267288
 46
2.245064030267288
 79
     0
 53
45.0
 43
0.0000000000000001
 44
1.5875
 45
-2.245064030267288
 46
2.245064030267288
 79
     0
 98
        0
  0
DIMENSION
  5
589
330
69F
100
AcDbEntity
  8
Measurements
100
AcDbDimension
280
     0
 10
107.34001146234
 20
170.0
 30
0.0
 11
105.46501146234
 21
176.0
 31
0.0
 70
    33
 71
     5
 42
-1.0
 73
     0
 74
     0
 75
     0
  3
QCADDimStyle
100
AcDbAlignedDimension
 13
110.0
 23
170.0
 33
0.0
 14
110.0
 24
182.0
 34
0.0
1001
ACAD
1000
DSTYLE
1002
{
1070
   279
1070
     2
1070
    41
1040
2.5
1070
    79
1070
     2
1070
   176
1070
     0
1070
   177
1070
     0
1070
   178
1070
     0
1070
    44
1040
1.25
1070
    42
1040
0.625
1070
   147
1040
0.625
1070
   140
1040
2.5
1070
    78
1070
     8
1002
}
  0
DIMENSION
  5
67F
330
69F
100
AcDbEntity
  8
Measurements
100
AcDbDimension
280
     0
 10
54.0
 20
62.64727722772278
 30
0.0
 11
87.5
 21
64.52227722772278
 31
0.0
 70
    32
 71
     5
 42
-1.0
 73
     0
 74
     0
 75
     0
  3
QCADDimStyle
100
AcDbAlignedDimension
 13
54.0
 23
103.0
 33
0.0
 14
121.0
 24
114.3
 34
0.0
100
AcDbRotatedDimension
1001
ACAD
1000
DSTYLE
1002
{
1070
   279
1070
     2
1070
    41
1040
2.5
1070
    79
1070
     2
1070
   176
1070
     0
1070
   177
1070
     0
1070
   178
1070
     0
1070
    44
1040
1.25
1070
    42
1040
0.625
1070
   147
1040
0.625
1070
   140
1040
2.5
1070
    78
1070
     8
1002
}
  0
DIMENSION
  5
680
330
69F
100
AcDbEntity
  8
Measurements
100
AcDbDimension
280
     0
 10
146.532797029703
 20
103.0
 30
0.0
 11
144.657797029703
 21
136.5
 31
0.0
 70
    32
 71
     5
 42
-1.0
 73
     0
 74
     0
 75
     0
  3
QCADDimStyle
100
AcDbAlignedDimension
 13
109.7
 23
103.0
 33
0.0
 14
121.0
 24
170.0
 34
0.0
 50
90.0
100
AcDbRotatedDimension
1001
ACAD
1000
DSTYLE
1002
{
1070
   279
1070
     2
1070
    41
1040
2.5
1070
    79
1070
     2
1070
   176
1070
     0
1070
   177
1070
     0
1070
   178
1070
     0
1070
    44
1040
1.25
1070
    42
1040
0.625
1070
   147
1040
0.625
1070
   140
1040
2.5
1070
    78
1070
     8
1002
}
  0
VIEWPORT
  5
778
330
774
100
AcDbEntity
 67
     1
  8
0
 62
   178
420
        0
100
AcDbViewport
 10
128.5
 20
97.5
 30
0.0
 40
314.226
 41
222.18
 68
     1
 69
     1
 12
128.5
 22
97.5
 13
0.0
 23
0.0
 14
10.0
 24
10.0
 15
10.0
 25
10.0
 16
0.0
 26
0.0
 36
1.0
 17
0.0
 27
0.0
 37
0.0
 42
50.0
 43
0.0
 44
0.0
 45
222.18
 50
0.0
 51
0.0
 72
   100
 90
   557152
  1

281
     0
 71
     1
 74
     0
110
0.0
120
0.0
130
0.0
111
1.0
121
0.0
131
0.0
112
0.0
122
1.0
132
0.0
 79
     0
146
0.0
170
     0
 61
     5
292
     1
282
     1
141
0.0
142
0.0
 63
   256
361
779
  0
ENDSEC
  0
SECTION
  2
OBJECTS
  0
DICTIONARY
  5
68D
330
0
100
AcDbDictionary
281
     1
  3
ACAD_DETAILVIEWSTYLE
350
789
  3
ACAD_GROUP
350
68E
  3
ACAD_LAYOUT
350
69A
  3
ACAD_MATERIAL
350
6C3
  3
ACAD_MLEADERSTYLE
350
6EB
  3
ACAD_MLINESTYLE
350
697
  3
ACAD_PLOTSETTINGS
350
699
  3
ACAD_PLOTSTYLENAME
350
68F
  3
ACAD_SCALELIST
350
6C7
  3
ACAD_SECTIONVIEWSTYLE
350
78A
  3
ACAD_TABLESTYLE
350
6E9
  3
ACAD_VISUALSTYLE
350
6AA
  3
AcDbVariableDictionary
350
782
  3
ACDB_RECOMPOSE_DATA
350
786
  3
QCAD_OBJECTS
350
6EF
  0
SUN
  5
6ED
330
6A9
100
AcDbSun
 90
        1
290
     0
 63
     7
421
 16777215
 40
1.0
291
     1
 91
  2455826
 92
 54000000
292
     0
 70
     2
 71
   256
280
     1
  0
SUN
  5
779
330
778
100
AcDbSun
 90
        1
290
     0
 63
     7
421
 16777215
 40
1.0
291
     1
 91
  2455826
 92
 54000000
292
     0
 70
     2
 71
   256
280
     1
  0
DICTIONARY
  5
789
102
{ACAD_REACTORS
330
68D
102
}
330
68D
100
AcDbDictionary
281
     1
  0
DICTIONARY
  5
68E
102
{ACAD_REACTORS
330
68D
102
}
330
68D
100
AcDbDictionary
281
     1
  0
DICTIONARY
  5
69A
102
{ACAD_REACTORS
330
68D
102
}
330
68D
100
AcDbDictionary
281
     1
  3
Layout1
350
69E
  3
Layout2
350
775
  3
Model
350
6A2
  0
DICTIONARY
  5
6C3
102
{ACAD_REACTORS
330
68D
102
}
330
68D
100
AcDbDictionary
281
     1
  3
ByBlock
350
6C5
  3
ByLayer
350
6C4
  3
Global
350
6C6
  0
DICTIONARY
  5
6EB
102
{ACAD_REACTORS
330
68D
102
}
330
68D
100
AcDbDictionary
281
     1
  3
Standard
350
6EC
  0
DICTIONARY
  5
697
102
{ACAD_REACTORS
330
68D
102
}
330
68D
100
AcDbDictionary
281
     1
  3
Standard
350
698
  0
DICTIONARY
  5
699
102
{ACAD_REACTORS
330
68D
102
}
330
68D
100
AcDbDictionary
281
     1
  0
ACDBDICTIONARYWDFLT
  5
68F
102
{ACAD_REACTORS
330
68D
102
}
330
68D
100
AcDbDictionary
281
     1
  3
Normal
350
690
100
AcDbDictionaryWithDefault
340
690
  0
DICTIONARY
  5
6C7
102
{ACAD_REACTORS
330
68D
102
}
330
68D
100
AcDbDictionary
281
     1
  3
A0
350
6C8
  3
A1
350
6C9
  3
A2
350
6CA
  3
A3
350
6CB
  3
A4
350
6CC
  3
A5
350
6CD
  3
A6
350
6CE
  3
A7
350
6CF
  3
A8
350
6D0
  3
A9
350
6D1
  3
B0
350
6D2
  3
B1
350
6D3
  3
B2
350
6D4
  3
B3
350
6D5
  3
B4
350
6D6
  3
B5
350
6D7
  3
B6
350
6D8
  3
B7
350
6D9
  3
B8
350
6DA
  3
B9
350
6DB
  3
C0
350
6DC
  3
C1
350
6DD
  3
C2
350
6DE
  3
C3
350
6DF
  3
C4
350
6E0
  3
C5
350
6E1
  3
C6
350
6E2
  3
C7
350
6E3
  3
C8
350
6E4
  3
C9
350
6E5
  3
D0
350
6E6
  3
D1
350
6E7
  3
D2
350
6E8
  0
DICTIONARY
  5
78A
102
{ACAD_REACTORS
330
68D
102
}
330
68D
100
AcDbDictionary
281
     1
  0
DICTIONARY
  5
6E9
102
{ACAD_REACTORS
330
68D
102
}
330
68D
100
AcDbDictionary
281
     1
  3
Standard
350
6EA
  0
DICTIONARY
  5
6AA
102
{ACAD_REACTORS
330
68D
102
}
330
68D
100
AcDbDictionary
281
     1
  3
2dWireframe
350
6AF
  3
Basic
350
6B2
  3
Brighten
350
6B6
  3
ColorChange
350
6BA
  3
Conceptual
350
6B4
  3
Dim
350
6B5
  3
EdgeColorOff
350
6BD
  3
Facepattern
350
6B9
  3
Flat
350
6AB
  3
FlatWithEdges
350
6AC
  3
Gouraud
350
6AD
  3
GouraudWithEdges
350
6AE
  3
Hidden
350
6B1
  3
JitterOff
350
6BB
  3
Linepattern
350
6B8
  3
OverhangOff
350
6BC
  3
Realistic
350
6B3
  3
Shaded
350
6C2
  3
Shaded with edges
350
6C1
  3
Shades of Gray
350
6BE
  3
Sketchy
350
6BF
  3
Thicken
350
6B7
  3
Wireframe
350
6B0
  3
X-Ray
350
6C0
  0
DICTIONARY
  5
782
102
{ACAD_REACTORS
330
68D
102
}
330
68D
100
AcDbDictionary
281
     1
  3
CANNOSCALE
350
783
  3
CMLEADERSTYLE
350
788
  3
CTABLESTYLE
350
787
  0
XRECORD
  5
786
102
{ACAD_REACTORS
330
68D
102
}
330
68D
100
AcDbXrecord
280
     1
 90
        1
330
6EA
  0
DICTIONARY
  5
6EF
102
{ACAD_REACTORS
330
68D
102
}
330
68D
100
AcDbDictionary
281
     1
  3
Cam/GCode/Configuration
350
6F1
  3
Cam/GCode/ConfigurationOptionsLayer
350
6F2
  3
Cam/GCode/EllipseSegments
350
6F3
  3
Cam/GCode/Feedrate
350
6F4
  3
Cam/GCode/IncrementalXYZ
350
6F5
  3
Cam/GCode/InnerBeforeOuter
350
6F6
  3
Cam/GCode/PathOptimization
350
6F7
  3
Cam/GCode/PathOrientation
350
6F8
  3
Cam/GCode/RampOff
350
6F9
  3
Cam/GCode/RampOffFactor
350
6FA
  3
Cam/GCode/RampOn
350
6FB
  3
Cam/GCode/RampOnFactor
350
6FC
  3
Cam/GCode/SplineSegments
350
6FD
  3
Cam/GCode/SplitFullCircles
350
6FE
  3
Cam/GCode/Tolerance
350
6FF
  3
Cam/GCode/ZClear
350
700
  3
Cam/GCode/ZCutting
350
701
  3
Cam/GCode/ZSafety
350
702
  3
CamExport/Config
350
703
  3
CamExport/GCode/Output
350
704
  3
ColorSettings/BackgroundColor
350
705
  3
ColorSettings/ColorMode
350
706
  3
Grid/DisplayGrid00
350
707
  3
Grid/DisplayGrid01
350
708
  3
Grid/DisplayGrid02
350
709
  3
Grid/DisplayGrid03
350
70A
  3
Grid/GridSpacingX00
350
70B
  3
Grid/GridSpacingX01
350
70C
  3
Grid/GridSpacingX02
350
70D
  3
Grid/GridSpacingX03
350
70E
  3
Grid/GridSpacingY00
350
70F
  3
Grid/GridSpacingY01
350
710
  3
Grid/GridSpacingY02
350
711
  3
Grid/GridSpacingY03
350
712
  3
Grid/IsometricGrid00
350
713
  3
Grid/IsometricGrid01
350
714
  3
Grid/IsometricGrid02
350
715
  3
Grid/IsometricGrid03
350
716
  3
Grid/IsometricProjection00
350
717
  3
Grid/IsometricProjection01
350
718
  3
Grid/IsometricProjection02
350
719
  3
Grid/IsometricProjection03
350
71A
  3
Grid/MetaGridSpacingX00
350
71B
  3
Grid/MetaGridSpacingX01
350
71C
  3
Grid/MetaGridSpacingX02
350
71D
  3
Grid/MetaGridSpacingX03
350
71E
  3
Grid/MetaGridSpacingY00
350
71F
  3
Grid/MetaGridSpacingY01
350
720
  3
Grid/MetaGridSpacingY02
350
721
  3
Grid/MetaGridSpacingY03
350
722
  3
MultiPageSettings/Columns
350
723
  3
MultiPageSettings/GlueMarginsBottom
350
724
  3
MultiPageSettings/GlueMarginsLeft
350
725
  3
MultiPageSettings/GlueMarginsRight
350
726
  3
MultiPageSettings/GlueMarginsTop
350
727
  3
MultiPageSettings/PrintCropMarks
350
728
  3
MultiPageSettings/Rows
350
729
  3
PageSettings/OffsetX
350
72A
  3
PageSettings/OffsetY
350
72B
  3
PageSettings/PageOrientation
350
72C
  3
PageSettings/PaperHeight
350
72D
  3
PageSettings/PaperWidth
350
72E
  3
PageSettings/Scale
350
72F
  3
PageSettings/ShowPaperBorders
350
730
  3
QCADVersion
350
731
  3
UnitSettings/PaperUnit
350
732
  3
ViewportCenter
350
733
  3
ViewportHeight
350
734
  3
ViewportWidth
350
735
  0
LAYOUT
  5
69E
102
{ACAD_REACTORS
330
69A
102
}
330
69A
100
AcDbPlotSettings
  1

  2
none_device
  4

  6

 40
0.0
 41
0.0
 42
0.0
 43
0.0
 44
0.0
 45
0.0
 46
0.0
 47
0.0
 48
0.0
 49
0.0
140
0.0
141
0.0
142
1.0
143
1.0
 70
   688
 72
     0
 73
     0
 74
     5
  7

 75
    16
 76
     0
 77
     2
 78
   300
147
1.0
148
0.0
149
0.0
100
AcDbLayout
  1
Layout1
 70
     1
 71
     1
 10
0.0
 20
0.0
 11
420.0
 21
297.0
 12
0.0
 22
0.0
 32
0.0
 14
1.000000000000000E+20
 24
1.000000000000000E+20
 34
1.000000000000000E+20
 15
-1.000000000000000E+20
 25
-1.000000000000000E+20
 35
-1.000000000000000E+20
146
0.0
 13
0.0
 23
0.0
 33
0.0
 16
1.0
 26
0.0
 36
0.0
 17
0.0
 27
1.0
 37
0.0
 76
     0
330
69B
  0
LAYOUT
  5
775
102
{ACAD_REACTORS
330
69A
102
}
330
69A
100
AcDbPlotSettings
  1

  2
none_device
  4
ISO_A4_(210.00_x_297.00_MM)
  6

 40
7.5
 41
20.0
 42
7.5
 43
20.0
 44
210.0
 45
297.0
 46
0.0
 47
0.0
 48
0.0
 49
0.0
140
0.0
141
0.0
142
1.0
143
1.0
 70
   688
 72
     1
 73
     1
 74
     5
  7

 75
    16
 76
     0
 77
     2
 78
   300
147
1.0
148
0.0
149
0.0
100
AcDbLayout
  1
Layout2
 70
     1
 71
     2
 10
0.0
 20
0.0
 11
420.0
 21
297.0
 12
0.0
 22
0.0
 32
0.0
 14
1.000000000000000E+20
 24
1.000000000000000E+20
 34
1.000000000000000E+20
 15
-1.000000000000000E+20
 25
-1.000000000000000E+20
 35
-1.000000000000000E+20
146
0.0
 13
0.0
 23
0.0
 33
0.0
 16
1.0
 26
0.0
 36
0.0
 17
0.0
 27
1.0
 37
0.0
 76
     0
330
774
331
778
  0
LAYOUT
  5
6A2
102
{ACAD_REACTORS
330
69A
102
}
330
69A
100
AcDbPlotSettings
  1

  2
none_device
  4
Letter_(8.50_x_11.00_Inches)
  6

 40
6.35
 41
6.35
 42
6.35000508
 43
6.35000508
 44
215.9
 45
279.4
 46
0.0
 47
0.0
 48
0.0
 49
0.0
140
0.0
141
0.0
142
1.0
143
1.0
 70
  1712
 72
     0
 73
     0
 74
     0
  7

 75
     0
 76
     0
 77
     2
 78
   300
147
1.0
148
0.0
149
0.0
100
AcDbLayout
  1
Model
 70
     1
 71
     0
 10
0.0
 20
0.0
 11
12.0
 21
9.0
 12
0.0
 22
0.0
 32
0.0
 14
1.000000000000000E+20
 24
1.000000000000000E+20
 34
1.000000000000000E+20
 15
-1.000000000000000E+20
 25
-1.000000000000000E+20
 35
-1.000000000000000E+20
146
0.0
 13
0.0
 23
0.0
 33
0.0
 16
1.0
 26
0.0
 36
0.0
 17
0.0
 27
1.0
 37
0.0
 76
     0
330
69F
331
6A9
  0
MATERIAL
  5
6C5
102
{ACAD_REACTORS
330
6C3
102
}
330
6C3
100
AcDbMaterial
  1
ByBlock
 72
     1
 94
      127
  0
MATERIAL
  5
6C4
102
{ACAD_REACTORS
330
6C3
102
}
330
6C3
100
AcDbMaterial
  1
ByLayer
 72
     1
 94
      127
  0
MATERIAL
  5
6C6
102
{ACAD_REACTORS
330
6C3
102
}
330
6C3
100
AcDbMaterial
  1
Global
 72
     1
 94
      127
  0
MLEADERSTYLE
  5
6EC
102
{ACAD_REACTORS
330
6EB
102
}
330
6EB
100
AcDbMLeaderStyle
179
     2
170
     2
171
     1
172
     0
 90
        2
 40
0.0
 41
0.0
173
     1
 91
-1056964608
340
694
 92
       -2
290
     1
 42
0.09
291
     1
 43
0.36
  3
Standard
341
0
 44
0.18
300

342
692
174
     1
178
     6
175
     1
176
     0
 93
-1056964608
 45
0.18
292
     0
297
     0
 46
0.18
343
0
 94
-1056964608
 47
1.0
 49
1.0
140
1.0
293
     1
141
0.0
294
     1
177
     0
142
1.0
295
     0
296
     0
143
0.125
271
     0
272
     9
273
     9
298
     0
  0
MLINESTYLE
  5
698
102
{ACAD_REACTORS
330
697
102
}
330
697
100
AcDbMlineStyle
  2
Standard
 70
     0
  3

 62
   256
 51
90.0
 52
90.0
 71
     2
 49
0.5
 62
   256
  6
BYLAYER
 49
-0.5
 62
   256
  6
BYLAYER
  0
ACDBPLACEHOLDER
  5
690
102
{ACAD_REACTORS
330
68F
102
}
330
68F
  0
SCALE
  5
6C8
102
{ACAD_REACTORS
330
6C7
102
}
330
6C7
100
AcDbScale
 70
     0
300
1:1
140
1.0
141
1.0
290
     1
  0
SCALE
  5
6C9
102
{ACAD_REACTORS
330
6C7
102
}
330
6C7
100
AcDbScale
 70
     0
300
1:2
140
1.0
141
2.0
290
     0
  0
SCALE
  5
6CA
102
{ACAD_REACTORS
330
6C7
102
}
330
6C7
100
AcDbScale
 70
     0
300
1:4
140
1.0
141
4.0
290
     0
  0
SCALE
  5
6CB
102
{ACAD_REACTORS
330
6C7
102
}
330
6C7
100
AcDbScale
 70
     0
300
1:5
140
1.0
141
5.0
290
     0
  0
SCALE
  5
6CC
102
{ACAD_REACTORS
330
6C7
102
}
330
6C7
100
AcDbScale
 70
     0
300
1:8
140
1.0
141
8.0
290
     0
  0
SCALE
  5
6CD
102
{ACAD_REACTORS
330
6C7
102
}
330
6C7
100
AcDbScale
 70
     0
300
1:10
140
1.0
141
10.0
290
     0
  0
SCALE
  5
6CE
102
{ACAD_REACTORS
330
6C7
102
}
330
6C7
100
AcDbScale
 70
     0
300
1:16
140
1.0
141
16.0
290
     0
  0
SCALE
  5
6CF
102
{ACAD_REACTORS
330
6C7
102
}
330
6C7
100
AcDbScale
 70
     0
300
1:20
140
1.0
141
20.0
290
     0
  0
SCALE
  5
6D0
102
{ACAD_REACTORS
330
6C7
102
}
330
6C7
100
AcDbScale
 70
     0
300
1:30
140
1.0
141
30.0
290
     0
  0
SCALE
  5
6D1
102
{ACAD_REACTORS
330
6C7
102
}
330
6C7
100
AcDbScale
 70
     0
300
1:40
140
1.0
141
40.0
290
     0
  0
SCALE
  5
6D2
102
{ACAD_REACTORS
330
6C7
102
}
330
6C7
100
AcDbScale
 70
     0
300
1:50
140
1.0
141
50.0
290
     0
  0
SCALE
  5
6D3
102
{ACAD_REACTORS
330
6C7
102
}
330
6C7
100
AcDbScale
 70
     0
300
1:100
140
1.0
141
100.0
290
     0
  0
SCALE
  5
6D4
102
{ACAD_REACTORS
330
6C7
102
}
330
6C7
100
AcDbScale
 70
     0
300
2:1
140
2.0
141
1.0
290
     0
  0
SCALE
  5
6D5
102
{ACAD_REACTORS
330
6C7
102
}
330
6C7
100
AcDbScale
 70
     0
300
4:1
140
4.0
141
1.0
290
     0
  0
SCALE
  5
6D6
102
{ACAD_REACTORS
330
6C7
102
}
330
6C7
100
AcDbScale
 70
     0
300
8:1
140
8.0
141
1.0
290
     0
  0
SCALE
  5
6D7
102
{ACAD_REACTORS
330
6C7
102
}
330
6C7
100
AcDbScale
 70
     0
300
10:1
140
10.0
141
1.0
290
     0
  0
SCALE
  5
6D8
102
{ACAD_REACTORS
330
6C7
102
}
330
6C7
100
AcDbScale
 70
     0
300
100:1
140
100.0
141
1.0
290
     0
  0
SCALE
  5
6D9
102
{ACAD_REACTORS
330
6C7
102
}
330
6C7
100
AcDbScale
 70
     0
300
1/128" = 1'-0"
140
0.0078125
141
12.0
290
     0
  0
SCALE
  5
6DA
102
{ACAD_REACTORS
330
6C7
102
}
330
6C7
100
AcDbScale
 70
     0
300
1/64" = 1'-0"
140
0.015625
141
12.0
290
     0
  0
SCALE
  5
6DB
102
{ACAD_REACTORS
330
6C7
102
}
330
6C7
100
AcDbScale
 70
     0
300
1/32" = 1'-0"
140
0.03125
141
12.0
290
     0
  0
SCALE
  5
6DC
102
{ACAD_REACTORS
330
6C7
102
}
330
6C7
100
AcDbScale
 70
     0
300
1/16" = 1'-0"
140
0.0625
141
12.0
290
     0
  0
SCALE
  5
6DD
102
{ACAD_REACTORS
330
6C7
102
}
330
6C7
100
AcDbScale
 70
     0
300
3/32" = 1'-0"
140
0.09375
141
12.0
290
     0
  0
SCALE
  5
6DE
102
{ACAD_REACTORS
330
6C7
102
}
330
6C7
100
AcDbScale
 70
     0
300
1/8" = 1'-0"
140
0.125
141
12.0
290
     0
  0
SCALE
  5
6DF
102
{ACAD_REACTORS
330
6C7
102
}
330
6C7
100
AcDbScale
 70
     0
300
3/16" = 1'-0"
140
0.1875
141
12.0
290
     0
  0
SCALE
  5
6E0
102
{ACAD_REACTORS
330
6C7
102
}
330
6C7
100
AcDbScale
 70
     0
300
1/4" = 1'-0"
140
0.25
141
12.0
290
     0
  0
SCALE
  5
6E1
102
{ACAD_REACTORS
330
6C7
102
}
330
6C7
100
AcDbScale
 70
     0
300
3/8" = 1'-0"
140
0.375
141
12.0
290
     0
  0
SCALE
  5
6E2
102
{ACAD_REACTORS
330
6C7
102
}
330
6C7
100
AcDbScale
 70
     0
300
1/2" = 1'-0"
140
0.5
141
12.0
290
     0
  0
SCALE
  5
6E3
102
{ACAD_REACTORS
330
6C7
102
}
330
6C7
100
AcDbScale
 70
     0
300
3/4" = 1'-0"
140
0.75
141
12.0
290
     0
  0
SCALE
  5
6E4
102
{ACAD_REACTORS
330
6C7
102
}
330
6C7
100
AcDbScale
 70
     0
300
1" = 1'-0"
140
1.0
141
12.0
290
     0
  0
SCALE
  5
6E5
102
{ACAD_REACTORS
330
6C7
102
}
330
6C7
100
AcDbScale
 70
     0
300
1-1/2" = 1'-0"
140
1.5
141
12.0
290
     0
  0
SCALE
  5
6E6
102
{ACAD_REACTORS
330
6C7
102
}
330
6C7
100
AcDbScale
 70
     0
300
3" = 1'-0"
140
3.0
141
12.0
290
     0
  0
SCALE
  5
6E7
102
{ACAD_REACTORS
330
6C7
102
}
330
6C7
100
AcDbScale
 70
     0
300
6" = 1'-0"
140
6.0
141
12.0
290
     0
  0
SCALE
  5
6E8
102
{ACAD_REACTORS
330
6C7
102
}
330
6C7
100
AcDbScale
 70
     0
300
1'-0" = 1'-0"
140
12.0
141
12.0
290
     0
  0
TABLESTYLE
  5
6EA
102
{ACAD_REACTORS
330
6E9
102
}
102
{ACAD_XDICTIONARY
360
784
102
}
330
6E9
100
AcDbTableStyle
  3
Standard
 70
     0
 71
     0
 40
0.06
 41
0.06
280
     0
281
     0
  7
Standard
140
0.18
170
     2
 62
     0
 63
   257
283
     0
 90
        4
 91
        0
  1

274
    -2
284
     1
 64
     0
275
    -2
285
     1
 65
     0
276
    -2
286
     1
 66
     0
277
    -2
287
     1
 67
     0
278
    -2
288
     1
 68
     0
279
    -2
289
     1
 69
     0
  7
Standard
140
0.25
170
     5
 62
     0
 63
   257
283
     0
 90
        4
 91
        0
  1

274
    -2
284
     1
 64
     0
275
    -2
285
     1
 65
     0
276
    -2
286
     1
 66
     0
277
    -2
287
     1
 67
     0
278
    -2
288
     1
 68
     0
279
    -2
289
     1
 69
     0
  7
Standard
140
0.18
170
     5
 62
     0
 63
   257
283
     0
 90
        4
 91
        0
  1

274
    -2
284
     1
 64
     0
275
    -2
285
     1
 65
     0
276
    -2
286
     1
 66
     0
277
    -2
287
     1
 67
     0
278
    -2
288
     1
 68
     0
279
    -2
289
     1
 69
     0
  0
VISUALSTYLE
  5
6AF
102
{ACAD_REACTORS
330
6AA
102
}
330
6AA
100
AcDbVisualStyle
  2
2dWireframe
 70
     4
177
     3
291
     0
 70
    58
 90
        0
176
     1
 90
        2
176
     1
 90
        0
176
     1
 90
        0
176
     1
 40
0.6
176
     1
 40
30.0
176
     1
 62
     7
420
 16777215
176
     1
 90
        1
176
     1
 90
        4
176
     1
 62
     7
176
     1
 62
   257
176
     1
 90
        1
176
     1
 90
        1
176
     1
 40
1.0
176
     1
 90
        0
176
     1
 62
   257
176
     1
 40
1.0
176
     1
 90
        1
176
     1
 90
        6
176
     1
 90
        2
176
     1
 62
     7
176
     1
 90
        5
176
     1
 90
        0
176
     1
 90
        0
176
     1
290
     0
176
     1
 90
        1
176
     1
 40
0.0
176
     1
 90
        0
176
     1
290
     1
176
     1
290
     1
176
     1
290
     0
176
     1
290
     0
176
     1
290
     0
176
     1
290
     0
176
     1
290
     0
176
     1
290
     0
176
     1
290
     0
176
     1
 90
       50
176
     1
 40
0.0
176
     1
 40
1.0
176
     1
 90
        0
176
     1
 62
   178
420
        0
176
     1
 90
       50
176
     1
 90
        3
176
     1
 62
     5
420
      255
176
     1
290
     0
176
     1
 90
       50
176
     1
 90
       50
176
     1
 90
       50
176
     1
290
     0
176
     1
 90
       50
176
     1
 62
   256
176
     0
 40
1.0
176
     0
 90
        2
176
     1
  1
strokes_ogs.tif
176
     1
290
     0
176
     1
 40
1.0
176
     1
 40
1.0
176
     1
  0
VISUALSTYLE
  5
6B2
102
{ACAD_REACTORS
330
6AA
102
}
330
6AA
100
AcDbVisualStyle
  2
Basic
 70
     7
177
     3
291
     1
 70
    58
 90
        1
176
     1
 90
        0
176
     1
 90
        1
176
     1
 90
        0
176
     1
 40
0.6
176
     1
 40
30.0
176
     1
 62
     7
420
 16777215
176
     1
 90
        0
176
     1
 90
        4
176
     1
 62
     7
176
     1
 62
   257
176
     1
 90
        1
176
     1
 90
        1
176
     1
 40
1.0
176
     1
 90
        8
176
     1
 62
     7
176
     1
 40
1.0
176
     1
 90
        1
176
     1
 90
        6
176
     1
 90
        2
176
     1
 62
     7
176
     1
 90
        5
176
     1
 90
        0
176
     1
 90
        0
176
     1
290
     0
176
     1
 90
        1
176
     1
 40
0.0
176
     1
 90
        0
176
     1
290
     0
176
     1
290
     1
176
     1
290
     1
176
     1
290
     0
176
     1
290
     0
176
     1
290
     0
176
     1
290
     0
176
     1
290
     0
176
     1
290
     0
176
     1
 90
       50
176
     1
 40
0.0
176
     1
 40
1.0
176
     1
 90
        0
176
     1
 62
   178
420
        0
176
     1
 90
       50
176
     1
 90
        3
176
     1
 62
     5
420
      255
176
     1
290
     0
176
     1
 90
       50
176
     1
 90
       50
176
     1
 90
       50
176
     1
290
     0
176
     1
 90
       50
176
     1
 62
   256
176
     0
 40
1.0
176
     0
 90
        2
176
     1
  1
strokes_ogs.tif
176
     1
290
     0
176
     1
 40
1.0
176
     1
 40
1.0
176
     1
  0
VISUALSTYLE
  5
6B6
102
{ACAD_REACTORS
330
6AA
102
}
330
6AA
100
AcDbVisualStyle
  2
Brighten
 70
    12
177
     3
291
     1
 70
    58
 90
        2
176
     1
 90
        2
176
     1
 90
        0
176
     1
 90
        0
176
     1
 40
0.6
176
     1
 40
30.0
176
     1
 62
     7
420
 16777215
176
     1
 90
        1
176
     1
 90
        4
176
     1
 62
     7
176
     1
 62
   257
176
     1
 90
        1
176
     1
 90
        1
176
     1
 40
1.0
176
     1
 90
        8
176
     1
 62
     7
176
     1
 40
1.0
176
     1
 90
        1
176
     1
 90
        6
176
     1
 90
        2
176
     1
 62
     7
176
     1
 90
        5
176
     1
 90
        0
176
     1
 90
        0
176
     1
290
     0
176
     1
 90
        1
176
     1
 40
50.0
176
     1
 90
        0
176
     1
290
     0
176
     1
290
     1
176
     1
290
     1
176
     1
290
     0
176
     1
290
     0
176
     1
290
     0
176
     1
290
     0
176
     1
290
     0
176
     1
290
     0
176
     1
 90
       50
176
     1
 40
0.0
176
     1
 40
1.0
176
     1
 90
        0
176
     1
 62
   178
420
        0
176
     1
 90
       50
176
     1
 90
        3
176
     1
 62
     5
420
      255
176
     1
290
     0
176
     1
 90
       50
176
     1
 90
       50
176
     1
 90
       50
176
     1
290
     0
176
     1
 90
       50
176
     1
 62
   256
176
     0
 40
1.0
176
     0
 90
        2
176
     1
  1
strokes_ogs.tif
176
     1
290
     0
176
     1
 40
1.0
176
     1
 40
1.0
176
     1
  0
VISUALSTYLE
  5
6BA
102
{ACAD_REACTORS
330
6AA
102
}
330
6AA
100
AcDbVisualStyle
  2
ColorChange
 70
    16
177
     3
291
     1
 70
    58
 90
        2
176
     1
 90
        2
176
     1
 90
        3
176
     1
 90
        0
176
     1
 40
0.6
176
     1
 40
30.0
176
     1
 62
     8
420
  8421504
176
     1
 90
        1
176
     1
 90
        4
176
     1
 62
     7
176
     1
 62
   257
176
     1
 90
        1
176
     1
 90
        1
176
     1
 40
1.0
176
     1
 90
        8
176
     1
 62
     8
420
  8421504
176
     1
 40
1.0
176
     1
 90
        1
176
     1
 90
        6
176
     1
 90
        2
176
     1
 62
     7
176
     1
 90
        5
176
     1
 90
        0
176
     1
 90
        0
176
     1
290
     0
176
     1
 90
        1
176
     1
 40
0.0
176
     1
 90
        0
176
     1
290
     0
176
     1
290
     1
176
     1
290
     1
176
     1
290
     0
176
     1
290
     0
176
     1
290
     0
176
     1
290
     0
176
     1
290
     0
176
     1
290
     0
176
     1
 90
       50
176
     1
 40
0.0
176
     1
 40
1.0
176
     1
 90
        0
176
     1
 62
   178
420
        0
176
     1
 90
       50
176
     1
 90
        3
176
     1
 62
     5
420
      255
176
     1
290
     0
176
     1
 90
       50
176
     1
 90
       50
176
     1
 90
       50
176
     1
290
     0
176
     1
 90
       50
176
     1
 62
   256
176
     0
 40
1.0
176
     0
 90
        2
176
     1
  1
strokes_ogs.tif
176
     1
290
     0
176
     1
 40
1.0
176
     1
 40
1.0
176
     1
  0
VISUALSTYLE
  5
6B4
102
{ACAD_REACTORS
330
6AA
102
}
330
6AA
100
AcDbVisualStyle
  2
Conceptual
 70
     9
177
     3
291
     0
 70
    58
 90
        3
176
     1
 90
        2
176
     1
 90
        0
176
     1
 90
        0
176
     1
 40
0.6
176
     1
 40
30.0
176
     1
 62
     7
420
 16777215
176
     1
 90
        2
176
     1
 90
        2
176
     1
 62
     7
176
     1
 62
   257
176
     1
 90
        1
176
     1
 90
        1
176
     1
 40
179.0
176
     1
 90
        8
176
     1
 62
     7
176
     1
 40
1.0
176
     1
 90
        1
176
     1
 90
        6
176
     1
 90
        2
176
     1
 62
     7
176
     1
 90
        3
176
     1
 90
        0
176
     1
 90
        0
176
     1
290
     0
176
     1
 90
        1
176
     1
 40
0.0
176
     1
 90
        0
176
     1
290
     0
176
     1
290
     1
176
     1
290
     1
176
     1
290
     0
176
     1
290
     0
176
     1
290
     0
176
     1
290
     0
176
     1
290
     0
176
     1
290
     0
176
     1
 90
       50
176
     1
 40
0.0
176
     1
 40
1.0
176
     1
 90
        0
176
     1
 62
   178
420
        0
176
     1
 90
       50
176
     1
 90
        3
176
     1
 62
     5
420
      255
176
     1
290
     0
176
     1
 90
       50
176
     1
 90
       50
176
     1
 90
       50
176
     1
290
     0
176
     1
 90
       50
176
     1
 62
   256
176
     0
 40
1.0
176
     0
 90
        2
176
     1
  1
strokes_ogs.tif
176
     1
290
     0
176
     1
 40
1.0
176
     1
 40
1.0
176
     1
  0
VISUALSTYLE
  5
6B5
102
{ACAD_REACTORS
330
6AA
102
}
330
6AA
100
AcDbVisualStyle
  2
Dim
 70
    11
177
     3
291
     1
 70
    58
 90
        2
176
     1
 90
        2
176
     1
 90
        0
176
     1
 90
        0
176
     1
 40
0.6
176
     1
 40
30.0
176
     1
 62
     7
420
 16777215
176
     1
 90
        1
176
     1
 90
        4
176
     1
 62
     7
176
     1
 62
   257
176
     1
 90
        1
176
     1
 90
        1
176
     1
 40
1.0
176
     1
 90
        8
176
     1
 62
     7
176
     1
 40
1.0
176
     1
 90
        1
176
     1
 90
        6
176
     1
 90
        2
176
     1
 62
     7
176
     1
 90
        5
176
     1
 90
        0
176
     1
 90
        0
176
     1
290
     0
176
     1
 90
        1
176
     1
 40
-50.0
176
     1
 90
        0
176
     1
290
     0
176
     1
290
     1
176
     1
290
     1
176
     1
290
     0
176
     1
290
     0
176
     1
290
     0
176
     1
290
     0
176
     1
290
     0
176
     1
290
     0
176
     1
 90
       50
176
     1
 40
0.0
176
     1
 40
1.0
176
     1
 90
        0
176
     1
 62
   178
420
        0
176
     1
 90
       50
176
     1
 90
        3
176
     1
 62
     5
420
      255
176
     1
290
     0
176
     1
 90
       50
176
     1
 90
       50
176
     1
 90
       50
176
     1
290
     0
176
     1
 90
       50
176
     1
 62
   256
176
     0
 40
1.0
176
     0
 90
        2
176
     1
  1
strokes_ogs.tif
176
     1
290
     0
176
     1
 40
1.0
176
     1
 40
1.0
176
     1
  0
VISUALSTYLE
  5
6BD
102
{ACAD_REACTORS
330
6AA
102
}
330
6AA
100
AcDbVisualStyle
  2
EdgeColorOff
 70
    22
177
     3
291
     1
 70
    58
 90
        2
176
     0
 90
        2
176
     0
 90
        0
176
     0
 90
        0
176
     0
 40
0.6
176
     0
 40
30.0
176
     0
 62
     7
420
 16777215
176
     0
 90
        1
176
     0
 90
        4
176
     0
 62
     7
176
     0
 62
   257
176
     0
 90
        1
176
     0
 90
        1
176
     0
 40
1.0
176
     0
 90
        8
176
     2
 62
     7
176
     0
 40
1.0
176
     0
 90
        1
176
     0
 90
        6
176
     0
 90
        2
176
     0
 62
     7
176
     0
 90
        5
176
     0
 90
        0
176
     0
 90
        0
176
     0
290
     0
176
     0
 90
        1
176
     0
 40
0.0
176
     0
 90
        0
176
     0
290
     0
176
     0
290
     1
176
     0
290
     1
176
     0
290
     0
176
     0
290
     0
176
     0
290
     0
176
     0
290
     0
176
     0
290
     0
176
     0
290
     0
176
     0
 90
       50
176
     0
 40
0.0
176
     0
 40
1.0
176
     0
 90
        0
176
     0
 62
   178
420
        0
176
     0
 90
       50
176
     0
 90
        3
176
     0
 62
     5
420
      255
176
     0
290
     0
176
     0
 90
       50
176
     0
 90
       50
176
     0
 90
       50
176
     0
290
     0
176
     0
 90
       50
176
     0
 62
   256
176
     0
 40
1.0
176
     0
 90
        2
176
     0
  1
strokes_ogs.tif
176
     0
290
     0
176
     0
 40
1.0
176
     0
 40
1.0
176
     0
  0
VISUALSTYLE
  5
6B9
102
{ACAD_REACTORS
330
6AA
102
}
330
6AA
100
AcDbVisualStyle
  2
Facepattern
 70
    15
177
     3
291
     1
 70
    58
 90
        2
176
     1
 90
        2
176
     1
 90
        0
176
     1
 90
        0
176
     1
 40
0.6
176
     1
 40
30.0
176
     1
 62
     7
420
 16777215
176
     1
 90
        1
176
     1
 90
        4
176
     1
 62
     7
176
     1
 62
   257
176
     1
 90
        1
176
     1
 90
        1
176
     1
 40
1.0
176
     1
 90
        8
176
     1
 62
     7
176
     1
 40
1.0
176
     1
 90
        1
176
     1
 90
        6
176
     1
 90
        2
176
     1
 62
     7
176
     1
 90
        5
176
     1
 90
        0
176
     1
 90
        0
176
     1
290
     0
176
     1
 90
        1
176
     1
 40
0.0
176
     1
 90
        0
176
     1
290
     0
176
     1
290
     1
176
     1
290
     1
176
     1
290
     0
176
     1
290
     0
176
     1
290
     0
176
     1
290
     0
176
     1
290
     0
176
     1
290
     0
176
     1
 90
       50
176
     1
 40
0.0
176
     1
 40
1.0
176
     1
 90
        0
176
     1
 62
   178
420
        0
176
     1
 90
       50
176
     1
 90
        3
176
     1
 62
     5
420
      255
176
     1
290
     0
176
     1
 90
       50
176
     1
 90
       50
176
     1
 90
       50
176
     1
290
     0
176
     1
 90
       50
176
     1
 62
   256
176
     0
 40
1.0
176
     0
 90
        2
176
     1
  1
strokes_ogs.tif
176
     1
290
     0
176
     1
 40
1.0
176
     1
 40
1.0
176
     1
  0
VISUALSTYLE
  5
6AB
102
{ACAD_REACTORS
330
6AA
102
}
330
6AA
100
AcDbVisualStyle
  2
Flat
 70
     0
177
     3
291
     1
 70
    58
 90
        2
176
     1
 90
        1
176
     1
 90
        1
176
     1
 90
        2
176
     1
 40
0.6
176
     1
 40
30.0
176
     1
 62
     7
420
 16777215
176
     1
 90
        0
176
     1
 90
        0
176
     1
 62
     7
176
     1
 62
   257
176
     1
 90
        1
176
     1
 90
        1
176
     1
 40
1.0
176
     1
 90
        8
176
     1
 62
     7
176
     1
 40
1.0
176
     1
 90
        1
176
     1
 90
        6
176
     1
 90
        2
176
     1
 62
     7
176
     1
 90
        5
176
     1
 90
        0
176
     1
 90
        0
176
     1
290
     0
176
     1
 90
       13
176
     1
 40
0.0
176
     1
 90
        0
176
     1
290
     0
176
     1
290
     1
176
     1
290
     1
176
     1
290
     0
176
     1
290
     0
176
     1
290
     0
176
     1
290
     0
176
     1
290
     0
176
     1
290
     0
176
     1
 90
       50
176
     1
 40
0.0
176
     1
 40
1.0
176
     1
 90
        0
176
     1
 62
   178
420
        0
176
     1
 90
       50
176
     1
 90
        3
176
     1
 62
     5
420
      255
176
     1
290
     0
176
     1
 90
       50
176
     1
 90
       50
176
     1
 90
       50
176
     1
290
     0
176
     1
 90
       50
176
     1
 62
   256
176
     0
 40
1.0
176
     0
 90
        2
176
     1
  1
strokes_ogs.tif
176
     1
290
     0
176
     1
 40
1.0
176
     1
 40
1.0
176
     1
  0
VISUALSTYLE
  5
6AC
102
{ACAD_REACTORS
330
6AA
102
}
330
6AA
100
AcDbVisualStyle
  2
FlatWithEdges
 70
     1
177
     3
291
     1
 70
    58
 90
        2
176
     1
 90
        1
176
     1
 90
        1
176
     1
 90
        2
176
     1
 40
0.6
176
     1
 40
30.0
176
     1
 62
     7
420
 16777215
176
     1
 90
        1
176
     1
 90
        0
176
     1
 62
     7
176
     1
 62
   257
176
     1
 90
        1
176
     1
 90
        1
176
     1
 40
1.0
176
     1
 90
        0
176
     1
 62
   257
176
     1
 40
1.0
176
     1
 90
        1
176
     1
 90
        6
176
     1
 90
        2
176
     1
 62
     7
176
     1
 90
        5
176
     1
 90
        0
176
     1
 90
        0
176
     1
290
     0
176
     1
 90
       13
176
     1
 40
0.0
176
     1
 90
        0
176
     1
290
     0
176
     1
290
     1
176
     1
290
     1
176
     1
290
     0
176
     1
290
     0
176
     1
290
     0
176
     1
290
     0
176
     1
290
     0
176
     1
290
     0
176
     1
 90
       50
176
     1
 40
0.0
176
     1
 40
1.0
176
     1
 90
        0
176
     1
 62
   178
420
        0
176
     1
 90
       50
176
     1
 90
        3
176
     1
 62
     5
420
      255
176
     1
290
     0
176
     1
 90
       50
176
     1
 90
       50
176
     1
 90
       50
176
     1
290
     0
176
     1
 90
       50
176
     1
 62
   256
176
     0
 40
1.0
176
     0
 90
        2
176
     1
  1
strokes_ogs.tif
176
     1
290
     0
176
     1
 40
1.0
176
     1
 40
1.0
176
     1
  0
VISUALSTYLE
  5
6AD
102
{ACAD_REACTORS
330
6AA
102
}
330
6AA
100
AcDbVisualStyle
  2
Gouraud
 70
     2
177
     3
291
     1
 70
    58
 90
        2
176
     1
 90
        2
176
     1
 90
        1
176
     1
 90
        2
176
     1
 40
0.6
176
     1
 40
30.0
176
     1
 62
     7
420
 16777215
176
     1
 90
        0
176
     1
 90
        0
176
     1
 62
     7
176
     1
 62
   257
176
     1
 90
        1
176
     1
 90
        1
176
     1
 40
1.0
176
     1
 90
        0
176
     1
 62
     7
176
     1
 40
1.0
176
     1
 90
        1
176
     1
 90
        6
176
     1
 90
        2
176
     1
 62
     7
176
     1
 90
        5
176
     1
 90
        0
176
     1
 90
        0
176
     1
290
     0
176
     1
 90
       13
176
     1
 40
0.0
176
     1
 90
        0
176
     1
290
     0
176
     1
290
     1
176
     1
290
     1
176
     1
290
     0
176
     1
290
     0
176
     1
290
     0
176
     1
290
     0
176
     1
290
     0
176
     1
290
     0
176
     1
 90
       50
176
     1
 40
0.0
176
     1
 40
1.0
176
     1
 90
        0
176
     1
 62
   178
420
        0
176
     1
 90
       50
176
     1
 90
        3
176
     1
 62
     5
420
      255
176
     1
290
     0
176
     1
 90
       50
176
     1
 90
       50
176
     1
 90
       50
176
     1
290
     0
176
     1
 90
       50
176
     1
 62
   256
176
     0
 40
1.0
176
     0
 90
        2
176
     1
  1
strokes_ogs.tif
176
     1
290
     0
176
     1
 40
1.0
176
     1
 40
1.0
176
     1
  0
VISUALSTYLE
  5
6AE
102
{ACAD_REACTORS
330
6AA
102
}
330
6AA
100
AcDbVisualStyle
  2
GouraudWithEdges
 70
     3
177
     3
291
     1
 70
    58
 90
        2
176
     1
 90
        2
176
     1
 90
        1
176
     1
 90
        2
176
     1
 40
0.6
176
     1
 40
30.0
176
     1
 62
     7
420
 16777215
176
     1
 90
        1
176
     1
 90
        0
176
     1
 62
     7
176
     1
 62
   257
176
     1
 90
        1
176
     1
 90
        1
176
     1
 40
1.0
176
     1
 90
        0
176
     1
 62
   257
176
     1
 40
1.0
176
     1
 90
        1
176
     1
 90
        6
176
     1
 90
        2
176
     1
 62
     7
176
     1
 90
        5
176
     1
 90
        0
176
     1
 90
        0
176
     1
290
     0
176
     1
 90
       13
176
     1
 40
0.0
176
     1
 90
        0
176
     1
290
     0
176
     1
290
     1
176
     1
290
     1
176
     1
290
     0
176
     1
290
     0
176
     1
290
     0
176
     1
290
     0
176
     1
290
     0
176
     1
290
     0
176
     1
 90
       50
176
     1
 40
0.0
176
     1
 40
1.0
176
     1
 90
        0
176
     1
 62
   178
420
        0
176
     1
 90
       50
176
     1
 90
        3
176
     1
 62
     5
420
      255
176
     1
290
     0
176
     1
 90
       50
176
     1
 90
       50
176
     1
 90
       50
176
     1
290
     0
176
     1
 90
       50
176
     1
 62
   256
176
     0
 40
1.0
176
     0
 90
        2
176
     1
  1
strokes_ogs.tif
176
     1
290
     0
176
     1
 40
1.0
176
     1
 40
1.0
176
     1
  0
VISUALSTYLE
  5
6B1
102
{ACAD_REACTORS
330
6AA
102
}
330
6AA
100
AcDbVisualStyle
  2
Hidden
 70
     6
177
     3
291
     0
 70
    58
 90
        1
176
     1
 90
        2
176
     1
 90
        2
176
     1
 90
        0
176
     1
 40
0.6
176
     1
 40
30.0
176
     1
 62
     7
420
 16777215
176
     1
 90
        2
176
     1
 90
        2
176
     1
 62
     7
176
     1
 62
   257
176
     1
 90
        2
176
     1
 90
        1
176
     1
 40
40.0
176
     1
 90
        0
176
     1
 62
   257
176
     1
 40
1.0
176
     1
 90
        1
176
     1
 90
        6
176
     1
 90
        2
176
     1
 62
     7
176
     1
 90
        3
176
     1
 90
        0
176
     1
 90
        0
176
     1
290
     0
176
     1
 90
        1
176
     1
 40
0.0
176
     1
 90
        0
176
     1
290
     0
176
     1
290
     1
176
     1
290
     1
176
     1
290
     0
176
     1
290
     0
176
     1
290
     0
176
     1
290
     0
176
     1
290
     0
176
     1
290
     0
176
     1
 90
       50
176
     1
 40
0.0
176
     1
 40
1.0
176
     1
 90
        0
176
     1
 62
   178
420
        0
176
     1
 90
       50
176
     1
 90
        3
176
     1
 62
     5
420
      255
176
     1
290
     0
176
     1
 90
       50
176
     1
 90
       50
176
     1
 90
       50
176
     1
290
     0
176
     1
 90
       50
176
     1
 62
   256
176
     0
 40
1.0
176
     0
 90
        2
176
     1
  1
strokes_ogs.tif
176
     1
290
     0
176
     1
 40
1.0
176
     1
 40
1.0
176
     1
  0
VISUALSTYLE
  5
6BB
102
{ACAD_REACTORS
330
6AA
102
}
330
6AA
100
AcDbVisualStyle
  2
JitterOff
 70
    20
177
     3
291
     1
 70
    58
 90
        2
176
     0
 90
        2
176
     0
 90
        0
176
     0
 90
        0
176
     0
 40
0.6
176
     0
 40
30.0
176
     0
 62
     7
420
 16777215
176
     0
 90
        1
176
     0
 90
        4
176
     0
 62
     7
176
     0
 62
   257
176
     0
 90
        1
176
     0
 90
        1
176
     0
 40
1.0
176
     0
 90
       10
176
     2
 62
     7
176
     0
 40
1.0
176
     0
 90
        1
176
     0
 90
        6
176
     0
 90
        2
176
     0
 62
     7
176
     0
 90
        5
176
     0
 90
        0
176
     0
 90
        0
176
     0
290
     0
176
     0
 90
        1
176
     0
 40
0.0
176
     0
 90
        0
176
     0
290
     0
176
     0
290
     1
176
     0
290
     1
176
     0
290
     0
176
     0
290
     0
176
     0
290
     0
176
     0
290
     0
176
     0
290
     0
176
     0
290
     0
176
     0
 90
       50
176
     0
 40
0.0
176
     0
 40
1.0
176
     0
 90
        0
176
     0
 62
   178
420
        0
176
     0
 90
       50
176
     0
 90
        3
176
     0
 62
     5
420
      255
176
     0
290
     0
176
     0
 90
       50
176
     0
 90
       50
176
     0
 90
       50
176
     0
290
     0
176
     0
 90
       50
176
     0
 62
   256
176
     0
 40
1.0
176
     0
 90
        2
176
     0
  1
strokes_ogs.tif
176
     0
290
     0
176
     0
 40
1.0
176
     0
 40
1.0
176
     0
  0
VISUALSTYLE
  5
6B8
102
{ACAD_REACTORS
330
6AA
102
}
330
6AA
100
AcDbVisualStyle
  2
Linepattern
 70
    14
177
     3
291
     1
 70
    58
 90
        2
176
     1
 90
        2
176
     1
 90
        0
176
     1
 90
        0
176
     1
 40
0.6
176
     1
 40
30.0
176
     1
 62
     7
420
 16777215
176
     1
 90
        1
176
     1
 90
        4
176
     1
 62
     7
176
     1
 62
   257
176
     1
 90
        7
176
     1
 90
        7
176
     1
 40
1.0
176
     1
 90
        8
176
     1
 62
     7
176
     1
 40
1.0
176
     1
 90
        1
176
     1
 90
        6
176
     1
 90
        2
176
     1
 62
     7
176
     1
 90
        5
176
     1
 90
        0
176
     1
 90
        0
176
     1
290
     0
176
     1
 90
        1
176
     1
 40
0.0
176
     1
 90
        0
176
     1
290
     0
176
     1
290
     1
176
     1
290
     1
176
     1
290
     0
176
     1
290
     0
176
     1
290
     0
176
     1
290
     0
176
     1
290
     0
176
     1
290
     0
176
     1
 90
       50
176
     1
 40
0.0
176
     1
 40
1.0
176
     1
 90
        0
176
     1
 62
   178
420
        0
176
     1
 90
       50
176
     1
 90
        3
176
     1
 62
     5
420
      255
176
     1
290
     0
176
     1
 90
       50
176
     1
 90
       50
176
     1
 90
       50
176
     1
290
     0
176
     1
 90
       50
176
     1
 62
   256
176
     0
 40
1.0
176
     0
 90
        2
176
     1
  1
strokes_ogs.tif
176
     1
290
     0
176
     1
 40
1.0
176
     1
 40
1.0
176
     1
  0
VISUALSTYLE
  5
6BC
102
{ACAD_REACTORS
330
6AA
102
}
330
6AA
100
AcDbVisualStyle
  2
OverhangOff
 70
    21
177
     3
291
     1
 70
    58
 90
        2
176
     0
 90
        2
176
     0
 90
        0
176
     0
 90
        0
176
     0
 40
0.6
176
     0
 40
30.0
176
     0
 62
     7
420
 16777215
176
     0
 90
        1
176
     0
 90
        4
176
     0
 62
     7
176
     0
 62
   257
176
     0
 90
        1
176
     0
 90
        1
176
     0
 40
1.0
176
     0
 90
        9
176
     2
 62
     7
176
     0
 40
1.0
176
     0
 90
        1
176
     0
 90
        6
176
     0
 90
        2
176
     0
 62
     7
176
     0
 90
        5
176
     0
 90
        0
176
     0
 90
        0
176
     0
290
     0
176
     0
 90
        1
176
     0
 40
0.0
176
     0
 90
        0
176
     0
290
     0
176
     0
290
     1
176
     0
290
     1
176
     0
290
     0
176
     0
290
     0
176
     0
290
     0
176
     0
290
     0
176
     0
290
     0
176
     0
290
     0
176
     0
 90
       50
176
     0
 40
0.0
176
     0
 40
1.0
176
     0
 90
        0
176
     0
 62
   178
420
        0
176
     0
 90
       50
176
     0
 90
        3
176
     0
 62
     5
420
      255
176
     0
290
     0
176
     0
 90
       50
176
     0
 90
       50
176
     0
 90
       50
176
     0
290
     0
176
     0
 90
       50
176
     0
 62
   256
176
     0
 40
1.0
176
     0
 90
        2
176
     0
  1
strokes_ogs.tif
176
     0
290
     0
176
     0
 40
1.0
176
     0
 40
1.0
176
     0
  0
VISUALSTYLE
  5
6B3
102
{ACAD_REACTORS
330
6AA
102
}
330
6AA
100
AcDbVisualStyle
  2
Realistic
 70
     8
177
     3
291
     0
 70
    58
 90
        2
176
     1
 90
        3
176
     1
 90
        0
176
     1
 90
        2
176
     1
 40
0.6
176
     1
 40
30.0
176
     1
 62
     7
420
 16777215
176
     1
 90
        0
176
     1
 90
        0
176
     1
 62
     7
176
     1
 62
   257
176
     1
 90
        1
176
     1
 90
        1
176
     1
 40
1.0
176
     1
 90
        8
176
     1
 62
   257
176
     1
 40
1.0
176
     1
 90
        1
176
     1
 90
        6
176
     1
 90
        2
176
     1
 62
     7
176
     1
 90
        3
176
     1
 90
        0
176
     1
 90
        0
176
     1
290
     0
176
     1
 90
       13
176
     1
 40
0.0
176
     1
 90
        0
176
     1
290
     0
176
     1
290
     1
176
     1
290
     1
176
     1
290
     0
176
     1
290
     0
176
     1
290
     0
176
     1
290
     0
176
     1
290
     0
176
     1
290
     0
176
     1
 90
       50
176
     1
 40
0.0
176
     1
 40
1.0
176
     1
 90
        0
176
     1
 62
   178
420
        0
176
     1
 90
       50
176
     1
 90
        3
176
     1
 62
     5
420
      255
176
     1
290
     0
176
     1
 90
       50
176
     1
 90
       50
176
     1
 90
       50
176
     1
290
     0
176
     1
 90
       50
176
     1
 62
   256
176
     0
 40
1.0
176
     0
 90
        2
176
     1
  1
strokes_ogs.tif
176
     1
290
     0
176
     1
 40
1.0
176
     1
 40
1.0
176
     1
  0
VISUALSTYLE
  5
6C2
102
{ACAD_REACTORS
330
6AA
102
}
330
6AA
100
AcDbVisualStyle
  2
Shaded
 70
    27
177
     3
291
     0
 70
    58
 90
        2
176
     1
 90
        2
176
     1
 90
        1
176
     1
 90
        2
176
     1
 40
0.6
176
     1
 40
30.0
176
     1
 62
     7
420
 16777215
176
     1
 90
        0
176
     1
 90
        4
176
     1
 62
     7
176
     1
 62
   257
176
     1
 90
        1
176
     1
 90
        1
176
     1
 40
1.0
176
     1
 90
        8
176
     1
 62
   257
176
     1
 40
1.0
176
     1
 90
        1
176
     1
 90
        6
176
     1
 90
        2
176
     1
 62
     8
420
  7895160
176
     1
 90
        3
176
     1
 90
        0
176
     1
 90
        0
176
     1
290
     0
176
     1
 90
        5
176
     1
 40
0.0
176
     1
 90
        0
176
     1
290
     0
176
     1
290
     1
176
     1
290
     1
176
     1
290
     0
176
     1
290
     0
176
     1
290
     0
176
     1
290
     0
176
     1
290
     0
176
     1
290
     0
176
     1
 90
       50
176
     1
 40
0.0
176
     1
 40
1.0
176
     1
 90
        0
176
     1
 62
   178
420
        0
176
     1
 90
       50
176
     1
 90
        3
176
     1
 62
     5
420
      255
176
     1
290
     0
176
     1
 90
       50
176
     1
 90
       50
176
     1
 90
       50
176
     1
290
     0
176
     1
 90
       50
176
     1
 62
   256
176
     0
 40
1.0
176
     0
 90
        2
176
     1
  1
strokes_ogs.tif
176
     1
290
     0
176
     1
 40
1.0
176
     1
 40
1.0
176
     1
  0
VISUALSTYLE
  5
6C1
102
{ACAD_REACTORS
330
6AA
102
}
330
6AA
100
AcDbVisualStyle
  2
Shaded with edges
 70
    26
177
     3
291
     0
 70
    58
 90
        2
176
     1
 90
        2
176
     1
 90
        1
176
     1
 90
        2
176
     1
 40
0.6
176
     1
 40
30.0
176
     1
 62
     7
420
 16777215
176
     1
 90
        1
176
     1
 90
       10
176
     1
 62
     7
176
     1
 62
   257
176
     1
 90
        2
176
     1
 90
        1
176
     1
 40
1.0
176
     1
 90
        8
176
     1
 62
   257
176
     1
 40
1.0
176
     1
 90
        1
176
     1
 90
        6
176
     1
 90
        2
176
     1
 62
     7
176
     1
 90
        3
176
     1
 90
        0
176
     1
 90
        0
176
     1
290
     0
176
     1
 90
        5
176
     1
 40
0.0
176
     1
 90
        0
176
     1
290
     0
176
     1
290
     1
176
     1
290
     1
176
     1
290
     0
176
     1
290
     0
176
     1
290
     0
176
     1
290
     0
176
     1
290
     0
176
     1
290
     0
176
     1
 90
       50
176
     1
 40
0.0
176
     1
 40
1.0
176
     1
 90
        0
176
     1
 62
   178
420
        0
176
     1
 90
       50
176
     1
 90
        3
176
     1
 62
     5
420
      255
176
     1
290
     0
176
     1
 90
       50
176
     1
 90
       50
176
     1
 90
       50
176
     1
290
     0
176
     1
 90
       50
176
     1
 62
   256
176
     0
 40
1.0
176
     0
 90
        2
176
     1
  1
strokes_ogs.tif
176
     1
290
     0
176
     1
 40
1.0
176
     1
 40
1.0
176
     1
  0
VISUALSTYLE
  5
6BE
102
{ACAD_REACTORS
330
6AA
102
}
330
6AA
100
AcDbVisualStyle
  2
Shades of Gray
 70
    23
177
     3
291
     0
 70
    58
 90
        2
176
     1
 90
        2
176
     1
 90
        3
176
     1
 90
        0
176
     1
 40
0.6
176
     1
 40
30.0
176
     1
 62
     7
420
 16777215
176
     1
 90
        2
176
     1
 90
        2
176
     1
 62
     7
176
     1
 62
     7
176
     1
 90
        1
176
     1
 90
        1
176
     1
 40
40.0
176
     1
 90
        8
176
     1
 62
     7
176
     1
 40
1.0
176
     1
 90
        1
176
     1
 90
        6
176
     1
 90
        2
176
     1
 62
     7
176
     1
 90
        3
176
     1
 90
        0
176
     1
 90
        0
176
     1
290
     0
176
     1
 90
        1
176
     1
 40
0.0
176
     1
 90
        0
176
     1
290
     0
176
     1
290
     1
176
     1
290
     1
176
     1
290
     0
176
     1
290
     0
176
     1
290
     0
176
     1
290
     0
176
     1
290
     0
176
     1
290
     0
176
     1
 90
       50
176
     1
 40
0.0
176
     1
 40
1.0
176
     1
 90
        0
176
     1
 62
   178
420
        0
176
     1
 90
       50
176
     1
 90
        3
176
     1
 62
     5
420
      255
176
     1
290
     0
176
     1
 90
       50
176
     1
 90
       50
176
     1
 90
       50
176
     1
290
     0
176
     1
 90
       50
176
     1
 62
   256
176
     0
 40
1.0
176
     0
 90
        2
176
     1
  1
strokes_ogs.tif
176
     1
290
     0
176
     1
 40
1.0
176
     1
 40
1.0
176
     1
  0
VISUALSTYLE
  5
6BF
102
{ACAD_REACTORS
330
6AA
102
}
330
6AA
100
AcDbVisualStyle
  2
Sketchy
 70
    24
177
     3
291
     0
 70
    58
 90
        1
176
     1
 90
        2
176
     1
 90
        2
176
     1
 90
        0
176
     1
 40
0.6
176
     1
 40
30.0
176
     1
 62
     7
420
 16777215
176
     1
 90
        2
176
     1
 90
        2
176
     1
 62
     7
176
     1
 62
     7
176
     1
 90
        1
176
     1
 90
        1
176
     1
 40
40.0
176
     1
 90
       11
176
     1
 62
     7
176
     1
 40
1.0
176
     1
 90
        1
176
     1
 90
        6
176
     1
 90
        2
176
     1
 62
     7
176
     1
 90
        6
176
     1
 90
        0
176
     1
 90
        0
176
     1
290
     0
176
     1
 90
        1
176
     1
 40
0.0
176
     1
 90
        0
176
     1
290
     0
176
     1
290
     1
176
     1
290
     1
176
     1
290
     0
176
     1
290
     0
176
     1
290
     0
176
     1
290
     0
176
     1
290
     0
176
     1
290
     0
176
     1
 90
       50
176
     1
 40
0.0
176
     1
 40
1.0
176
     1
 90
        0
176
     1
 62
   178
420
        0
176
     1
 90
       50
176
     1
 90
        3
176
     1
 62
     5
420
      255
176
     1
290
     0
176
     1
 90
       50
176
     1
 90
       50
176
     1
 90
       50
176
     1
290
     0
176
     1
 90
       50
176
     1
 62
   256
176
     0
 40
1.0
176
     0
 90
        2
176
     1
  1
strokes_ogs.tif
176
     1
290
     0
176
     1
 40
1.0
176
     1
 40
1.0
176
     1
  0
VISUALSTYLE
  5
6B7
102
{ACAD_REACTORS
330
6AA
102
}
330
6AA
100
AcDbVisualStyle
  2
Thicken
 70
    13
177
     3
291
     1
 70
    58
 90
        2
176
     1
 90
        2
176
     1
 90
        0
176
     1
 90
        0
176
     1
 40
0.6
176
     1
 40
30.0
176
     1
 62
     7
420
 16777215
176
     1
 90
        1
176
     1
 90
        4
176
     1
 62
     7
176
     1
 62
   257
176
     1
 90
        1
176
     1
 90
        1
176
     1
 40
1.0
176
     1
 90
       12
176
     1
 62
     7
176
     1
 40
1.0
176
     1
 90
        1
176
     1
 90
        6
176
     1
 90
        2
176
     1
 62
     7
176
     1
 90
        5
176
     1
 90
        0
176
     1
 90
        0
176
     1
290
     0
176
     1
 90
        1
176
     1
 40
0.0
176
     1
 90
        0
176
     1
290
     0
176
     1
290
     1
176
     1
290
     1
176
     1
290
     0
176
     1
290
     0
176
     1
290
     0
176
     1
290
     0
176
     1
290
     0
176
     1
290
     0
176
     1
 90
       50
176
     1
 40
0.0
176
     1
 40
1.0
176
     1
 90
        0
176
     1
 62
   178
420
        0
176
     1
 90
       50
176
     1
 90
        3
176
     1
 62
     5
420
      255
176
     1
290
     0
176
     1
 90
       50
176
     1
 90
       50
176
     1
 90
       50
176
     1
290
     0
176
     1
 90
       50
176
     1
 62
   256
176
     0
 40
1.0
176
     0
 90
        2
176
     1
  1
strokes_ogs.tif
176
     1
290
     0
176
     1
 40
1.0
176
     1
 40
1.0
176
     1
  0
VISUALSTYLE
  5
6B0
102
{ACAD_REACTORS
330
6AA
102
}
330
6AA
100
AcDbVisualStyle
  2
Wireframe
 70
     5
177
     3
291
     0
 70
    58
 90
        0
176
     1
 90
        2
176
     1
 90
        0
176
     1
 90
        0
176
     1
 40
0.6
176
     1
 40
30.0
176
     1
 62
     7
420
 16777215
176
     1
 90
        1
176
     1
 90
        4
176
     1
 62
     7
176
     1
 62
   257
176
     1
 90
        1
176
     1
 90
        1
176
     1
 40
1.0
176
     1
 90
        0
176
     1
 62
   257
176
     1
 40
1.0
176
     1
 90
        1
176
     1
 90
        6
176
     1
 90
        2
176
     1
 62
     7
176
     1
 90
        3
176
     1
 90
        0
176
     1
 90
        0
176
     1
290
     0
176
     1
 90
        1
176
     1
 40
0.0
176
     1
 90
        0
176
     1
290
     0
176
     1
290
     1
176
     1
290
     1
176
     1
290
     0
176
     1
290
     0
176
     1
290
     0
176
     1
290
     0
176
     1
290
     0
176
     1
290
     0
176
     1
 90
       50
176
     1
 40
0.0
176
     1
 40
1.0
176
     1
 90
        0
176
     1
 62
   178
420
        0
176
     1
 90
       50
176
     1
 90
        3
176
     1
 62
     5
420
      255
176
     1
290
     0
176
     1
 90
       50
176
     1
 90
       50
176
     1
 90
       50
176
     1
290
     0
176
     1
 90
       50
176
     1
 62
   256
176
     0
 40
1.0
176
     0
 90
        2
176
     1
  1
strokes_ogs.tif
176
     1
290
     0
176
     1
 40
1.0
176
     1
 40
1.0
176
     1
  0
VISUALSTYLE
  5
6C0
102
{ACAD_REACTORS
330
6AA
102
}
330
6AA
100
AcDbVisualStyle
  2
X-Ray
 70
    25
177
     3
291
     0
 70
    58
 90
        2
176
     1
 90
        2
176
     1
 90
        1
176
     1
 90
        1
176
     1
 40
0.5
176
     1
 40
30.0
176
     1
 62
     7
420
 16777215
176
     1
 90
        1
176
     1
 90
        0
176
     1
 62
     7
176
     1
 62
   257
176
     1
 90
        1
176
     1
 90
        1
176
     1
 40
1.0
176
     1
 90
        8
176
     1
 62
     7
176
     1
 40
1.0
176
     1
 90
        1
176
     1
 90
        6
176
     1
 90
        2
176
     1
 62
     7
176
     1
 90
        3
176
     1
 90
        0
176
     1
 90
        0
176
     1
290
     0
176
     1
 90
       13
176
     1
 40
0.0
176
     1
 90
        0
176
     1
290
     0
176
     1
290
     1
176
     1
290
     1
176
     1
290
     0
176
     1
290
     0
176
     1
290
     0
176
     1
290
     0
176
     1
290
     0
176
     1
290
     0
176
     1
 90
       50
176
     1
 40
0.0
176
     1
 40
1.0
176
     1
 90
        0
176
     1
 62
   178
420
        0
176
     1
 90
       50
176
     1
 90
        3
176
     1
 62
     5
420
      255
176
     1
290
     0
176
     1
 90
       50
176
     1
 90
       50
176
     1
 90
       50
176
     1
290
     0
176
     1
 90
       50
176
     1
 62
   256
176
     0
 40
1.0
176
     0
 90
        2
176
     1
  1
strokes_ogs.tif
176
     1
290
     0
176
     1
 40
1.0
176
     1
 40
1.0
176
     1
  0
DICTIONARYVAR
  5
783
102
{ACAD_REACTORS
330
782
102
}
330
782
100
DictionaryVariables
280
     0
  1
1:1
  0
DICTIONARYVAR
  5
788
102
{ACAD_REACTORS
330
782
102
}
330
782
100
DictionaryVariables
280
     0
  1
Standard
  0
DICTIONARYVAR
  5
787
102
{ACAD_REACTORS
330
782
102
}
330
782
100
DictionaryVariables
280
     0
  1
Standard
  0
XRECORD
  5
6F1
102
{ACAD_REACTORS
330
6EF
102
}
330
6EF
100
AcDbXrecord
280
     1
1000
GCode
  0
XRECORD
  5
6F2
102
{ACAD_REACTORS
330
6EF
102
}
330
6EF
100
AcDbXrecord
280
     1
1000
Measurements
  0
XRECORD
  5
6F3
102
{ACAD_REACTORS
330
6EF
102
}
330
6EF
100
AcDbXrecord
280
     1
1000
64
  0
XRECORD
  5
6F4
102
{ACAD_REACTORS
330
6EF
102
}
330
6EF
100
AcDbXrecord
280
     1
1000
200
  0
XRECORD
  5
6F5
102
{ACAD_REACTORS
330
6EF
102
}
330
6EF
100
AcDbXrecord
280
     1
290
     0
  0
XRECORD
  5
6F6
102
{ACAD_REACTORS
330
6EF
102
}
330
6EF
100
AcDbXrecord
280
     1
290
     0
  0
XRECORD
  5
6F7
102
{ACAD_REACTORS
330
6EF
102
}
330
6EF
100
AcDbXrecord
280
     1
290
     1
  0
XRECORD
  5
6F8
102
{ACAD_REACTORS
330
6EF
102
}
330
6EF
100
AcDbXrecord
280
     1
 90
        0
  0
XRECORD
  5
6F9
102
{ACAD_REACTORS
330
6EF
102
}
330
6EF
100
AcDbXrecord
280
     1
290
     0
  0
XRECORD
  5
6FA
102
{ACAD_REACTORS
330
6EF
102
}
330
6EF
100
AcDbXrecord
280
     1
1000
0
  0
XRECORD
  5
6FB
102
{ACAD_REACTORS
330
6EF
102
}
330
6EF
100
AcDbXrecord
280
     1
290
     0
  0
XRECORD
  5
6FC
102
{ACAD_REACTORS
330
6EF
102
}
330
6EF
100
AcDbXrecord
280
     1
1000
0
  0
XRECORD
  5
6FD
102
{ACAD_REACTORS
330
6EF
102
}
330
6EF
100
AcDbXrecord
280
     1
1000
8
  0
XRECORD
  5
6FE
102
{ACAD_REACTORS
330
6EF
102
}
330
6EF
100
AcDbXrecord
280
     1
290
     0
  0
XRECORD
  5
6FF
102
{ACAD_REACTORS
330
6EF
102
}
330
6EF
100
AcDbXrecord
280
     1
1000
0.00051
  0
XRECORD
  5
700
102
{ACAD_REACTORS
330
6EF
102
}
330
6EF
100
AcDbXrecord
280
     1
1000
2
  0
XRECORD
  5
701
102
{ACAD_REACTORS
330
6EF
102
}
330
6EF
100
AcDbXrecord
280
     1
1000
-2
  0
XRECORD
  5
702
102
{ACAD_REACTORS
330
6EF
102
}
330
6EF
100
AcDbXrecord
280
     1
1000
100
  0
XRECORD
  5
703
102
{ACAD_REACTORS
330
6EF
102
}
330
6EF
100
AcDbXrecord
280
     1
1000
GCode
  0
XRECORD
  5
704
102
{ACAD_REACTORS
330
6EF
102
}
330
6EF
100
AcDbXrecord
280
     1
1000
/Users/andi/Desktop/leitz_usa_1c_filter_holder.nc
  0
XRECORD
  5
705
102
{ACAD_REACTORS
330
6EF
102
}
330
6EF
100
AcDbXrecord
280
     1
1000
White
  0
XRECORD
  5
706
102
{ACAD_REACTORS
330
6EF
102
}
330
6EF
100
AcDbXrecord
280
     1
1000
FullColor
  0
XRECORD
  5
707
102
{ACAD_REACTORS
330
6EF
102
}
330
6EF
100
AcDbXrecord
280
     1
290
     1
  0
XRECORD
  5
708
102
{ACAD_REACTORS
330
6EF
102
}
330
6EF
100
AcDbXrecord
280
     1
290
     1
  0
XRECORD
  5
709
102
{ACAD_REACTORS
330
6EF
102
}
330
6EF
100
AcDbXrecord
280
     1
290
     1
  0
XRECORD
  5
70A
102
{ACAD_REACTORS
330
6EF
102
}
330
6EF
100
AcDbXrecord
280
     1
290
     1
  0
XRECORD
  5
70B
102
{ACAD_REACTORS
330
6EF
102
}
330
6EF
100
AcDbXrecord
280
     1
1000
auto
  0
XRECORD
  5
70C
102
{ACAD_REACTORS
330
6EF
102
}
330
6EF
100
AcDbXrecord
280
     1
1000
auto
  0
XRECORD
  5
70D
102
{ACAD_REACTORS
330
6EF
102
}
330
6EF
100
AcDbXrecord
280
     1
1000
auto
  0
XRECORD
  5
70E
102
{ACAD_REACTORS
330
6EF
102
}
330
6EF
100
AcDbXrecord
280
     1
1000
auto
  0
XRECORD
  5
70F
102
{ACAD_REACTORS
330
6EF
102
}
330
6EF
100
AcDbXrecord
280
     1
1000
auto
  0
XRECORD
  5
710
102
{ACAD_REACTORS
330
6EF
102
}
330
6EF
100
AcDbXrecord
280
     1
1000
auto
  0
XRECORD
  5
711
102
{ACAD_REACTORS
330
6EF
102
}
330
6EF
100
AcDbXrecord
280
     1
1000
auto
  0
XRECORD
  5
712
102
{ACAD_REACTORS
330
6EF
102
}
330
6EF
100
AcDbXrecord
280
     1
1000
auto
  0
XRECORD
  5
713
102
{ACAD_REACTORS
330
6EF
102
}
330
6EF
100
AcDbXrecord
280
     1
290
     0
  0
XRECORD
  5
714
102
{ACAD_REACTORS
330
6EF
102
}
330
6EF
100
AcDbXrecord
280
     1
290
     0
  0
XRECORD
  5
715
102
{ACAD_REACTORS
330
6EF
102
}
330
6EF
100
AcDbXrecord
280
     1
290
     0
  0
XRECORD
  5
716
102
{ACAD_REACTORS
330
6EF
102
}
330
6EF
100
AcDbXrecord
280
     1
290
     0
  0
XRECORD
  5
717
102
{ACAD_REACTORS
330
6EF
102
}
330
6EF
100
AcDbXrecord
280
     1
 90
        0
  0
XRECORD
  5
718
102
{ACAD_REACTORS
330
6EF
102
}
330
6EF
100
AcDbXrecord
280
     1
 90
        0
  0
XRECORD
  5
719
102
{ACAD_REACTORS
330
6EF
102
}
330
6EF
100
AcDbXrecord
280
     1
 90
        0
  0
XRECORD
  5
71A
102
{ACAD_REACTORS
330
6EF
102
}
330
6EF
100
AcDbXrecord
280
     1
 90
        0
  0
XRECORD
  5
71B
102
{ACAD_REACTORS
330
6EF
102
}
330
6EF
100
AcDbXrecord
280
     1
1000
auto
  0
XRECORD
  5
71C
102
{ACAD_REACTORS
330
6EF
102
}
330
6EF
100
AcDbXrecord
280
     1
1000
auto
  0
XRECORD
  5
71D
102
{ACAD_REACTORS
330
6EF
102
}
330
6EF
100
AcDbXrecord
280
     1
1000
auto
  0
XRECORD
  5
71E
102
{ACAD_REACTORS
330
6EF
102
}
330
6EF
100
AcDbXrecord
280
     1
1000
auto
  0
XRECORD
  5
71F
102
{ACAD_REACTORS
330
6EF
102
}
330
6EF
100
AcDbXrecord
280
     1
1000
auto
  0
XRECORD
  5
720
102
{ACAD_REACTORS
330
6EF
102
}
330
6EF
100
AcDbXrecord
280
     1
1000
auto
  0
XRECORD
  5
721
102
{ACAD_REACTORS
330
6EF
102
}
330
6EF
100
AcDbXrecord
280
     1
1000
auto
  0
XRECORD
  5
722
102
{ACAD_REACTORS
330
6EF
102
}
330
6EF
100
AcDbXrecord
280
     1
1000
auto
  0
XRECORD
  5
723
102
{ACAD_REACTORS
330
6EF
102
}
330
6EF
100
AcDbXrecord
280
     1
 90
        1
  0
XRECORD
  5
724
102
{ACAD_REACTORS
330
6EF
102
}
330
6EF
100
AcDbXrecord
280
     1
 40
10.0
  0
XRECORD
  5
725
102
{ACAD_REACTORS
330
6EF
102
}
330
6EF
100
AcDbXrecord
280
     1
 40
10.0
  0
XRECORD
  5
726
102
{ACAD_REACTORS
330
6EF
102
}
330
6EF
100
AcDbXrecord
280
     1
 40
10.0
  0
XRECORD
  5
727
102
{ACAD_REACTORS
330
6EF
102
}
330
6EF
100
AcDbXrecord
280
     1
 40
10.0
  0
XRECORD
  5
728
102
{ACAD_REACTORS
330
6EF
102
}
330
6EF
100
AcDbXrecord
280
     1
290
     0
  0
XRECORD
  5
729
102
{ACAD_REACTORS
330
6EF
102
}
330
6EF
100
AcDbXrecord
280
     1
 90
        1
  0
XRECORD
  5
72A
102
{ACAD_REACTORS
330
6EF
102
}
330
6EF
100
AcDbXrecord
280
     1
 40
0.0
  0
XRECORD
  5
72B
102
{ACAD_REACTORS
330
6EF
102
}
330
6EF
100
AcDbXrecord
280
     1
 40
0.0
  0
XRECORD
  5
72C
102
{ACAD_REACTORS
330
6EF
102
}
330
6EF
100
AcDbXrecord
280
     1
1000
Landscape
  0
XRECORD
  5
72D
102
{ACAD_REACTORS
330
6EF
102
}
330
6EF
100
AcDbXrecord
280
     1
 40
297.0
  0
XRECORD
  5
72E
102
{ACAD_REACTORS
330
6EF
102
}
330
6EF
100
AcDbXrecord
280
     1
 40
210.0
  0
XRECORD
  5
72F
102
{ACAD_REACTORS
330
6EF
102
}
330
6EF
100
AcDbXrecord
280
     1
1000
1:1
  0
XRECORD
  5
730
102
{ACAD_REACTORS
330
6EF
102
}
330
6EF
100
AcDbXrecord
280
     1
290
     1
  0
XRECORD
  5
731
102
{ACAD_REACTORS
330
6EF
102
}
330
6EF
100
AcDbXrecord
280
     1
1000
3.15.5
  0
XRECORD
  5
732
102
{ACAD_REACTORS
330
6EF
102
}
330
6EF
100
AcDbXrecord
280
     1
 90
        4
  0
XRECORD
  5
733
102
{ACAD_REACTORS
330
6EF
102
}
330
6EF
100
AcDbXrecord
280
     1
  0
XRECORD
  5
734
102
{ACAD_REACTORS
330
6EF
102
}
330
6EF
100
AcDbXrecord
280
     1
 40
198.5717821782178
  0
XRECORD
  5
735
102
{ACAD_REACTORS
330
6EF
102
}
330
6EF
100
AcDbXrecord
280
     1
 40
341.8304455445544
  0
DICTIONARY
  5
784
330
6EA
100
AcDbDictionary
280
     1
281
     1
  3
ACAD_ROUNDTRIP_2008_TABLESTYLE_CELLSTYLEMAP
360
785
  0
CELLSTYLEMAP
  5
785
102
{ACAD_REACTORS
330
784
102
}
330
784
100
AcDbCellStyleMap
 90
        3
300
CELLSTYLE
  1
TABLEFORMAT_BEGIN
 90
        5
170
     1
 91
        0
 92
    32768
 62
   257
 93
        1
300
CONTENTFORMAT
  1
CONTENTFORMAT_BEGIN
 90
        0
 91
        0
 92
        4
 93
        0
300

 40
0.0
140
1.0
 94
        5
 62
     0
340
692
144
0.25
309
CONTENTFORMAT_END
171
     1
301
MARGIN
  1
CELLMARGIN_BEGIN
 40
0.06
 40
0.06
 40
0.06
 40
0.06
 40
0.06
 40
0.06
309
CELLMARGIN_END
 94
        6
 95
        1
302
GRIDFORMAT
  1
GRIDFORMAT_BEGIN
 90
        0
 91
        1
 62
     0
 92
       -2
340
694
 93
        0
 40
0.045
309
GRIDFORMAT_END
 95
        2
302
GRIDFORMAT
  1
GRIDFORMAT_BEGIN
 90
        0
 91
        1
 62
     0
 92
       -2
340
694
 93
        0
 40
0.045
309
GRIDFORMAT_END
 95
        4
302
GRIDFORMAT
  1
GRIDFORMAT_BEGIN
 90
        0
 91
        1
 62
     0
 92
       -2
340
694
 93
        0
 40
0.045
309
GRIDFORMAT_END
 95
        8
302
GRIDFORMAT
  1
GRIDFORMAT_BEGIN
 90
        0
 91
        1
 62
     0
 92
       -2
340
694
 93
        0
 40
0.045
309
GRIDFORMAT_END
 95
       16
302
GRIDFORMAT
  1
GRIDFORMAT_BEGIN
 90
        0
 91
        1
 62
     0
 92
       -2
340
694
 93
        0
 40
0.045
309
GRIDFORMAT_END
 95
       32
302
GRIDFORMAT
  1
GRIDFORMAT_BEGIN
 90
        0
 91
        1
 62
     0
 92
       -2
340
694
 93
        0
 40
0.045
309
GRIDFORMAT_END
309
TABLEFORMAT_END
  1
CELLSTYLE_BEGIN
 90
        1
 91
        1
300
_TITLE
309
CELLSTYLE_END
300
CELLSTYLE
  1
TABLEFORMAT_BEGIN
 90
        5
170
     1
 91
        0
 92
        0
 62
   257
 93
        1
300
CONTENTFORMAT
  1
CONTENTFORMAT_BEGIN
 90
        0
 91
        0
 92
        4
 93
        0
300

 40
0.0
140
1.0
 94
        5
 62
     0
340
692
144
0.18
309
CONTENTFORMAT_END
171
     1
301
MARGIN
  1
CELLMARGIN_BEGIN
 40
0.06
 40
0.06
 40
0.06
 40
0.06
 40
0.06
 40
0.06
309
CELLMARGIN_END
 94
        6
 95
        1
302
GRIDFORMAT
  1
GRIDFORMAT_BEGIN
 90
        0
 91
        1
 62
     0
 92
       -2
340
694
 93
        0
 40
0.045
309
GRIDFORMAT_END
 95
        2
302
GRIDFORMAT
  1
GRIDFORMAT_BEGIN
 90
        0
 91
        1
 62
     0
 92
       -2
340
694
 93
        0
 40
0.045
309
GRIDFORMAT_END
 95
        4
302
GRIDFORMAT
  1
GRIDFORMAT_BEGIN
 90
        0
 91
        1
 62
     0
 92
       -2
340
694
 93
        0
 40
0.045
309
GRIDFORMAT_END
 95
        8
302
GRIDFORMAT
  1
GRIDFORMAT_BEGIN
 90
        0
 91
        1
 62
     0
 92
       -2
340
694
 93
        0
 40
0.045
309
GRIDFORMAT_END
 95
       16
302
GRIDFORMAT
  1
GRIDFORMAT_BEGIN
 90
        0
 91
        1
 62
     0
 92
       -2
340
694
 93
        0
 40
0.045
309
GRIDFORMAT_END
 95
       32
302
GRIDFORMAT
  1
GRIDFORMAT_BEGIN
 90
        0
 91
        1
 62
     0
 92
       -2
340
694
 93
        0
 40
0.045
309
GRIDFORMAT_END
309
TABLEFORMAT_END
  1
CELLSTYLE_BEGIN
 90
        2
 91
        1
300
_HEADER
309
CELLSTYLE_END
300
CELLSTYLE
  1
TABLEFORMAT_BEGIN
 90
        5
170
     1
 91
        0
 92
        0
 62
   257
 93
        1
300
CONTENTFORMAT
  1
CONTENTFORMAT_BEGIN
 90
        0
 91
        0
 92
        4
 93
        0
300

 40
0.0
140
1.0
 94
        2
 62
     0
340
692
144
0.18
309
CONTENTFORMAT_END
171
     1
301
MARGIN
  1
CELLMARGIN_BEGIN
 40
0.06
 40
0.06
 40
0.06
 40
0.06
 40
0.06
 40
0.06
309
CELLMARGIN_END
 94
        6
 95
        1
302
GRIDFORMAT
  1
GRIDFORMAT_BEGIN
 90
        0
 91
        1
 62
     0
 92
       -2
340
694
 93
        0
 40
0.045
309
GRIDFORMAT_END
 95
        2
302
GRIDFORMAT
  1
GRIDFORMAT_BEGIN
 90
        0
 91
        1
 62
     0
 92
       -2
340
694
 93
        0
 40
0.045
309
GRIDFORMAT_END
 95
        4
302
GRIDFORMAT
  1
GRIDFORMAT_BEGIN
 90
        0
 91
        1
 62
     0
 92
       -2
340
694
 93
        0
 40
0.045
309
GRIDFORMAT_END
 95
        8
302
GRIDFORMAT
  1
GRIDFORMAT_BEGIN
 90
        0
 91
        1
 62
     0
 92
       -2
340
694
 93
        0
 40
0.045
309
GRIDFORMAT_END
 95
       16
302
GRIDFORMAT
  1
GRIDFORMAT_BEGIN
 90
        0
 91
        1
 62
     0
 92
       -2
340
694
 93
        0
 40
0.045
309
GRIDFORMAT_END
 95
       32
302
GRIDFORMAT
  1
GRIDFORMAT_BEGIN
 90
        0
 91
        1
 62
     0
 92
       -2
340
694
 93
        0
 40
0.045
309
GRIDFORMAT_END
309
TABLEFORMAT_END
  1
CELLSTYLE_BEGIN
 90
        3
 91
        2
300
_DATA
309
CELLSTYLE_END
  0
ENDSEC
  0
EOF
